<svg xmlns="http://www.w3.org/2000/svg" xmlns:xlink="http://www.w3.org/1999/xlink" width="119" height="112" viewBox="0 0 119 112"><defs><path id="a06ka" d="M523.1 1415.96c-3.606-13.881-14.847-77.862 97.837-37.92"/><path id="a06kb" d="M621.78 1378.336l.839.297"/><path id="a06kc" d="M608.817 1427.68a12.045 12.045 0 0 0-23.879-2.246l-37.018-1.004.407 6.36s-5.279 12.179 22.463 15.424v12.31h32.072v-20.467a12.037 12.037 0 0 0 5.955-10.378z"/><path id="a06ke" d="M549.598 1431.056s-5.055 11.664 21.513 14.775v11.794h30.714v-31.235l-52.622-1.425z"/><path id="a06kf" d="M564.948 1382.384a5.663 5.663 0 0 1-7.786 1.77l-16.492-10.868a5.663 5.663 0 0 1-1.769-7.786 5.663 5.663 0 0 1 7.78-1.77l16.492 10.867a5.663 5.663 0 0 1 1.775 7.787z"/><path id="a06kh" d="M564.035 1381.79a5.264 5.264 0 0 1-7.238 1.644l-15.334-10.102a5.264 5.264 0 0 1-1.645-7.238 5.264 5.264 0 0 1 7.238-1.644l15.33 10.103a5.264 5.264 0 0 1 1.649 7.236z"/><path id="a06ki" d="M584.459 1428.077c0-6.37 5.164-11.535 11.534-11.535 6.37 0 11.535 5.164 11.535 11.535 0 6.37-5.164 11.534-11.535 11.534-6.37 0-11.534-5.164-11.534-11.534z"/><path id="a06kj" d="M547.914 1364.25c0-6.125 6.125-12.25 12.25-12.25h23.32c6.125 0 12.25 6.125 12.25 12.25v61.813c0 6.125-6.125 12.25-12.25 12.25h-23.32c-6.125 0-12.25-6.125-12.25-12.25z"/><path id="a06kl" d="M548.56 1366.807c0-6.82 6.82-13.64 13.64-13.64h19.247c6.82 0 13.64 6.82 13.64 13.64v56.702c0 6.82-6.82 13.64-13.64 13.64h-19.246c-6.82 0-13.64-6.82-13.64-13.64z"/><path id="a06km" d="M583.513 1355.272a3.772 3.772 0 0 1-3.719 3.208h-16.068a3.772 3.772 0 0 1-3.717-3.208h-8.513c-.976-.001-1.768.79-1.768 1.766v76.234c0 .976.79 1.768 1.767 1.768h40.659c.976 0 1.768-.79 1.768-1.766v-76.234c0-.976-.79-1.768-1.767-1.768z"/><path id="a06kn" d="M566.706 1356.601c0-.162.162-.324.324-.324h9.72c.162 0 .324.162.324.324a.349.349 0 0 1-.324.325h-9.72a.349.349 0 0 1-.324-.325z"/><path id="a06ko" d="M578.888 1356.537a.389.389 0 1 1 .777 0 .389.389 0 0 1-.777 0z"/><path id="a06kp" d="M603.45 1430.11c-3.347.774-5.644-1.409-6.418-4.755l-7.692-28.56a6.265 6.265 0 0 1 4.68-7.49 6.265 6.265 0 0 1 7.49 4.679l6.277 29.292c.775 3.352-.99 6.06-4.336 6.834z"/><path id="a06kr" d="M590.42 1397.047c-.591-2.557 1.375-5.704 3.932-6.295 2.557-.591 5.705 1.375 6.296 3.932l7.072 30.611c.591 2.557-1.375 5.705-3.932 6.296-2.557.59-5.705-1.375-6.296-3.933z"/><path id="a06ks" d="M563.58 1464v-10.234h43.9V1464z"/><path id="a06ku" d="M564.766 1462.962v-8.01h41.528v8.01z"/><path id="a06kv" d="M581.619 1379.05l-3.403-2.562 1.484-1.928-2.476-1.943-1.547 1.961-3.498-2.633a.77.77 0 0 0-.924 0l-9.275 6.904c-.351.297-.68.637-.683 1.414h-.01l-.024 10.637v.473a1.16 1.16 0 0 0 1.156 1.163h.457l8.794.02 9.252.02a1.16 1.16 0 0 0 1.162-1.157l.026-11.09h.019c0-.78-.159-.983-.51-1.28z"/><path id="a06kx" d="M581.215 1380.49c0-.71-.148-.89-.465-1.164l-8.613-6.477a.703.703 0 0 0-.844 0l-8.461 6.3a1.492 1.492 0 0 0-.623 1.289h-.009l-.022 9.706v.431c-.001.584.471 1.059 1.056 1.06h.416l8.024.018 8.44.02c.585 0 1.06-.472 1.061-1.056l.023-10.12z"/><path id="a06kz" d="M562.356 1380.477l18.662.042-.023 10.268a.62.62 0 0 1-.622.619l-17.352-.04a.684.684 0 0 1-.683-.685l.024-10.204z"/><path id="a06kA" d="M562.357 1380.474l-.02 9.43c-.002.801.645 1.451 1.445 1.453l15.765.035"/><path id="a06kB" d="M581.021 1380.515l-.02 9.437a1.45 1.45 0 0 1-1.453 1.446l-15.764-.035"/><path id="a06kC" d="M571.292 1373.095l-8.306 6.125a1.446 1.446 0 0 0-.613 1.253l18.672.06c0-.69-.148-.87-.457-1.132l-8.461-6.303a.696.696 0 0 0-.835-.003z"/><path id="a06kD" d="M579 1375.226l-2.26-1.77-5.459 6.914-2.933-2.275-1.838 2.335 4.27 3.262 1.059.85z"/><path id="a06kF" d="M578.833 1375.183l-2.046-1.57-5.424 7.074-3.012-2.31-1.571 2.048 4.036 3.09 1.035.776z"/><path id="a06kG" d="M561.406 1397.95a5.621 5.621 0 0 1-7.728 1.755l-14.016-9.125a5.621 5.621 0 0 1-1.756-7.729 5.621 5.621 0 0 1 7.729-1.756l14.015 9.126a5.621 5.621 0 0 1 1.756 7.728z"/><path id="a06kI" d="M560.662 1397.469a5.264 5.264 0 0 1-7.238 1.645l-13.127-8.548a5.264 5.264 0 0 1-1.645-7.237 5.264 5.264 0 0 1 7.238-1.645l13.127 8.547a5.264 5.264 0 0 1 1.645 7.238z"/><path id="a06kJ" d="M558.547 1413.021a5.594 5.594 0 0 1-7.693 1.749l-11.062-7.156a5.594 5.594 0 0 1-1.748-7.693 5.594 5.594 0 0 1 7.693-1.75l11.06 7.159a5.594 5.594 0 0 1 1.75 7.691z"/><path id="a06kL" d="M555.77 1428.17a5.645 5.645 0 0 1-7.762 1.765l-6.851-4.998a5.645 5.645 0 0 1-1.765-7.763 5.645 5.645 0 0 1 7.763-1.759l6.85 4.997a5.645 5.645 0 0 1 1.765 7.758z"/><path id="a06kN" d="M555.217 1427.798a5.264 5.264 0 0 1-7.238 1.645l-6.387-4.66a5.264 5.264 0 0 1-1.645-7.238 5.264 5.264 0 0 1 7.237-1.645l6.388 4.66a5.264 5.264 0 0 1 1.645 7.238z"/><path id="a06kO" d="M556.696 1409.037v-9.047h30.256v9.047z"/><path id="a06kQ" d="M557.734 1407.406v-6.526h28.18v6.526z"/><path id="a06kR" d="M638.277 1383.817l.532.083-.083-.08h.044l-.07-.023-9.653-9.155-2.343 3.697-1.95 3.373.904.14-.4 1.828z"/><path id="a06kT" d="M627.108 1378.532l-1.78 3.086 13.052 2.126-8.406-5.854z"/><path id="a06kU" d="M629.252 1375.15l9.128 8.594-11.272-5.212z"/><path id="a06kV" d="M625.81 1383.432l12.535.24-11.702-4.157z"/><path id="a06kW" d="M557.939 1412.634a5.264 5.264 0 0 1-7.238 1.645l-10.406-6.734a5.264 5.264 0 0 1-1.645-7.237 5.264 5.264 0 0 1 7.238-1.653l10.406 6.734a5.264 5.264 0 0 1 1.645 7.245z"/><linearGradient id="a06kd" x1="578.37" x2="578.37" y1="1458.53" y2="1415.63" gradientUnits="userSpaceOnUse"><stop offset="0" stop-color="gray" stop-opacity=".25"/><stop offset=".54" stop-color="gray" stop-opacity=".12"/><stop offset="1" stop-color="gray" stop-opacity=".1"/></linearGradient><linearGradient id="a06kg" x1="551.92" x2="551.92" y1="1385.02" y2="1362.87" gradientUnits="userSpaceOnUse"><stop offset="0" stop-color="gray" stop-opacity=".25"/><stop offset=".54" stop-color="gray" stop-opacity=".12"/><stop offset="1" stop-color="gray" stop-opacity=".1"/></linearGradient><linearGradient id="a06kk" x1="601.25" x2="601.25" y1="1449.05" y2="1362.74" gradientUnits="userSpaceOnUse"><stop offset="0" stop-color="gray" stop-opacity=".25"/><stop offset=".54" stop-color="gray" stop-opacity=".12"/><stop offset="1" stop-color="gray" stop-opacity=".1"/></linearGradient><linearGradient id="a06kq" x1="598.58" x2="598.58" y1="1430.27" y2="1389.15" gradientUnits="userSpaceOnUse"><stop offset="0" stop-color="gray" stop-opacity=".25"/><stop offset=".54" stop-color="gray" stop-opacity=".12"/><stop offset="1" stop-color="gray" stop-opacity=".1"/></linearGradient><linearGradient id="a06kt" x1="614.95" x2="614.95" y1="1474.74" y2="1464.51" gradientUnits="userSpaceOnUse"><stop offset="0" stop-color="gray" stop-opacity=".25"/><stop offset=".54" stop-color="gray" stop-opacity=".12"/><stop offset="1" stop-color="gray" stop-opacity=".1"/></linearGradient><linearGradient id="a06kw" x1="571.7" x2="571.7" y1="1392.58" y2="1371.79" gradientUnits="userSpaceOnUse"><stop offset="0" stop-opacity=".12"/><stop offset=".55" stop-opacity=".09"/><stop offset="1" stop-opacity=".02"/></linearGradient><linearGradient id="a06ky" x1="571.7" x2="571.7" y1="1391.66" y2="1372.7" gradientUnits="userSpaceOnUse"><stop offset="0" stop-color="gray" stop-opacity=".25"/><stop offset=".54" stop-color="gray" stop-opacity=".12"/><stop offset="1" stop-color="gray" stop-opacity=".1"/></linearGradient><linearGradient id="a06kE" x1="602.11" x2="602.11" y1="1395.29" y2="1384.2" gradientUnits="userSpaceOnUse"><stop offset="0" stop-opacity=".12"/><stop offset=".55" stop-opacity=".09"/><stop offset="1" stop-opacity=".02"/></linearGradient><linearGradient id="a06kH" x1="549.66" x2="549.66" y1="1400.56" y2="1380.24" gradientUnits="userSpaceOnUse"><stop offset="0" stop-color="gray" stop-opacity=".25"/><stop offset=".54" stop-color="gray" stop-opacity=".12"/><stop offset="1" stop-color="gray" stop-opacity=".1"/></linearGradient><linearGradient id="a06kK" x1="548.29" x2="548.29" y1="1415.62" y2="1397.32" gradientUnits="userSpaceOnUse"><stop offset="0" stop-color="gray" stop-opacity=".25"/><stop offset=".54" stop-color="gray" stop-opacity=".12"/><stop offset="1" stop-color="gray" stop-opacity=".1"/></linearGradient><linearGradient id="a06kM" x1="547.59" x2="547.59" y1="1430.8" y2="1414.55" gradientUnits="userSpaceOnUse"><stop offset="0" stop-color="gray" stop-opacity=".25"/><stop offset=".54" stop-color="gray" stop-opacity=".12"/><stop offset="1" stop-color="gray" stop-opacity=".1"/></linearGradient><linearGradient id="a06kP" x1="571.83" x2="571.83" y1="1409.04" y2="1399.99" gradientUnits="userSpaceOnUse"><stop offset="0" stop-opacity=".12"/><stop offset=".55" stop-opacity=".09"/><stop offset="1" stop-opacity=".02"/></linearGradient><linearGradient id="a06kS" x1="662.53" x2="662.53" y1="1401.57" y2="1391.9" gradientUnits="userSpaceOnUse"><stop offset="0" stop-color="gray" stop-opacity=".25"/><stop offset=".54" stop-color="gray" stop-opacity=".12"/><stop offset="1" stop-color="gray" stop-opacity=".1"/></linearGradient></defs><g><g transform="translate(-520 -1352)"><g/><g><use fill="#fff" fill-opacity="0" stroke="#69f0ae" stroke-dasharray="12.04 12.04" stroke-linecap="round" stroke-miterlimit="50" stroke-width="2" xlink:href="#a06ka"/></g><g><use fill="#fff" fill-opacity="0" stroke="#69f0ae" stroke-linecap="round" stroke-miterlimit="50" stroke-width="2" xlink:href="#a06kb"/></g><g><use fill="url(#a06kd)" xlink:href="#a06kc"/></g><g><use fill="#f6b9ad" xlink:href="#a06ke"/></g><g><use fill="url(#a06kg)" xlink:href="#a06kf"/></g><g><use fill="#f6b9ad" xlink:href="#a06kh"/></g><g><use fill="#f6b9ad" xlink:href="#a06ki"/></g><g><use fill="url(#a06kk)" xlink:href="#a06kj"/></g><g><use fill="#fff" xlink:href="#a06kl"/></g><g><use fill="#2c308e" xlink:href="#a06km"/></g><g><use fill="#dbdbdb" xlink:href="#a06kn"/></g><g><use fill="#dbdbdb" xlink:href="#a06ko"/></g><g><use fill="url(#a06kq)" xlink:href="#a06kp"/></g><g><use fill="#f6b9ad" xlink:href="#a06kr"/></g><g><use fill="url(#a06kt)" xlink:href="#a06ks"/></g><g><use fill="#ff8976" xlink:href="#a06ku"/></g><g><use fill="url(#a06kw)" xlink:href="#a06kv"/></g><g><use fill="url(#a06ky)" xlink:href="#a06kx"/></g><g><use fill="#2c308e" xlink:href="#a06kz"/></g><g opacity=".2"><use fill="#fff" xlink:href="#a06kz"/></g><g><use fill="#f5f5f5" xlink:href="#a06kA"/></g><g><use fill="#fff" xlink:href="#a06kB"/></g><g><use fill="#2c308e" xlink:href="#a06kC"/></g><g opacity=".2"><use xlink:href="#a06kC"/></g><g><use fill="url(#a06kE)" xlink:href="#a06kD"/></g><g><use fill="#fff" xlink:href="#a06kF"/></g><g><use fill="url(#a06kH)" xlink:href="#a06kG"/></g><g><use fill="#f6b9ad" xlink:href="#a06kI"/></g><g><use fill="url(#a06kK)" xlink:href="#a06kJ"/></g><g><use fill="url(#a06kM)" xlink:href="#a06kL"/></g><g><use fill="#f6b9ad" xlink:href="#a06kN"/></g><g><use fill="url(#a06kP)" xlink:href="#a06kO"/></g><g><use fill="#69f0ae" xlink:href="#a06kQ"/></g><g><use fill="url(#a06kS)" xlink:href="#a06kR"/></g><g><use fill="#2c308e" xlink:href="#a06kT"/></g><g opacity=".2"><use xlink:href="#a06kT"/></g><g><use fill="#2c308e" xlink:href="#a06kU"/></g><g><use fill="#2c308e" xlink:href="#a06kV"/></g><g><use fill="#f6b9ad" xlink:href="#a06kW"/></g></g></g></svg>