<svg xmlns="http://www.w3.org/2000/svg" xmlns:xlink="http://www.w3.org/1999/xlink" width="114" height="112" viewBox="0 0 114 112"><defs><path id="vxebc" d="M903 1456.393v-99.478h74.03v99.478z"/><path id="vxebe" d="M903.964 1454.274v-96.009h71.716v96.009z"/><path id="vxebf" d="M909.555 1363.084v-.77h24.677v.77z"/><path id="vxebg" d="M909.555 1366.554v-.77h24.677v.77z"/><path id="vxebh" d="M937.895 1363.084v-.77h24.676v.77z"/><path id="vxebi" d="M941.75 1385.063v-.77h24.676v.77z"/><path id="vxebj" d="M942.329 1387.183v-.771h24.676v.77z"/><path id="vxebk" d="M943.486 1389.304v-.77h24.677v.77z"/><path id="vxebl" d="M941.75 1419.186v-.771h24.676v.77z"/><path id="vxebm" d="M942.329 1421.307v-.771h24.676v.77z"/><path id="vxebn" d="M943.486 1423.426v-.77h24.677v.77z"/><path id="vxebo" d="M909.749 1402.991v-26.605h26.218v26.605z"/><path id="vxebq" d="M909.914 1402.413v-25.447h25.805v25.447z"/><path id="vxebr" d="M910.823 1395.087v-16.58h24.07v16.58z"/><path id="vxeba" d="M910.988 1394.702v-16.001h23.737v16.001z"/><path id="vxebu" d="M908.976 1394.124l5.978-9.254 2.505 4.048 5.399-5.59 4.627 5.59 4.048-8.289 10.41 16.58-33.738-1.158z"/><path id="vxebv" d="M911.868 1381.014a1.735 1.735 0 1 1 3.47 0 1.735 1.735 0 0 1-3.47 0z"/><path id="vxebw" d="M909.749 1437.115v-26.604h26.218v26.604z"/><path id="vxeby" d="M909.914 1436.536v-25.448h25.805v25.448z"/><path id="vxebz" d="M910.823 1429.211v-16.58h24.07v16.58z"/><path id="vxebb" d="M910.988 1428.825v-16.002h23.737v16.002z"/><path id="vxebC" d="M908.976 1428.247l5.978-9.255 2.505 4.05 5.399-5.591 4.627 5.59 4.048-8.29 10.41 16.58-33.738-1.156z"/><path id="vxebD" d="M911.868 1415.138a1.735 1.735 0 1 1 3.47 0 1.735 1.735 0 0 1-3.47 0z"/><path id="vxebE" d="M986.478 1464l-72.61-14.43 19.39-97.57 72.61 14.43z"/><path id="vxebG" d="M985.568 1461.658l-70.341-13.98 18.714-94.166 70.34 13.979z"/><path id="vxebH" d="M938.04 1359.63l.15-.756 49.92 9.921-.15.756z"/><path id="vxebI" d="M923.836 1431.108l.15-.757 49.92 9.921-.15.756z"/><path id="vxebJ" d="M922.97 1435.455l.15-.756 38.575 7.666-.15.756z"/><path id="vxebK" d="M922.106 1439.805l.15-.756 14.37 2.856-.15.756z"/><path id="vxebL" d="M937.174 1363.98l.15-.756 24.96 4.96-.15.757z"/><path id="vxebM" d="M936.312 1368.329l.15-.756 45.003 8.943-.15.756z"/><path id="vxebN" d="M935.447 1372.679l.15-.756 10.967 2.179-.15.756z"/><path id="vxebO" d="M934.583 1377.028l.15-.756 49.92 9.92-.15.757z"/><path id="vxebP" d="M978.835 1429.263l-44.813-8.906 5.11-25.715 44.813 8.906z"/><path id="vxebR" d="M934.388 1420.036l4.998-25.149 44.246 8.794-4.997 25.148z"/><path id="vxebS" d="M933.72 1381.378l.15-.756 49.92 9.92-.15.757z"/><path id="vxebT" d="M939.698 1417.553l3.645-18.341 5.484 1.09-3.645 18.341z"/><path id="vxebU" d="M949.53 1419.508l2.443-12.291 5.484 1.09-2.443 12.29z"/><path id="vxebV" d="M959.364 1421.462l1.316-6.618 5.484 1.09-1.315 6.617z"/><path id="vxebW" d="M969.197 1423.417l2.668-13.426 5.484 1.09-2.668 13.426z"/><path id="vxebX" d="M987.555 1424.31c-7.328 7.045-18.98 6.815-26.026-.513-7.045-7.328-6.816-18.98.512-26.025 7.328-7.046 18.98-6.817 26.026.51 7.046 7.33 6.817 18.982-.512 26.028zm5.794-31.11a25.735 25.735 0 0 0-36.831-.277c-9.74 9.819-9.905 25.807-.378 35.834 8.641 9.096 22.583 10.634 33 3.642l18.603 19.349c.48.499 1.272.514 1.771.035l4.635-4.458c.5-.48.515-1.272.035-1.77l-18.598-19.349c7.36-10.087 6.418-24.004-2.237-33.006z"/><path id="vxebZ" d="M961.165 1405.92c-2.07 0-2.074 3.217 0 3.217 2.073 0 2.073-3.217 0-3.217z"/><path id="vxebab" d="M975.595 1395.614c-5.572-.126-10.641 2.669-13.337 6.888-.88 1.377 1.618 2.594 2.493 1.224 2.231-3.493 6.472-5.712 11.06-5.597 4.807.12 9.182 2.871 11.498 6.688.878 1.448 3.181.132 2.311-1.308-2.816-4.622-8.27-7.758-14.025-7.895z"/><path id="vxebad" d="M989.574 1423.32c-7.328 7.044-18.98 6.815-26.026-.513-7.045-7.328-6.816-18.98.512-26.026 7.328-7.045 18.98-6.816 26.026.511 7.046 7.329 6.817 18.982-.512 26.027zm5.794-31.097a25.735 25.735 0 0 0-36.831-.278c-9.74 9.82-9.905 25.808-.378 35.835 8.642 9.095 22.583 10.633 33 3.64l18.601 19.35c.48.5 1.273.515 1.771.035l4.636-4.457c.498-.48.514-1.272.035-1.771l-18.604-19.35c7.362-10.085 6.422-24-2.23-33.004z"/><path id="vxebae" d="M963.184 1404.94c-2.07 0-2.074 3.218 0 3.218 2.073 0 2.073-3.217 0-3.217z"/><path id="vxebaf" d="M977.614 1394.636c-5.572-.125-10.641 2.67-13.337 6.89-.88 1.376 1.617 2.593 2.492 1.222 2.232-3.493 6.473-5.711 11.06-5.596 4.808.12 9.183 2.87 11.499 6.688.878 1.447 3.18.132 2.311-1.308-2.821-4.635-8.269-7.772-14.025-7.896z"/><linearGradient id="vxebd" x1="940.02" x2="940.02" y1="1456.4" y2="1356.92" gradientUnits="userSpaceOnUse"><stop offset="0" stop-color="gray" stop-opacity=".25"/><stop offset=".54" stop-color="gray" stop-opacity=".12"/><stop offset="1" stop-color="gray" stop-opacity=".1"/></linearGradient><linearGradient id="vxebp" x1="922.86" x2="922.86" y1="1402.99" y2="1376.39" gradientUnits="userSpaceOnUse"><stop offset="0" stop-color="gray" stop-opacity=".25"/><stop offset=".54" stop-color="gray" stop-opacity=".12"/><stop offset="1" stop-color="gray" stop-opacity=".1"/></linearGradient><linearGradient id="vxebs" x1="922.86" x2="922.86" y1="1395.09" y2="1378.51" gradientUnits="userSpaceOnUse"><stop offset="0" stop-color="gray" stop-opacity=".25"/><stop offset=".54" stop-color="gray" stop-opacity=".12"/><stop offset="1" stop-color="gray" stop-opacity=".1"/></linearGradient><linearGradient id="vxebx" x1="922.86" x2="922.86" y1="1437.11" y2="1410.51" gradientUnits="userSpaceOnUse"><stop offset="0" stop-color="gray" stop-opacity=".25"/><stop offset=".54" stop-color="gray" stop-opacity=".12"/><stop offset="1" stop-color="gray" stop-opacity=".1"/></linearGradient><linearGradient id="vxebA" x1="922.86" x2="922.86" y1="1429.21" y2="1412.63" gradientUnits="userSpaceOnUse"><stop offset="0" stop-color="gray" stop-opacity=".25"/><stop offset=".54" stop-color="gray" stop-opacity=".12"/><stop offset="1" stop-color="gray" stop-opacity=".1"/></linearGradient><linearGradient id="vxebF" x1="1003.23" x2="905.67" y1="1414.75" y2="1395.36" gradientUnits="userSpaceOnUse"><stop offset="0" stop-color="gray" stop-opacity=".25"/><stop offset=".54" stop-color="gray" stop-opacity=".12"/><stop offset="1" stop-color="gray" stop-opacity=".1"/></linearGradient><linearGradient id="vxebQ" x1="966.67" x2="940.95" y1="1410.81" y2="1405.7" gradientUnits="userSpaceOnUse"><stop offset="0" stop-color="gray" stop-opacity=".25"/><stop offset=".54" stop-color="gray" stop-opacity=".12"/><stop offset="1" stop-color="gray" stop-opacity=".1"/></linearGradient><linearGradient id="vxebY" x1="981.82" x2="981.82" y1="1452.13" y2="1385.3" gradientUnits="userSpaceOnUse"><stop offset="0" stop-color="#b3b3b3" stop-opacity=".25"/><stop offset=".54" stop-color="#b3b3b3" stop-opacity=".1"/><stop offset="1" stop-color="#b3b3b3" stop-opacity=".05"/></linearGradient><linearGradient id="vxebaa" x1="961.16" x2="961.16" y1="1409.13" y2="1405.92" gradientUnits="userSpaceOnUse"><stop offset="0" stop-opacity=".12"/><stop offset=".55" stop-opacity=".09"/><stop offset="1" stop-opacity=".02"/></linearGradient><linearGradient id="vxebac" x1="975.94" x2="975.94" y1="1405.44" y2="1395.61" gradientUnits="userSpaceOnUse"><stop offset="0" stop-opacity=".12"/><stop offset=".55" stop-opacity=".09"/><stop offset="1" stop-opacity=".02"/></linearGradient><clipPath id="vxebt"><use xlink:href="#vxeba"/></clipPath><clipPath id="vxebB"><use xlink:href="#vxebb"/></clipPath></defs><g><g transform="translate(-903 -1352)"><g opacity=".5"><g opacity=".5"><use fill="url(#vxebd)" xlink:href="#vxebc"/></g></g><g><use fill="#f2f2f2" xlink:href="#vxebe"/></g><g><use fill="#e0e0e0" xlink:href="#vxebf"/></g><g opacity=".7"><use fill="#2c308e" xlink:href="#vxebg"/></g><g><use fill="#e0e0e0" xlink:href="#vxebh"/></g><g><use fill="#e0e0e0" xlink:href="#vxebi"/></g><g><use fill="#e0e0e0" xlink:href="#vxebj"/></g><g><use fill="#e0e0e0" xlink:href="#vxebk"/></g><g><use fill="#e0e0e0" xlink:href="#vxebl"/></g><g><use fill="#e0e0e0" xlink:href="#vxebm"/></g><g><use fill="#e0e0e0" xlink:href="#vxebn"/></g><g opacity=".5"><g opacity=".5"><use fill="url(#vxebp)" xlink:href="#vxebo"/></g></g><g><use fill="#f5f5f5" xlink:href="#vxebq"/></g><g opacity=".5"><g opacity=".5"><use fill="url(#vxebs)" xlink:href="#vxebr"/></g></g><g><use fill="#fff" xlink:href="#vxeba"/></g><g><g><use fill="#fff" xlink:href="#vxeba"/></g><g clip-path="url(#vxebt)" opacity=".4"><use fill="#2c308e" xlink:href="#vxebu"/></g><g clip-path="url(#vxebt)" opacity=".4"><use fill="#2c308e" xlink:href="#vxebv"/></g></g><g opacity=".5"><g opacity=".5"><use fill="url(#vxebx)" xlink:href="#vxebw"/></g></g><g><use fill="#f5f5f5" xlink:href="#vxeby"/></g><g opacity=".5"><g opacity=".5"><use fill="url(#vxebA)" xlink:href="#vxebz"/></g></g><g><use fill="#fff" xlink:href="#vxebb"/></g><g><g><use fill="#fff" xlink:href="#vxebb"/></g><g clip-path="url(#vxebB)" opacity=".4"><use fill="#bdbdbd" xlink:href="#vxebC"/></g><g clip-path="url(#vxebB)" opacity=".4"><use fill="#bdbdbd" xlink:href="#vxebD"/></g></g><g opacity=".5"><g opacity=".5"><use fill="url(#vxebF)" xlink:href="#vxebE"/></g></g><g><use fill="#fff" xlink:href="#vxebG"/></g><g><use fill="#e0e0e0" xlink:href="#vxebH"/></g><g><use fill="#e0e0e0" xlink:href="#vxebI"/></g><g><use fill="#e0e0e0" xlink:href="#vxebJ"/></g><g opacity=".7"><use fill="#2c308e" xlink:href="#vxebK"/></g><g opacity=".7"><use fill="#2c308e" xlink:href="#vxebL"/></g><g><use fill="#e0e0e0" xlink:href="#vxebM"/></g><g opacity=".7"><use fill="#3ad29f" xlink:href="#vxebN"/></g><g><use fill="#e0e0e0" xlink:href="#vxebO"/></g><g opacity=".5"><g opacity=".5"><use fill="url(#vxebQ)" xlink:href="#vxebP"/></g></g><g><use fill="#fff" xlink:href="#vxebR"/></g><g><use fill="#e0e0e0" xlink:href="#vxebS"/></g><g><use fill="#2c308e" xlink:href="#vxebT"/></g><g><use fill="#3ad29f" xlink:href="#vxebU"/></g><g><use fill="#f55f44" xlink:href="#vxebV"/></g><g><use fill="#fdd835" xlink:href="#vxebW"/></g><g><use fill="url(#vxebY)" xlink:href="#vxebX"/></g><g><use fill="url(#vxebaa)" xlink:href="#vxebZ"/></g><g><use fill="url(#vxebac)" xlink:href="#vxebab"/></g><g><use fill="#2c308e" xlink:href="#vxebad"/></g><g><use fill="#2c308e" xlink:href="#vxebae"/></g><g><use fill="#2c308e" xlink:href="#vxebaf"/></g></g></g></svg>