<svg xmlns="http://www.w3.org/2000/svg" xmlns:xlink="http://www.w3.org/1999/xlink" width="116" height="95" viewBox="0 0 116 95"><defs><path id="om5na" d="M1310.182 1378.165l-3.256-7.137 29.463-13.44 3.256 7.137z"/><path id="om5nc" d="M1321.509 1363.983a2.675 2.675 0 1 1 1.266-3.517 2.644 2.644 0 0 1-1.266 3.518zm-3.034-6.65c-2.274 1.038-3.257 3.767-2.194 6.096 1.063 2.329 3.768 3.376 6.042 2.338 2.274-1.038 3.257-3.767 2.194-6.096-1.062-2.329-3.768-3.375-6.042-2.338z"/><path id="om5ne" d="M1310.35 1377.715l-3.112-6.823 28.842-13.156 3.113 6.822z"/><path id="om5nf" d="M1321.517 1364.003a2.556 2.556 0 1 1-2.121-4.65 2.556 2.556 0 0 1 2.12 4.648zm-2.9-6.359a4.432 4.432 0 1 0 3.677 8.065 4.432 4.432 0 0 0-3.678-8.065z"/><path id="om5ng" d="M1307.551 1404.844l-5.8-12.716 12.716-5.8 5.8 12.715z"/><path id="om5ni" d="M1319.089 1430.023l-5.8-12.716 12.716-5.8 5.8 12.716z"/><path id="om5nk" d="M1307.804 1404.165l-5.376-11.785 11.785-5.375 5.375 11.785z"/><path id="om5nl" d="M1319.192 1429.13l-5.376-11.785 11.785-5.375 5.376 11.785z"/><path id="om5nm" d="M1324.14 1388.234l-.514-1.128 16.153-7.368.514 1.127z"/><path id="om5nn" d="M1324.912 1389.924l-.514-1.127 26.672-12.166.514 1.127z"/><path id="om5no" d="M1325.682 1391.615l-.514-1.127 24.793-11.31.514 1.127z"/><path id="om5np" d="M1335.529 1413.2l-.515-1.127 16.154-7.369.514 1.128z"/><path id="om5nq" d="M1336.3 1414.89l-.514-1.128 26.672-12.166.514 1.127z"/><path id="om5nr" d="M1337.07 1416.581l-.513-1.127 24.793-11.31.514 1.128z"/><path id="om5ns" d="M1308.013 1396.102l3.035.986.998-5.841 1.477.404-1.66 7.22-4.578-2.006z"/><path id="om5nu" d="M1308.4 1396.025l2.639.856.868-5.079 1.283.352-1.444 6.278-3.98-1.743z"/><path id="om5nv" d="M1319.86 1421.146l2.638.856.868-5.08 1.283.352-1.444 6.279-3.98-1.743z"/><path id="om5nw" d="M1338.568 1451.484l-5.73-12.56 37.682-17.189 5.73 12.56z"/><path id="om5nx" d="M1349.201 1435.743c.588-.547 1.408-.426 1.758.324.35.75.196 1.809-.295 2.47a1.995 1.995 0 0 1-.216.243 2.754 2.754 0 0 1-.932-.532c-.695-.627-1.088-1.786-.31-2.51zm-1.003 7.057c-.287.284-.59.059-.743-.238-.185-.36-.106-.716.13-1.033.04-.052.081-.102.125-.15.566.366 1.029.89.493 1.421zm16.859-11.055c-1.448-.413-2.93-.335-3.391 1.321-.156.558-.174 1.425-.773 1.712-.88.424-1.943-.423-2.708-.768-1.424-.643-2.887-.205-3.712 1.146-.418.685-.597 1.473-.74 2.253-.06.339-.069.757-.211 1.076-.273.61-1.128.555-1.689.532-.122 0-.248-.015-.373-.028a3.31 3.31 0 0 0 .627-2.108c-.037-1.238-.84-2.592-2.245-2.44-1.259.13-2.145 1.346-2.004 2.576.12 1.046.801 1.856 1.674 2.352-.428.19-.886.338-1.29.534-.19.091-.374.194-.551.307-1.225-.59-2.834-.702-3.935-.1-.534.292-.144 1.158.392.864.839-.458 1.764-.343 2.641-.052l.073.026c-.086.111-.163.23-.228.354-.496.962 0 2.484 1.205 2.588 1.699.145 1.778-2.1.856-2.994a2.414 2.414 0 0 0-.12-.11c.381-.184.794-.323 1.159-.478.317-.135.62-.303.901-.502l.066.017c1.298.294 3.323.385 3.79-1.187.4-1.364.438-4.262 2.594-3.994.88.109 1.601.784 2.438 1.029.748.223 1.615.232 2.23-.32.506-.454.62-1.126.775-1.753.08-.324.159-.71.423-.942.477-.417 1.265-.172 1.797-.02.581.165.918-.724.329-.891z"/><path id="om5ny" d="M1372.895 1380.974l-10.55 4.113c-1.984-.147-6.158-.686-10.301-2.64-4.612-2.174-9.896-2.17-14.376.109-10.325.247-16.008-1.076-19.04-2.328l.8-1.641-10.693-4.17-26.735-11.981v49.109l9.356 4.169 5.019-12.04 11.021 5.098 2.116-5.377 7.237 5.37.493.414-.679.705a3.537 3.537 0 0 0 0 4.863 3.22 3.22 0 0 0 4.679 0l-.371.392a3.537 3.537 0 0 0 0 4.863 3.22 3.22 0 0 0 4.679 0l2.143-2.228-1.472 1.529a3.537 3.537 0 0 0 0 4.863 3.22 3.22 0 0 0 4.68 0l2.115-2.2-.89.926a2.47 2.47 0 0 0 0 3.398 2.25 2.25 0 0 0 3.268 0l1.411-1.467c2.424 1.771 4.386 3.064 5.347 3.398 4.003 1.388 4.003-1.392 4.003-1.392 5.347 2.779 8.02-2.778 8.02-2.778 6.684 2.778 6.684-4.17 6.684-4.17 1.67 1.159 2.875.628 3.717-.391 1.146-1.383 1.286-3.334.5-4.9l6.388-5.903 2.762 5.648 11.022-5.097 5.019 11.126 7.39-3.3v-48.596z"/><path id="om5nA" d="M1371.12 1406.69l-11.634 10.341-9.048-16.804 20.682-5.17z"/><path id="om5nB" d="M1315.536 1379.545s3.734 5.17 25.852 3.877l12.927 19.39 8.663 9.746c1.36 1.531 1.437 3.854.102 5.407-.812.942-1.98 1.437-3.594.359 0 0 0 6.463-6.463 3.878 0 0-2.585 5.17-7.756 2.585 0 0 0 2.585-3.877 1.292-3.878-1.292-24.561-18.096-24.561-18.096l-9.048-6.462z"/><path id="om5nC" d="M1362.07 1386.009s-5.585 0-11.108-2.508c-5.023-2.278-10.871-1.988-15.506 1.002-3.777 2.438-7.05 6.473-6.988 13.139 0 0 5.027 5.17 10.34-5.17h3.878s3.734 12.926 14.22 11.631c10.485-1.295 12.927-2.585 12.927-2.585z"/><path id="om5nD" d="M1323.4 1411.323c1.131-1.131 3.394-1.13 4.525 0 1.131 1.131 1.131 3.394 0 4.525l-2.585 2.585c-1.131 1.13-3.393 1.13-4.525 0-1.13-1.132-1.13-3.394 0-4.525z"/><path id="om5nE" d="M1319.234 1406.44c1.131-1.131 3.394-1.131 4.525 0 1.13 1.131 1.13 3.394 0 4.525l-2.585 2.585c-1.131 1.13-3.394 1.13-4.525 0-1.13-1.132-1.13-3.394 0-4.525z"/><path id="om5nF" d="M1329.216 1414.554c1.132-1.131 3.394-1.131 4.525 0 1.131 1.13 1.131 3.393 0 4.524l-3.23 3.231c-1.132 1.131-3.394 1.131-4.525 0-1.132-1.131-1.132-3.393 0-4.524z"/><path id="om5nG" d="M1333.706 1419.115c.79-.79 2.37-.79 3.16 0s.79 2.37 0 3.16l-2.012 2.01c-.79.79-2.37.79-3.16 0s-.79-2.37 0-3.16z"/><path id="om5nH" d="M1384.045 1409.276l-11.633 5.17-11.634-28.437 10.342-3.878z"/><path id="om5nI" d="M1296.148 1402.813l11.633 5.17 11.634-28.437-10.342-3.88z"/><path id="om5nJ" d="M1283.22 1364.034l25.853 11.633-16.803 38.78-9.05-3.878z"/><path id="om5nK" d="M1396.972 1370.497l-25.852 11.634 16.804 38.778 9.048-3.878z"/><path id="om5nL" d="M1387.227 1409.636a1.074 1.074 0 1 1 2.148 0 1.074 1.074 0 0 1-2.148 0z"/><linearGradient id="om5nb" x1="1340.58" x2="1337.32" y1="1361.44" y2="1354.31" gradientUnits="userSpaceOnUse"><stop offset="0" stop-color="gray" stop-opacity=".25"/><stop offset=".54" stop-color="gray" stop-opacity=".12"/><stop offset="1" stop-color="gray" stop-opacity=".1"/></linearGradient><linearGradient id="om5nd" x1="1341.71" x2="1341.71" y1="1362.96" y2="1353.7" gradientUnits="userSpaceOnUse"><stop offset="0" stop-color="gray" stop-opacity=".25"/><stop offset=".54" stop-color="gray" stop-opacity=".12"/><stop offset="1" stop-color="gray" stop-opacity=".1"/></linearGradient><linearGradient id="om5nh" x1="1316.97" x2="1311.17" y1="1389.34" y2="1376.62" gradientUnits="userSpaceOnUse"><stop offset="0" stop-color="gray" stop-opacity=".25"/><stop offset=".54" stop-color="gray" stop-opacity=".12"/><stop offset="1" stop-color="gray" stop-opacity=".1"/></linearGradient><linearGradient id="om5nj" x1="1319.1" x2="1313.3" y1="1421.58" y2="1408.86" gradientUnits="userSpaceOnUse"><stop offset="0" stop-color="gray" stop-opacity=".25"/><stop offset=".54" stop-color="gray" stop-opacity=".12"/><stop offset="1" stop-color="gray" stop-opacity=".1"/></linearGradient><linearGradient id="om5nt" x1="1339.52" x2="1339.52" y1="1391.47" y2="1384.61" gradientUnits="userSpaceOnUse"><stop offset="0" stop-color="gray" stop-opacity=".25"/><stop offset=".54" stop-color="gray" stop-opacity=".12"/><stop offset="1" stop-color="gray" stop-opacity=".1"/></linearGradient><linearGradient id="om5nz" x1="1339.83" x2="1339.83" y1="1428.61" y2="1362.44" gradientUnits="userSpaceOnUse"><stop offset="0" stop-color="gray" stop-opacity=".25"/><stop offset=".54" stop-color="gray" stop-opacity=".12"/><stop offset="1" stop-color="gray" stop-opacity=".1"/></linearGradient></defs><g><g transform="translate(-1282 -1357)"><use fill="url(#om5nb)" xlink:href="#om5na"/></g><g transform="translate(-1282 -1357)"><use fill="url(#om5nd)" xlink:href="#om5nc"/></g><g transform="translate(-1282 -1357)"><use fill="#2c308e" xlink:href="#om5ne"/></g><g transform="translate(-1282 -1357)"><use fill="#2c308e" xlink:href="#om5nf"/></g><g transform="translate(-1282 -1357)"><use fill="url(#om5nh)" xlink:href="#om5ng"/></g><g transform="translate(-1282 -1357)"><use fill="url(#om5nj)" xlink:href="#om5ni"/></g><g transform="translate(-1282 -1357)"><use fill="#69f0ae" xlink:href="#om5nk"/></g><g transform="translate(-1282 -1357)"><use fill="#2c308e" xlink:href="#om5nl"/></g><g transform="translate(-1282 -1357)"><use fill="#e0e0e0" xlink:href="#om5nm"/></g><g transform="translate(-1282 -1357)"><use fill="#e0e0e0" xlink:href="#om5nn"/></g><g transform="translate(-1282 -1357)"><use fill="#e0e0e0" xlink:href="#om5no"/></g><g transform="translate(-1282 -1357)"><use fill="#e0e0e0" xlink:href="#om5np"/></g><g transform="translate(-1282 -1357)"><use fill="#e0e0e0" xlink:href="#om5nq"/></g><g transform="translate(-1282 -1357)"><use fill="#e0e0e0" xlink:href="#om5nr"/></g><g transform="translate(-1282 -1357)"><use fill="url(#om5nt)" xlink:href="#om5ns"/></g><g transform="translate(-1282 -1357)"><use fill="#fff" xlink:href="#om5nu"/></g><g transform="translate(-1282 -1357)"><use fill="#fff" xlink:href="#om5nv"/></g><g transform="translate(-1282 -1357)"><use fill="#e0e0e0" xlink:href="#om5nw"/></g><g transform="translate(-1282 -1357)"><use fill="#2c308e" xlink:href="#om5nx"/></g><g transform="translate(-1282 -1357)"><use fill="url(#om5nz)" xlink:href="#om5ny"/></g><g transform="translate(-1282 -1357)"><use fill="#eb926a" xlink:href="#om5nA"/></g><g transform="translate(-1282 -1357)"><use fill="#fda57d" xlink:href="#om5nB"/></g><g transform="translate(-1282 -1357)"><use fill="#eb926a" xlink:href="#om5nC"/></g><g transform="translate(-1282 -1357)"><use fill="#eb926a" xlink:href="#om5nD"/></g><g transform="translate(-1282 -1357)"><use fill="#eb926a" xlink:href="#om5nE"/></g><g transform="translate(-1282 -1357)"><use fill="#eb926a" xlink:href="#om5nF"/></g><g transform="translate(-1282 -1357)"><use fill="#eb926a" xlink:href="#om5nG"/></g><g transform="translate(-1282 -1357)"><use fill="#fff" xlink:href="#om5nH"/></g><g transform="translate(-1282 -1357)"><use fill="#fff" xlink:href="#om5nI"/></g><g transform="translate(-1282 -1357)"><use fill="#333" xlink:href="#om5nJ"/></g><g transform="translate(-1282 -1357)"><use fill="#4d8af0" xlink:href="#om5nK"/></g><g opacity=".5" transform="translate(-1282 -1357)"><use fill="#4d8af0" xlink:href="#om5nL"/></g></g></svg>