<svg xmlns="http://www.w3.org/2000/svg" xmlns:xlink="http://www.w3.org/1999/xlink" width="97" height="104" viewBox="0 0 97 104"><defs><path id="p03sc" d="M536.836 1832.938v-92.349h68.725v92.35z"/><path id="p03se" d="M537.731 1830.969v-89.127h66.578v89.127z"/><path id="p03sf" d="M542.921 1746.316v-.715h22.908v.715z"/><path id="p03sg" d="M542.921 1749.537v-.716h22.908v.716z"/><path id="p03sh" d="M569.23 1746.316v-.715h22.908v.715z"/><path id="p03si" d="M572.809 1766.72v-.716h22.908v.715z"/><path id="p03sj" d="M573.346 1768.687v-.715h22.908v.715z"/><path id="p03sk" d="M574.42 1770.655v-.715h22.908v.715z"/><path id="p03sl" d="M572.809 1798.396v-.715h22.908v.715z"/><path id="p03sm" d="M573.346 1800.366v-.716h22.908v.716z"/><path id="p03sn" d="M574.42 1802.334v-.716h22.908v.716z"/><path id="p03so" d="M543.1 1783.363v-24.697h24.34v24.697z"/><path id="p03sq" d="M543.253 1782.826v-23.623h23.956v23.623z"/><path id="p03sr" d="M544.098 1776.025v-15.391h22.343v15.391z"/><path id="p03sa" d="M544.251 1775.667v-14.855h22.036v14.855z"/><path id="p03su" d="M542.384 1775.131l5.549-8.592 2.326 3.76 5.01-5.19 4.296 5.19 3.76-7.696 9.664 15.392-31.32-1.074z"/><path id="p03sv" d="M545.068 1762.96a1.611 1.611 0 1 1 3.222 0 1.611 1.611 0 0 1-3.222 0z"/><path id="p03sw" d="M543.1 1815.04v-24.697h24.34v24.697z"/><path id="p03sy" d="M543.253 1814.503v-23.623h23.956v23.623z"/><path id="p03sz" d="M544.098 1807.704v-15.392h22.343v15.392z"/><path id="p03sb" d="M544.251 1807.345v-14.854h22.036v14.854z"/><path id="p03sC" d="M542.384 1806.808l5.549-8.59 2.326 3.759 5.01-5.19 4.296 5.19 3.76-7.697 9.664 15.392-31.32-1.074z"/><path id="p03sD" d="M545.068 1794.639a1.611 1.611 0 1 1 3.222 0 1.611 1.611 0 0 1-3.222 0z"/><path id="p03sE" d="M614.334 1840l-67.408-13.396 18-90.578 67.408 13.396z"/><path id="p03sG" d="M613.487 1837.824l-65.3-12.977 17.372-87.418 65.301 12.978z"/><path id="p03sH" d="M569.364 1743.11l.139-.702 46.342 9.21-.14.701z"/><path id="p03sI" d="M556.177 1809.465l.139-.702 46.342 9.21-.139.702z"/><path id="p03sJ" d="M555.374 1813.503l.14-.702 35.81 7.117-.14.701z"/><path id="p03sK" d="M554.573 1817.54l.14-.702 13.34 2.651-.139.702z"/><path id="p03sL" d="M568.562 1747.149l.14-.702 23.17 4.605-.14.702z"/><path id="p03sM" d="M567.76 1751.185l.14-.701 41.778 8.302-.14.702z"/><path id="p03sN" d="M566.958 1755.223l.14-.702 10.18 2.024-.139.701z"/><path id="p03sO" d="M566.154 1759.26l.14-.702 46.342 9.21-.14.702z"/><path id="p03sP" d="M607.237 1807.752l-41.602-8.267 4.744-23.874 41.602 8.268z"/><path id="p03sR" d="M565.975 1799.187l4.64-23.347 41.077 8.163-4.64 23.347z"/><path id="p03sS" d="M565.352 1763.297l.14-.702 46.342 9.21-.14.702z"/><path id="p03sT" d="M570.905 1796.88l3.383-17.026 5.09 1.012-3.383 17.026z"/><path id="p03sU" d="M580.033 1798.696l2.267-11.41 5.09 1.012-2.267 11.41z"/><path id="p03sV" d="M589.16 1800.509l1.222-6.144 5.09 1.011-1.221 6.144z"/><path id="p03sW" d="M598.288 1802.323l2.477-12.463 5.09 1.012-2.476 12.463z"/><path id="p03sX" d="M592.66 1838.333v-22.397h27.286v22.397z"/><path id="p03sZ" d="M598.29 1811.652a7.982 7.982 0 0 1 15.963 0v5.108h2.234v-5.108c0-5.643-4.574-10.217-10.217-10.217-5.642 0-10.216 4.574-10.216 10.217v5.108h2.234z"/><path id="p03sab" d="M598.608 1811.542a7.663 7.663 0 1 1 15.326 0v4.905h2.145v-4.905c0-5.417-4.391-9.808-9.808-9.808s-9.808 4.391-9.808 9.808v4.905h2.145z"/><path id="p03sac" d="M592.938 1837.903v-21.762h26.666v21.762z"/><path id="p03sad" d="M592.938 1833.61v-13.18h26.666v13.18z"/><path id="p03sae" d="M608.226 1824.528a1.955 1.955 0 1 0-3.377 1.339v4.171a1.422 1.422 0 0 0 2.844 0v-4.167c.344-.363.534-.844.533-1.343z"/><path id="p03sag" d="M607.957 1824.876a1.686 1.686 0 1 0-2.912 1.155v3.596a1.226 1.226 0 0 0 2.452 0v-3.596c.295-.312.46-.725.46-1.155z"/><linearGradient id="p03sd" x1="571.2" x2="571.2" y1="1832.94" y2="1740.59" gradientUnits="userSpaceOnUse"><stop offset="0" stop-color="gray" stop-opacity=".25"/><stop offset=".54" stop-color="gray" stop-opacity=".12"/><stop offset="1" stop-color="gray" stop-opacity=".1"/></linearGradient><linearGradient id="p03sp" x1="555.27" x2="555.27" y1="1783.37" y2="1758.67" gradientUnits="userSpaceOnUse"><stop offset="0" stop-color="gray" stop-opacity=".25"/><stop offset=".54" stop-color="gray" stop-opacity=".12"/><stop offset="1" stop-color="gray" stop-opacity=".1"/></linearGradient><linearGradient id="p03ss" x1="555.27" x2="555.27" y1="1776.02" y2="1760.63" gradientUnits="userSpaceOnUse"><stop offset="0" stop-color="gray" stop-opacity=".25"/><stop offset=".54" stop-color="gray" stop-opacity=".12"/><stop offset="1" stop-color="gray" stop-opacity=".1"/></linearGradient><linearGradient id="p03sx" x1="555.27" x2="555.27" y1="1815.04" y2="1790.34" gradientUnits="userSpaceOnUse"><stop offset="0" stop-color="gray" stop-opacity=".25"/><stop offset=".54" stop-color="gray" stop-opacity=".12"/><stop offset="1" stop-color="gray" stop-opacity=".1"/></linearGradient><linearGradient id="p03sA" x1="555.27" x2="555.27" y1="1807.7" y2="1792.31" gradientUnits="userSpaceOnUse"><stop offset="0" stop-color="gray" stop-opacity=".25"/><stop offset=".54" stop-color="gray" stop-opacity=".12"/><stop offset="1" stop-color="gray" stop-opacity=".1"/></linearGradient><linearGradient id="p03sF" x1="630.43" x2="539.84" y1="1795.09" y2="1777.09" gradientUnits="userSpaceOnUse"><stop offset="0" stop-color="gray" stop-opacity=".25"/><stop offset=".54" stop-color="gray" stop-opacity=".12"/><stop offset="1" stop-color="gray" stop-opacity=".1"/></linearGradient><linearGradient id="p03sQ" x1="596.48" x2="572.6" y1="1791.43" y2="1786.69" gradientUnits="userSpaceOnUse"><stop offset="0" stop-color="gray" stop-opacity=".25"/><stop offset=".54" stop-color="gray" stop-opacity=".12"/><stop offset="1" stop-color="gray" stop-opacity=".1"/></linearGradient><linearGradient id="p03sY" x1="606.31" x2="606.31" y1="1838.34" y2="1815.94" gradientUnits="userSpaceOnUse"><stop offset="0" stop-color="gray" stop-opacity=".25"/><stop offset=".54" stop-color="gray" stop-opacity=".12"/><stop offset="1" stop-color="gray" stop-opacity=".1"/></linearGradient><linearGradient id="p03saa" x1="606.27" x2="606.27" y1="1816.75" y2="1801.43" gradientUnits="userSpaceOnUse"><stop offset="0" stop-color="gray" stop-opacity=".25"/><stop offset=".54" stop-color="gray" stop-opacity=".12"/><stop offset="1" stop-color="gray" stop-opacity=".1"/></linearGradient><linearGradient id="p03saf" x1="606.28" x2="606.28" y1="1831.46" y2="1822.58" gradientUnits="userSpaceOnUse"><stop offset="0" stop-color="gray" stop-opacity=".25"/><stop offset=".54" stop-color="gray" stop-opacity=".12"/><stop offset="1" stop-color="gray" stop-opacity=".1"/></linearGradient><clipPath id="p03st"><use xlink:href="#p03sa"/></clipPath><clipPath id="p03sB"><use xlink:href="#p03sb"/></clipPath></defs><g><g opacity=".5" transform="translate(-536 -1736)"><g opacity=".5"><use fill="url(#p03sd)" xlink:href="#p03sc"/></g></g><g transform="translate(-536 -1736)"><use fill="#f2f2f2" xlink:href="#p03se"/></g><g transform="translate(-536 -1736)"><use fill="#e0e0e0" xlink:href="#p03sf"/></g><g opacity=".7" transform="translate(-536 -1736)"><use fill="#2c308e" xlink:href="#p03sg"/></g><g transform="translate(-536 -1736)"><use fill="#e0e0e0" xlink:href="#p03sh"/></g><g transform="translate(-536 -1736)"><use fill="#e0e0e0" xlink:href="#p03si"/></g><g transform="translate(-536 -1736)"><use fill="#e0e0e0" xlink:href="#p03sj"/></g><g transform="translate(-536 -1736)"><use fill="#e0e0e0" xlink:href="#p03sk"/></g><g transform="translate(-536 -1736)"><use fill="#e0e0e0" xlink:href="#p03sl"/></g><g transform="translate(-536 -1736)"><use fill="#e0e0e0" xlink:href="#p03sm"/></g><g transform="translate(-536 -1736)"><use fill="#e0e0e0" xlink:href="#p03sn"/></g><g opacity=".5" transform="translate(-536 -1736)"><g opacity=".5"><use fill="url(#p03sp)" xlink:href="#p03so"/></g></g><g transform="translate(-536 -1736)"><use fill="#f5f5f5" xlink:href="#p03sq"/></g><g opacity=".5" transform="translate(-536 -1736)"><g opacity=".5"><use fill="url(#p03ss)" xlink:href="#p03sr"/></g></g><g transform="translate(-536 -1736)"><use fill="#fff" xlink:href="#p03sa"/></g><g transform="translate(-536 -1736)"><g><use fill="#fff" xlink:href="#p03sa"/></g><g clip-path="url(#p03st)" opacity=".4"><use fill="#2c308e" xlink:href="#p03su"/></g><g clip-path="url(#p03st)" opacity=".4"><use fill="#2c308e" xlink:href="#p03sv"/></g></g><g opacity=".5" transform="translate(-536 -1736)"><g opacity=".5"><use fill="url(#p03sx)" xlink:href="#p03sw"/></g></g><g transform="translate(-536 -1736)"><use fill="#f5f5f5" xlink:href="#p03sy"/></g><g opacity=".5" transform="translate(-536 -1736)"><g opacity=".5"><use fill="url(#p03sA)" xlink:href="#p03sz"/></g></g><g transform="translate(-536 -1736)"><use fill="#fff" xlink:href="#p03sb"/></g><g transform="translate(-536 -1736)"><g><use fill="#fff" xlink:href="#p03sb"/></g><g clip-path="url(#p03sB)" opacity=".4"><use fill="#bdbdbd" xlink:href="#p03sC"/></g><g clip-path="url(#p03sB)" opacity=".4"><use fill="#bdbdbd" xlink:href="#p03sD"/></g></g><g opacity=".5" transform="translate(-536 -1736)"><g opacity=".5"><use fill="url(#p03sF)" xlink:href="#p03sE"/></g></g><g transform="translate(-536 -1736)"><use fill="#fff" xlink:href="#p03sG"/></g><g transform="translate(-536 -1736)"><use fill="#e0e0e0" xlink:href="#p03sH"/></g><g transform="translate(-536 -1736)"><use fill="#e0e0e0" xlink:href="#p03sI"/></g><g transform="translate(-536 -1736)"><use fill="#e0e0e0" xlink:href="#p03sJ"/></g><g opacity=".7" transform="translate(-536 -1736)"><use fill="#2c308e" xlink:href="#p03sK"/></g><g opacity=".7" transform="translate(-536 -1736)"><use fill="#2c308e" xlink:href="#p03sL"/></g><g transform="translate(-536 -1736)"><use fill="#e0e0e0" xlink:href="#p03sM"/></g><g opacity=".7" transform="translate(-536 -1736)"><use fill="#3ad29f" xlink:href="#p03sN"/></g><g transform="translate(-536 -1736)"><use fill="#e0e0e0" xlink:href="#p03sO"/></g><g opacity=".5" transform="translate(-536 -1736)"><g opacity=".5"><use fill="url(#p03sQ)" xlink:href="#p03sP"/></g></g><g transform="translate(-536 -1736)"><use fill="#fff" xlink:href="#p03sR"/></g><g transform="translate(-536 -1736)"><use fill="#e0e0e0" xlink:href="#p03sS"/></g><g transform="translate(-536 -1736)"><use fill="#2c308e" xlink:href="#p03sT"/></g><g transform="translate(-536 -1736)"><use fill="#3ad29f" xlink:href="#p03sU"/></g><g transform="translate(-536 -1736)"><use fill="#f55f44" xlink:href="#p03sV"/></g><g transform="translate(-536 -1736)"><use fill="#fdd835" xlink:href="#p03sW"/></g><g transform="translate(-536 -1736)"><use fill="url(#p03sY)" xlink:href="#p03sX"/></g><g transform="translate(-536 -1736)"><use fill="url(#p03saa)" xlink:href="#p03sZ"/></g><g transform="translate(-536 -1736)"><use fill="#f5f5f5" xlink:href="#p03sab"/></g><g transform="translate(-536 -1736)"><use fill="#2c308e" xlink:href="#p03sac"/></g><g transform="translate(-536 -1736)"><use fill="#f5f5f5" xlink:href="#p03sac"/></g><g transform="translate(-536 -1736)"><use fill="#2c308e" xlink:href="#p03sad"/></g><g transform="translate(-536 -1736)"><use fill="url(#p03saf)" xlink:href="#p03sae"/></g><g opacity=".2" transform="translate(-536 -1736)"><use xlink:href="#p03sag"/></g></g></svg>