<svg xmlns="http://www.w3.org/2000/svg" xmlns:xlink="http://www.w3.org/1999/xlink" width="109" height="112" viewBox="0 0 109 112"><defs><path id="uivca" d="M960.2 1728.008l-43.305 26.65s0 54.963 43.305 84.943c43.305-29.98 43.305-84.944 43.305-84.944z"/><path id="uivcc" d="M960.2 1729.675l-42.012 25.853s0 53.322 42.012 82.403c42.012-29.085 42.012-82.403 42.012-82.403z"/><path id="uivcd" d="M960.45 1729.675l-.717.44v107.315c.238.168.476.338.718.504 42.01-29.084 42.01-82.406 42.01-82.406z"/><path id="uivce" d="M946.885 1780.901l10.627 9.741 13.175-19.004 5.313 4.429-18.488 23.431-15.056-16.826z"/><path id="uivcg" d="M949.393 1781.487l8.62 7.9 12.214-17.958 4.31 3.593-16.523 21.55-12.214-13.65z"/><linearGradient id="uivcb" x1="960.2" x2="960.2" y1="1839.6" y2="1728.01" gradientUnits="userSpaceOnUse"><stop offset="0" stop-color="gray" stop-opacity=".25"/><stop offset=".54" stop-color="gray" stop-opacity=".12"/><stop offset="1" stop-color="gray" stop-opacity=".1"/></linearGradient><linearGradient id="uivcf" x1="942.46" x2="976" y1="1785.57" y2="1785.57" gradientUnits="userSpaceOnUse"><stop offset="0" stop-color="gray" stop-opacity=".25"/><stop offset=".54" stop-color="gray" stop-opacity=".12"/><stop offset="1" stop-color="gray" stop-opacity=".1"/></linearGradient></defs><g><g transform="translate(-896 -1728)"><g><use fill="url(#uivcb)" xlink:href="#uivca"/></g><g><use fill="#fff" xlink:href="#uivcc"/></g><g opacity=".04"><use fill="#2c308e" xlink:href="#uivcd"/></g><g><use fill="url(#uivcf)" xlink:href="#uivce"/></g><g><use fill="#3ad29f" xlink:href="#uivcg"/></g></g></g></svg>