<svg xmlns="http://www.w3.org/2000/svg" xmlns:xlink="http://www.w3.org/1999/xlink" width="123" height="114" viewBox="0 0 123 114"><defs><path id="mhmaa" d="M1274 1821.158v-74.316h122.404v74.316z"/><path id="mhmac" d="M1275.071 1819.879v-71.76h120.262v71.76z"/><path id="mhmad" d="M1280.58 1761.891v-2.142h62.579v2.142z"/><path id="mhmae" d="M1308.172 1760.82a3.62 3.62 0 1 1 7.24 0 3.62 3.62 0 0 1-7.24 0z"/><path id="mhmag" d="M1288.956 1770.571a3.62 3.62 0 1 1 7.239 0 3.62 3.62 0 0 1-7.24 0z"/><path id="mhmai" d="M1329.97 1780.466a3.62 3.62 0 1 1 7.239 0 3.62 3.62 0 0 1-7.24 0z"/><path id="mhmak" d="M1300.858 1790.218a3.62 3.62 0 1 1 7.24 0 3.62 3.62 0 0 1-7.24 0z"/><path id="mhmam" d="M1282.072 1799.97a3.62 3.62 0 1 1 7.24 0 3.62 3.62 0 0 1-7.24 0z"/><path id="mhmao" d="M1320.075 1809.721a3.62 3.62 0 1 1 7.239 0 3.62 3.62 0 0 1-7.24 0z"/><path id="mhmaq" d="M1309.038 1760.82a2.753 2.753 0 1 1 5.507 0 2.753 2.753 0 0 1-5.507 0z"/><path id="mhmar" d="M1280.58 1771.683v-2.143h62.579v2.143z"/><path id="mhmas" d="M1289.76 1770.612a2.753 2.753 0 1 1 5.507 0 2.753 2.753 0 0 1-5.507 0z"/><path id="mhmat" d="M1280.58 1781.476v-2.142h62.579v2.142z"/><path id="mhmau" d="M1330.766 1780.405a2.753 2.753 0 1 1 5.507 0 2.753 2.753 0 0 1-5.507 0z"/><path id="mhmav" d="M1280.58 1791.268v-2.143h62.579v2.143z"/><path id="mhmaw" d="M1301.695 1790.197a2.753 2.753 0 1 1 5.506 0 2.753 2.753 0 0 1-5.506 0z"/><path id="mhmax" d="M1280.58 1801.061v-2.142h62.579v2.142z"/><path id="mhmay" d="M1282.875 1799.99a2.753 2.753 0 1 1 5.507 0 2.753 2.753 0 0 1-5.507 0z"/><path id="mhmaz" d="M1280.58 1810.853v-2.143h62.579v2.143z"/><path id="mhmaA" d="M1320.974 1809.782a2.753 2.753 0 1 1 5.507 0 2.753 2.753 0 0 1-5.507 0z"/><path id="mhmaB" d="M1351.88 1792.755v-6.646h9.791v6.646z"/><path id="mhmaD" d="M1365.038 1792.755v-6.646h9.792v6.646z"/><path id="mhmaF" d="M1378.197 1792.755v-6.646h9.792v6.646z"/><path id="mhmaH" d="M1351.88 1802.854v-6.646h9.791v6.646z"/><path id="mhmaJ" d="M1365.038 1802.854v-6.646h9.792v6.646z"/><path id="mhmaL" d="M1378.197 1802.854v-6.646h9.792v6.646z"/><path id="mhmaN" d="M1351.88 1812.95v-6.645h9.791v6.646z"/><path id="mhmaP" d="M1365.038 1812.95v-6.645h9.792v6.646z"/><path id="mhmaR" d="M1378.197 1812.95v-6.645h9.792v6.646z"/><path id="mhmaT" d="M1352.492 1792.338v-5.814h8.568v5.814z"/><path id="mhmaU" d="M1365.65 1792.338v-5.814h8.57v5.814z"/><path id="mhmaV" d="M1378.808 1792.338v-5.814h8.569v5.814z"/><path id="mhmaW" d="M1352.492 1802.436v-5.813h8.568v5.813z"/><path id="mhmaX" d="M1365.65 1802.436v-5.813h8.57v5.813z"/><path id="mhmaY" d="M1378.808 1802.436v-5.813h8.569v5.813z"/><path id="mhmaZ" d="M1352.492 1812.535v-5.814h8.568v5.814z"/><path id="mhmaaa" d="M1365.65 1812.535v-5.814h8.57v5.814z"/><path id="mhmaab" d="M1378.808 1812.535v-5.814h8.569v5.814z"/><path id="mhmaac" d="M1327.552 1825.847c-.86 0-1.499.144-1.952.932h-18.447v-1.987c0-.516-.66-.323-1.095-.323h-.36c-.43 0-.788-.193-.788.323v.443h-20.72c-1.072 0-1.498.94-1.644 2.164 0-.032-.01-.062-.012-.093a3.254 3.254 0 0 0-.011.265v1.338c0 1.394.493 2.523 1.669 2.523h20.72v.672c0 .516.352.323.788.323h.36c.43 0 1.094.193 1.094-.323v-1.962h18.561c.084.124.177.241.278.35.795.403.806.492 1.533.492l5.688-.23v-4.593z"/><path id="mhmaae" d="M1297.868 1829.824v-2.753h28.46v2.753z"/><path id="mhmaaf" d="M1325.39 1828.449c.002.491.152.971.431 1.376h.359v-2.753h-.359a2.437 2.437 0 0 0-.43 1.377z"/><path id="mhmaag" d="M1333.06 1830.32l-5.073.574a2.438 2.438 0 1 1 0-4.876l5.073.563z"/><path id="mhmaah" d="M1325.817 1828.908h-28.108v.764h28.108a2.438 2.438 0 0 0 2.018 1.065l5.073-.56v-.765l-5.073.564c-.808 0-1.564-.4-2.018-1.068z"/><path id="mhmaai" d="M1284.755 1825.807h20.62v5.074h-20.62a1.936 1.936 0 0 1-1.936-1.936v-1.206a1.936 1.936 0 0 1 1.936-1.932z"/><path id="mhmaaj" d="M1305 1825.62c0-.47.47-.94.94-.94.469 0 .939.47.939.94v5.637c0 .47-.47.939-.94.939s-.939-.47-.939-.94z"/><path id="mhmaak" d="M1304.624 1830.88v-5.073h.376v5.074z"/><path id="mhmaal" d="M1286.02 1827.122v-.376h17.288v.376z"/><path id="mhmaam" d="M1286.02 1828.437v-.376h17.288v.376z"/><path id="mhmaan" d="M1286.02 1829.754v-.376h17.288v.376z"/><path id="mhmaao" d="M1306.114 1830.666h-.348a.764.764 0 0 1-.765-.765v-.55h-20.11a2.065 2.065 0 0 1-2.053-1.849 2.086 2.086 0 0 0-.011.218v.942c0 1.14.924 2.065 2.065 2.065H1305v.551c0 .422.342.764.764.764h.349a.764.764 0 0 0 .764-.764v-1.377a.764.764 0 0 1-.763.765z"/><path id="mhmaap" d="M1373.453 1732.666l-3.945 2.28v5.542l3.945 2.277 3.946-2.277V1734.945z"/><path id="mhmaar" d="M1373.453 1738.378c-.447 0-.855-.258-1.046-.662a1.159 1.159 0 0 1 2.093 0c-.191.404-.599.662-1.047.662z"/><path id="mhmaat" d="M1373.453 1739.24a1.071 1.071 0 1 1 1.072-1.071 1.071 1.071 0 0 1-1.072 1.077zm0-5.306l-3.672 2.12v4.24l3.672 2.118 3.673-2.12v-4.237z"/><path id="mhmaau" d="M1373.453 1738.322a1.071 1.071 0 1 1 1.072-1.072 1.071 1.071 0 0 1-1.072 1.078zm0-5.306l-3.672 2.12v4.24l3.672 2.12 3.673-2.12v-4.239z"/><path id="mhmaav" d="M1363.203 1732.666l-3.947 2.28v5.542l3.947 2.277 3.945-2.277V1734.945z"/><path id="mhmaax" d="M1363.203 1738.378c-.448 0-.855-.258-1.047-.662a1.159 1.159 0 0 1 2.094 0c-.192.404-.6.662-1.047.662z"/><path id="mhmaaz" d="M1363.203 1739.24a1.071 1.071 0 1 1 1.071-1.071 1.071 1.071 0 0 1-1.071 1.077zm0-5.306l-3.673 2.12v4.24l3.673 2.118 3.672-2.12v-4.237z"/><path id="mhmaaA" d="M1363.203 1738.322a1.071 1.071 0 1 1 1.071-1.07 1.071 1.071 0 0 1-1.071 1.076zm0-5.306l-3.673 2.12v4.24l3.673 2.12 3.672-2.12v-4.239z"/><path id="mhmaaB" d="M1367.486 1732.208l-3.945 2.278v5.541l3.945 2.28 3.945-2.28V1734.486z"/><path id="mhmaaD" d="M1367.486 1737.92c-.447 0-.855-.258-1.046-.663a1.159 1.159 0 0 1 2.093 0c-.192.404-.6.662-1.047.662z"/><path id="mhmaaF" d="M1367.486 1738.781a1.071 1.071 0 1 1 1.072-1.071 1.071 1.071 0 0 1-1.072 1.077zm0-5.306l-3.672 2.12v4.236l3.672 2.12 3.673-2.12v-4.235z"/><path id="mhmaaG" d="M1367.486 1737.863a1.071 1.071 0 1 1 1.072-1.07 1.071 1.071 0 0 1-1.072 1.076zm0-5.306l-3.672 2.12v4.24l3.672 2.12 3.673-2.12v-4.239z"/><path id="mhmaaH" d="M1297.104 1742.46v-12.242h50.797"/><path id="mhmaaI" d="M1350.732 1730.142a2.142 2.142 0 1 1 4.285 0 2.142 2.142 0 0 1-4.285 0z"/><path id="mhmaaJ" d="M1390.59 1825.54v12.242h-50.798"/><path id="mhmaaK" d="M1332.677 1837.858a2.142 2.142 0 1 1 4.285 0 2.142 2.142 0 0 1-4.285 0z"/><path id="mhmaaL" d="M1356.936 1760.324a5.613 5.613 0 1 1 11.226 0 5.613 5.613 0 0 1-11.226 0z"/><path id="mhmaaN" d="M1357.287 1760.324a5.262 5.262 0 1 1 10.523 0 5.262 5.262 0 0 1-10.523 0z"/><path id="mhmaaO" d="M1362.197 1760.324a.351.351 0 1 1 .703 0 .351.351 0 0 1-.703 0z"/><path id="mhmaaP" d="M1362.549 1760.324l3.156-3.157"/><path id="mhmaaQ" d="M1363.46 1760.183c0 1.766.886 3.413 2.358 4.387a5.26 5.26 0 0 0-.293-8.563 5.252 5.252 0 0 0-2.064 4.176z"/><path id="mhmaaR" d="M1371.707 1760.324a5.613 5.613 0 1 1 11.226 0 5.613 5.613 0 0 1-11.226 0z"/><path id="mhmaaT" d="M1372.058 1760.324a5.262 5.262 0 1 1 10.523 0 5.262 5.262 0 0 1-10.523 0z"/><path id="mhmaaU" d="M1376.968 1760.324a.351.351 0 1 1 .703 0 .351.351 0 0 1-.703 0z"/><path id="mhmaaV" d="M1377.32 1760.324l3.156-3.157"/><path id="mhmaaW" d="M1378.232 1760.183c-.001 1.766.885 3.413 2.357 4.387a5.26 5.26 0 0 0-.294-8.563 5.252 5.252 0 0 0-2.063 4.176z"/><path id="mhmaaX" d="M1356.936 1773.517a5.613 5.613 0 1 1 11.226 0 5.613 5.613 0 0 1-11.226 0z"/><path id="mhmaaZ" d="M1357.287 1773.517a5.262 5.262 0 1 1 10.523 0 5.262 5.262 0 0 1-10.523 0z"/><path id="mhmaba" d="M1362.197 1773.517a.351.351 0 1 1 .703 0 .351.351 0 0 1-.703 0z"/><path id="mhmabb" d="M1362.549 1773.517l-3.356 3.356"/><path id="mhmabc" d="M1363.46 1773.377c0 1.765.886 3.413 2.358 4.386a5.26 5.26 0 0 0-.293-8.562 5.252 5.252 0 0 0-2.064 4.175z"/><path id="mhmabd" d="M1371.707 1773.517a5.613 5.613 0 1 1 11.226 0 5.613 5.613 0 0 1-11.226 0z"/><path id="mhmabf" d="M1372.058 1773.517a5.262 5.262 0 1 1 10.523 0 5.262 5.262 0 0 1-10.523 0z"/><path id="mhmabg" d="M1376.968 1773.517a.351.351 0 1 1 .703 0 .351.351 0 0 1-.703 0z"/><path id="mhmabh" d="M1377.32 1773.517l3.156-3.156"/><path id="mhmabi" d="M1378.232 1773.377c-.001 1.765.885 3.413 2.357 4.386a5.26 5.26 0 0 0-.294-8.562 5.252 5.252 0 0 0-2.063 4.175z"/><linearGradient id="mhmab" x1="1335.2" x2="1335.2" y1="1821.16" y2="1746.84" gradientUnits="userSpaceOnUse"><stop offset="0" stop-color="gray" stop-opacity=".25"/><stop offset=".54" stop-color="gray" stop-opacity=".12"/><stop offset="1" stop-color="gray" stop-opacity=".1"/></linearGradient><linearGradient id="mhmaf" x1="1311.79" x2="1311.79" y1="1764.44" y2="1757.2" gradientUnits="userSpaceOnUse"><stop offset="0" stop-color="gray" stop-opacity=".25"/><stop offset=".54" stop-color="gray" stop-opacity=".12"/><stop offset="1" stop-color="gray" stop-opacity=".1"/></linearGradient><linearGradient id="mhmah" x1="1292.57" x2="1292.57" y1="1774.19" y2="1766.95" gradientUnits="userSpaceOnUse"><stop offset="0" stop-color="gray" stop-opacity=".25"/><stop offset=".54" stop-color="gray" stop-opacity=".12"/><stop offset="1" stop-color="gray" stop-opacity=".1"/></linearGradient><linearGradient id="mhmaj" x1="1333.59" x2="1333.59" y1="1784.09" y2="1776.85" gradientUnits="userSpaceOnUse"><stop offset="0" stop-color="gray" stop-opacity=".25"/><stop offset=".54" stop-color="gray" stop-opacity=".12"/><stop offset="1" stop-color="gray" stop-opacity=".1"/></linearGradient><linearGradient id="mhmal" x1="1304.48" x2="1304.48" y1="1793.84" y2="1786.6" gradientUnits="userSpaceOnUse"><stop offset="0" stop-color="gray" stop-opacity=".25"/><stop offset=".54" stop-color="gray" stop-opacity=".12"/><stop offset="1" stop-color="gray" stop-opacity=".1"/></linearGradient><linearGradient id="mhman" x1="1285.69" x2="1285.69" y1="1803.59" y2="1796.35" gradientUnits="userSpaceOnUse"><stop offset="0" stop-color="gray" stop-opacity=".25"/><stop offset=".54" stop-color="gray" stop-opacity=".12"/><stop offset="1" stop-color="gray" stop-opacity=".1"/></linearGradient><linearGradient id="mhmap" x1="1323.69" x2="1323.69" y1="1813.34" y2="1806.1" gradientUnits="userSpaceOnUse"><stop offset="0" stop-color="gray" stop-opacity=".25"/><stop offset=".54" stop-color="gray" stop-opacity=".12"/><stop offset="1" stop-color="gray" stop-opacity=".1"/></linearGradient><linearGradient id="mhmaC" x1="1356.78" x2="1356.78" y1="1792.75" y2="1786.11" gradientUnits="userSpaceOnUse"><stop offset="0" stop-color="gray" stop-opacity=".25"/><stop offset=".54" stop-color="gray" stop-opacity=".12"/><stop offset="1" stop-color="gray" stop-opacity=".1"/></linearGradient><linearGradient id="mhmaE" x1="1369.93" x2="1369.93" y1="1792.75" y2="1786.11" gradientUnits="userSpaceOnUse"><stop offset="0" stop-color="gray" stop-opacity=".25"/><stop offset=".54" stop-color="gray" stop-opacity=".12"/><stop offset="1" stop-color="gray" stop-opacity=".1"/></linearGradient><linearGradient id="mhmaG" x1="1383.09" x2="1383.09" y1="1792.75" y2="1786.11" gradientUnits="userSpaceOnUse"><stop offset="0" stop-color="gray" stop-opacity=".25"/><stop offset=".54" stop-color="gray" stop-opacity=".12"/><stop offset="1" stop-color="gray" stop-opacity=".1"/></linearGradient><linearGradient id="mhmaI" x1="1356.78" x2="1356.78" y1="1802.85" y2="1796.21" gradientUnits="userSpaceOnUse"><stop offset="0" stop-color="gray" stop-opacity=".25"/><stop offset=".54" stop-color="gray" stop-opacity=".12"/><stop offset="1" stop-color="gray" stop-opacity=".1"/></linearGradient><linearGradient id="mhmaK" x1="1369.93" x2="1369.93" y1="1802.85" y2="1796.21" gradientUnits="userSpaceOnUse"><stop offset="0" stop-color="gray" stop-opacity=".25"/><stop offset=".54" stop-color="gray" stop-opacity=".12"/><stop offset="1" stop-color="gray" stop-opacity=".1"/></linearGradient><linearGradient id="mhmaM" x1="1383.09" x2="1383.09" y1="1802.85" y2="1796.21" gradientUnits="userSpaceOnUse"><stop offset="0" stop-color="gray" stop-opacity=".25"/><stop offset=".54" stop-color="gray" stop-opacity=".12"/><stop offset="1" stop-color="gray" stop-opacity=".1"/></linearGradient><linearGradient id="mhmaO" x1="1356.78" x2="1356.78" y1="1812.95" y2="1806.31" gradientUnits="userSpaceOnUse"><stop offset="0" stop-color="gray" stop-opacity=".25"/><stop offset=".54" stop-color="gray" stop-opacity=".12"/><stop offset="1" stop-color="gray" stop-opacity=".1"/></linearGradient><linearGradient id="mhmaQ" x1="1369.93" x2="1369.93" y1="1812.95" y2="1806.31" gradientUnits="userSpaceOnUse"><stop offset="0" stop-color="gray" stop-opacity=".25"/><stop offset=".54" stop-color="gray" stop-opacity=".12"/><stop offset="1" stop-color="gray" stop-opacity=".1"/></linearGradient><linearGradient id="mhmaS" x1="1383.09" x2="1383.09" y1="1812.95" y2="1806.31" gradientUnits="userSpaceOnUse"><stop offset="0" stop-color="gray" stop-opacity=".25"/><stop offset=".54" stop-color="gray" stop-opacity=".12"/><stop offset="1" stop-color="gray" stop-opacity=".1"/></linearGradient><linearGradient id="mhmaad" x1="1282.52" x2="1333.21" y1="1828.45" y2="1828.45" gradientUnits="userSpaceOnUse"><stop offset="0" stop-color="gray" stop-opacity=".25"/><stop offset=".54" stop-color="gray" stop-opacity=".12"/><stop offset="1" stop-color="gray" stop-opacity=".1"/></linearGradient><linearGradient id="mhmaaq" x1="1373.45" x2="1373.45" y1="1742.77" y2="1732.67" gradientUnits="userSpaceOnUse"><stop offset="0" stop-color="gray" stop-opacity=".25"/><stop offset=".54" stop-color="gray" stop-opacity=".12"/><stop offset="1" stop-color="gray" stop-opacity=".1"/></linearGradient><linearGradient id="mhmaas" x1="1373.45" x2="1373.45" y1="1738.38" y2="1737.05" gradientUnits="userSpaceOnUse"><stop offset="0" stop-color="gray" stop-opacity=".25"/><stop offset=".54" stop-color="gray" stop-opacity=".12"/><stop offset="1" stop-color="gray" stop-opacity=".1"/></linearGradient><linearGradient id="mhmaaw" x1="1363.21" x2="1363.21" y1="1742.77" y2="1732.67" gradientUnits="userSpaceOnUse"><stop offset="0" stop-color="gray" stop-opacity=".25"/><stop offset=".54" stop-color="gray" stop-opacity=".12"/><stop offset="1" stop-color="gray" stop-opacity=".1"/></linearGradient><linearGradient id="mhmaay" x1="1363.2" x2="1363.2" y1="1738.38" y2="1737.05" gradientUnits="userSpaceOnUse"><stop offset="0" stop-color="gray" stop-opacity=".25"/><stop offset=".54" stop-color="gray" stop-opacity=".12"/><stop offset="1" stop-color="gray" stop-opacity=".1"/></linearGradient><linearGradient id="mhmaaC" x1="1367.49" x2="1367.49" y1="1742.31" y2="1732.21" gradientUnits="userSpaceOnUse"><stop offset="0" stop-color="gray" stop-opacity=".25"/><stop offset=".54" stop-color="gray" stop-opacity=".12"/><stop offset="1" stop-color="gray" stop-opacity=".1"/></linearGradient><linearGradient id="mhmaaE" x1="1367.48" x2="1367.48" y1="1737.92" y2="1736.6" gradientUnits="userSpaceOnUse"><stop offset="0" stop-color="gray" stop-opacity=".25"/><stop offset=".54" stop-color="gray" stop-opacity=".12"/><stop offset="1" stop-color="gray" stop-opacity=".1"/></linearGradient><linearGradient id="mhmaaM" x1="1362.55" x2="1362.55" y1="1765.94" y2="1754.71" gradientUnits="userSpaceOnUse"><stop offset="0" stop-color="gray" stop-opacity=".25"/><stop offset=".54" stop-color="gray" stop-opacity=".12"/><stop offset="1" stop-color="gray" stop-opacity=".1"/></linearGradient><linearGradient id="mhmaaS" x1="1377.32" x2="1377.32" y1="1765.94" y2="1754.71" gradientUnits="userSpaceOnUse"><stop offset="0" stop-color="gray" stop-opacity=".25"/><stop offset=".54" stop-color="gray" stop-opacity=".12"/><stop offset="1" stop-color="gray" stop-opacity=".1"/></linearGradient><linearGradient id="mhmaaY" x1="1362.55" x2="1362.55" y1="1779.13" y2="1767.9" gradientUnits="userSpaceOnUse"><stop offset="0" stop-color="gray" stop-opacity=".25"/><stop offset=".54" stop-color="gray" stop-opacity=".12"/><stop offset="1" stop-color="gray" stop-opacity=".1"/></linearGradient><linearGradient id="mhmabe" x1="1377.32" x2="1377.32" y1="1779.13" y2="1767.9" gradientUnits="userSpaceOnUse"><stop offset="0" stop-color="gray" stop-opacity=".25"/><stop offset=".54" stop-color="gray" stop-opacity=".12"/><stop offset="1" stop-color="gray" stop-opacity=".1"/></linearGradient></defs><g><g transform="translate(-1274 -1727)"><g opacity=".5"><use fill="url(#mhmab)" xlink:href="#mhmaa"/></g><g><use fill="#fff" xlink:href="#mhmac"/></g><g><use fill="#f5f5f5" xlink:href="#mhmad"/></g><g opacity=".5"><use fill="url(#mhmaf)" xlink:href="#mhmae"/></g><g opacity=".5"><use fill="url(#mhmah)" xlink:href="#mhmag"/></g><g opacity=".5"><use fill="url(#mhmaj)" xlink:href="#mhmai"/></g><g opacity=".5"><use fill="url(#mhmal)" xlink:href="#mhmak"/></g><g opacity=".5"><use fill="url(#mhman)" xlink:href="#mhmam"/></g><g opacity=".5"><use fill="url(#mhmap)" xlink:href="#mhmao"/></g><g opacity=".5"><use fill="#2c308e" xlink:href="#mhmaq"/></g><g><use fill="#f5f5f5" xlink:href="#mhmar"/></g><g opacity=".5"><use fill="#2c308e" xlink:href="#mhmas"/></g><g><use fill="#f5f5f5" xlink:href="#mhmat"/></g><g><use fill="#2c308e" xlink:href="#mhmau"/></g><g><use fill="#f5f5f5" xlink:href="#mhmav"/></g><g><use fill="#2c308e" xlink:href="#mhmaw"/></g><g><use fill="#f5f5f5" xlink:href="#mhmax"/></g><g opacity=".5"><use fill="#2c308e" xlink:href="#mhmay"/></g><g><use fill="#f5f5f5" xlink:href="#mhmaz"/></g><g><use fill="#2c308e" xlink:href="#mhmaA"/></g><g opacity=".5"><use fill="url(#mhmaC)" xlink:href="#mhmaB"/></g><g opacity=".5"><use fill="url(#mhmaE)" xlink:href="#mhmaD"/></g><g opacity=".5"><use fill="url(#mhmaG)" xlink:href="#mhmaF"/></g><g opacity=".5"><use fill="url(#mhmaI)" xlink:href="#mhmaH"/></g><g opacity=".5"><use fill="url(#mhmaK)" xlink:href="#mhmaJ"/></g><g opacity=".5"><use fill="url(#mhmaM)" xlink:href="#mhmaL"/></g><g opacity=".5"><use fill="url(#mhmaO)" xlink:href="#mhmaN"/></g><g opacity=".5"><use fill="url(#mhmaQ)" xlink:href="#mhmaP"/></g><g opacity=".5"><use fill="url(#mhmaS)" xlink:href="#mhmaR"/></g><g><use fill="#2c308e" xlink:href="#mhmaT"/></g><g><use fill="#2c308e" xlink:href="#mhmaU"/></g><g opacity=".5"><use fill="#2c308e" xlink:href="#mhmaV"/></g><g><use fill="#2c308e" xlink:href="#mhmaW"/></g><g><use fill="#2c308e" xlink:href="#mhmaX"/></g><g opacity=".5"><use fill="#2c308e" xlink:href="#mhmaY"/></g><g><use fill="#2c308e" xlink:href="#mhmaZ"/></g><g opacity=".5"><use fill="#2c308e" xlink:href="#mhmaaa"/></g><g opacity=".5"><use fill="#3ad29f" xlink:href="#mhmaab"/></g><g opacity=".5"><use fill="url(#mhmaad)" xlink:href="#mhmaac"/></g><g><use fill="#e6e6e6" xlink:href="#mhmaae"/></g><g opacity=".03"><use xlink:href="#mhmaaf"/></g><g><use fill="#e6e6e6" xlink:href="#mhmaag"/></g><g opacity=".05"><use xlink:href="#mhmaah"/></g><g><use fill="#2c308e" xlink:href="#mhmaai"/></g><g><use fill="#2c308e" xlink:href="#mhmaaj"/></g><g opacity=".05"><use xlink:href="#mhmaak"/></g><g opacity=".05"><use xlink:href="#mhmaal"/></g><g opacity=".05"><use xlink:href="#mhmaam"/></g><g opacity=".05"><use xlink:href="#mhmaan"/></g><g opacity=".05"><use xlink:href="#mhmaao"/></g><g><use fill="url(#mhmaaq)" xlink:href="#mhmaap"/></g><g opacity=".5"><use fill="url(#mhmaas)" xlink:href="#mhmaar"/></g><g><use fill="#e6e6e6" xlink:href="#mhmaat"/></g><g><use fill="#fff" xlink:href="#mhmaau"/></g><g><use fill="url(#mhmaaw)" xlink:href="#mhmaav"/></g><g opacity=".5"><use fill="url(#mhmaay)" xlink:href="#mhmaax"/></g><g><use fill="#e6e6e6" xlink:href="#mhmaaz"/></g><g><use fill="#fff" xlink:href="#mhmaaA"/></g><g><use fill="url(#mhmaaC)" xlink:href="#mhmaaB"/></g><g opacity=".5"><use fill="url(#mhmaaE)" xlink:href="#mhmaaD"/></g><g><use fill="#e6e6e6" xlink:href="#mhmaaF"/></g><g><use fill="#fff" xlink:href="#mhmaaG"/></g><g opacity=".5"><use fill="#fff" fill-opacity="0" stroke="#3ad29f" stroke-dasharray="12 12" stroke-miterlimit="50" stroke-width="2" xlink:href="#mhmaaH"/></g><g opacity=".5"><use fill="#fff" fill-opacity="0" stroke="#3ad29f" stroke-dasharray="12 12" stroke-miterlimit="50" stroke-width="2" xlink:href="#mhmaaI"/></g><g opacity=".5"><use fill="#fff" fill-opacity="0" stroke="#3ad29f" stroke-dasharray="12 12" stroke-miterlimit="50" stroke-width="2" xlink:href="#mhmaaJ"/></g><g opacity=".5"><use fill="#fff" fill-opacity="0" stroke="#3ad29f" stroke-dasharray="12 12" stroke-miterlimit="50" stroke-width="2" xlink:href="#mhmaaK"/></g><g><use fill="url(#mhmaaM)" xlink:href="#mhmaaL"/></g><g><use fill="#fff" xlink:href="#mhmaaN"/></g><g><use fill="#333" xlink:href="#mhmaaO"/></g><g><use fill="#fff" fill-opacity="0" stroke="#333" stroke-miterlimit="50" stroke-width="2" xlink:href="#mhmaaP"/></g><g opacity=".05"><use xlink:href="#mhmaaQ"/></g><g><use fill="url(#mhmaaS)" xlink:href="#mhmaaR"/></g><g><use fill="#fff" xlink:href="#mhmaaT"/></g><g><use fill="#333" xlink:href="#mhmaaU"/></g><g><use fill="#fff" fill-opacity="0" stroke="#333" stroke-miterlimit="50" stroke-width="2" xlink:href="#mhmaaV"/></g><g opacity=".05"><use xlink:href="#mhmaaW"/></g><g><use fill="url(#mhmaaY)" xlink:href="#mhmaaX"/></g><g><use fill="#fff" xlink:href="#mhmaaZ"/></g><g><use fill="#333" xlink:href="#mhmaba"/></g><g><use fill="#fff" fill-opacity="0" stroke="#333" stroke-miterlimit="50" stroke-width="2" xlink:href="#mhmabb"/></g><g opacity=".05"><use xlink:href="#mhmabc"/></g><g><use fill="url(#mhmabe)" xlink:href="#mhmabd"/></g><g><use fill="#fff" xlink:href="#mhmabf"/></g><g><use fill="#333" xlink:href="#mhmabg"/></g><g><use fill="#fff" fill-opacity="0" stroke="#333" stroke-miterlimit="50" stroke-width="2" xlink:href="#mhmabh"/></g><g opacity=".05"><use xlink:href="#mhmabi"/></g></g></g></svg>