<svg xmlns="http://www.w3.org/2000/svg" xmlns:xlink="http://www.w3.org/1999/xlink" width="16" height="18" viewBox="0 0 16 18"><defs><path id="b6yea" d="M893.649 43c-.334 0-.667-.067-1-.133-2.199-.4-5.264-1.4-7.463-3.998-1.666-2.266-2.4-5.065-2.133-7.863v-.067c.134-1.333.2-3.399 2.333-3.798l.2-.067c.933-.067 2.732-.4 3.198 1.2.267.8.467 1.599.6 2.465.066.533-.067 1.066-.333 1.533-.467.6-1.2 1-1.933 1.066.533 2.065 1.933 3.865 3.798 4.93.334-.666.867-1.199 1.533-1.532.467-.2 1.066-.2 1.533.067.6.333 1.2.733 1.799 1.133.6.333 1.066.933 1.2 1.599.066.866-.134 1.732-.6 2.399-.6.733-1.733 1.066-2.732 1.066z"/></defs><g><g transform="translate(-882 -26)"><use fill="#fff" fill-opacity="0" stroke="#2c2d3f" stroke-linecap="round" stroke-linejoin="round" stroke-miterlimit="50" stroke-width="2" xlink:href="#b6yea"/></g></g></svg>