<svg xmlns="http://www.w3.org/2000/svg" xmlns:xlink="http://www.w3.org/1999/xlink" width="56" height="56" viewBox="0 0 56 56"><defs><path id="6hcfa" d="M1696 892c0-15.464 12.536-28 28-28s28 12.536 28 28-12.536 28-28 28-28-12.536-28-28z"/><path id="6hcfc" d="M1716 881c0-1 1-2 2-2h12c1 0 2 1 2 2v23c0 1-1 2-2 2h-12c-1 0-2-1-2-2z"/><path id="6hcfd" d="M1721.5 901.5h5"/><path id="6hcfb" d="M1655 938v-80h112v80z"/><path id="6hcfg" d="M1655 922l64-64"/><path id="6hcfh" d="M1668 922l64-64"/><path id="6hcfi" d="M1681 922l64-64"/><path id="6hcfj" d="M1694 922l64-64"/><path id="6hcfk" d="M1707 922l64-64"/><path id="6hcfl" d="M1720 922l64-64"/><path id="6hcfm" d="M1733 922l64-64"/><path id="6hcfn" d="M1746 922l64-64"/><path id="6hcfo" d="M1759 922l64-64"/><clipPath id="6hcfe"><use xlink:href="#6hcfa"/></clipPath><clipPath id="6hcff"><use xlink:href="#6hcfb"/></clipPath></defs><g><g transform="translate(-1696 -864)"><g><use fill="#2c2d3f" xlink:href="#6hcfa"/></g><g><g><use fill="#fff" fill-opacity="0" stroke="#fff" stroke-linecap="round" stroke-miterlimit="50" stroke-width="2" xlink:href="#6hcfc"/></g><g><use fill="#fff" fill-opacity="0" stroke="#fff" stroke-linecap="round" stroke-miterlimit="50" stroke-width="2" xlink:href="#6hcfd"/></g></g><g><g><use fill="#2c2d3f" xlink:href="#6hcfa"/></g><g clip-path="url(#6hcfe)" opacity=".25"><g opacity=".25"/><g clip-path="url(#6hcff)" opacity=".25"><g opacity=".25"><use fill="#fff" fill-opacity="0" stroke="#fff" stroke-miterlimit="50" stroke-width="4" xlink:href="#6hcfg"/></g></g><g clip-path="url(#6hcff)" opacity=".25"><g opacity=".25"><use fill="#fff" fill-opacity="0" stroke="#fff" stroke-miterlimit="50" stroke-width="4" xlink:href="#6hcfh"/></g></g><g clip-path="url(#6hcff)" opacity=".25"><g opacity=".25"><use fill="#fff" fill-opacity="0" stroke="#fff" stroke-miterlimit="50" stroke-width="4" xlink:href="#6hcfi"/></g></g><g clip-path="url(#6hcff)" opacity=".25"><g opacity=".25"><use fill="#fff" fill-opacity="0" stroke="#fff" stroke-miterlimit="50" stroke-width="4" xlink:href="#6hcfj"/></g></g><g clip-path="url(#6hcff)" opacity=".25"><g opacity=".25"><use fill="#fff" fill-opacity="0" stroke="#fff" stroke-miterlimit="50" stroke-width="4" xlink:href="#6hcfk"/></g></g><g clip-path="url(#6hcff)" opacity=".25"><g opacity=".25"><use fill="#fff" fill-opacity="0" stroke="#fff" stroke-miterlimit="50" stroke-width="4" xlink:href="#6hcfl"/></g></g><g clip-path="url(#6hcff)" opacity=".25"><g opacity=".25"><use fill="#fff" fill-opacity="0" stroke="#fff" stroke-miterlimit="50" stroke-width="4" xlink:href="#6hcfm"/></g></g><g clip-path="url(#6hcff)" opacity=".25"><g opacity=".25"><use fill="#fff" fill-opacity="0" stroke="#fff" stroke-miterlimit="50" stroke-width="4" xlink:href="#6hcfn"/></g></g><g clip-path="url(#6hcff)" opacity=".25"><g opacity=".25"><use fill="#fff" fill-opacity="0" stroke="#fff" stroke-miterlimit="50" stroke-width="4" xlink:href="#6hcfo"/></g></g></g></g></g></g></svg>