<svg xmlns="http://www.w3.org/2000/svg" xmlns:xlink="http://www.w3.org/1999/xlink" width="80" height="80" viewBox="0 0 80 80"><defs><path id="4gl3a" d="M412.3 113.5c3.5 2.7 7.3 4.9 11.3 6.5H405V67c8.3-3 15.6-7.6 22.7-12.4 6.7-4.6 14.3-9.2 22.2-10.8 8-1.7 16.2-.8 23.7 2.4 4 2 7.8 4.2 11.5 6.6v40.8c-7.6 3-14.3 7.3-21 11.8-6.7 4.5-14.4 9.2-22.3 10.8-7.9 1.6-16.2.8-23.6-2.5-4.6-2.2-9-4.8-13.2-7.6 2.2 2.7 4.6 5.2 7.3 7.4zM485 96.8V120h-36.2c7.4-2.9 14.4-7.8 21.4-12.9 4.8-3.6 9.8-7 14.8-10.3zm-80-32.5V40h37.9c-7.4 2.9-14.4 7.8-21.4 12.9-5.4 4-10.9 7.8-16.5 11.4zM468 40h17v12c-1.7-2-3.6-3.8-5.6-5.5-3.5-2.7-7.3-4.9-11.4-6.5z"/><path id="4gl3b" d="M477.1 74v12l-8.8-8.2V86h-1.5V74l8.8 8.3V74zm-15.8 6.5l-1.6-3.9-1.5 3.9zm4 5.5h-1.6l-1.7-3.9h-4.4L456 86h-1.7l4.9-12h1.1zm-16.1-12v10.4h4.1V86h-5.7V74zm-7 6.5l-1.6-3.9-1.5 3.9zm4 5.5h-1.7l-1.7-3.9h-4.4l-1.6 3.9h-1.6l4.8-12h1.1zm-8.7-12v1.5h-3.9V86H432V75.6h-3.8V74zm-10.6 0v12l-8.9-8.2V86h-1.5V74l8.8 8.3V74zm-12.3 0v12h-1.7V74z"/></defs><g><g transform="translate(-405 -40)"><use fill="#fff" xlink:href="#4gl3a"/></g><g transform="translate(-405 -40)"><use fill="#2c308e" xlink:href="#4gl3b"/></g></g></svg>