<svg xmlns="http://www.w3.org/2000/svg" xmlns:xlink="http://www.w3.org/1999/xlink" width="172" height="112" viewBox="0 0 172 112"><defs><path id="eowoa" d="M1308.942 3364.928c1.749-.132 3.495.188 5.165.54 10.023 2.073 20.276 5.035 30.71 3.933 5.538-.586 10.74-2.305 16.35-2.399 9.508-.162 18.17 4.334 27.63 3.738 1.932-.122 4.293-.356 5.463.594 1.357 1.108-.118 3.026 1.62 3.913.519.264 1.25.377 1.636.712.595.52.023 1.255-.754 1.677-4.71 2.547-12.623-1.234-18.253.484-1.249.377-2.26 1.006-3.461 1.434-1.709.607-3.723.786-5.68.953l-29.958 2.574c-7.173.616-14.438 1.232-21.637.74-7.199-.491-14.443-2.219-19.15-5.586-1.012-.723-1.918-1.547-2.18-2.485-1.234-4.426 5.05-10.257 12.5-10.822z"/><path id="eowob" d="M1294.49 3303.866l20.244 23.316 20.247 23.315H1254l20.245-23.315z"/><path id="eowoc" d="M1320.062 3304.19l20.245 23.316 20.245 23.316h-80.98l20.246-23.316z"/><path id="eowod" d="M1364.275 3272l-62.473 78.822 90.31-.487h33.341z"/><path id="eowoe" d="M1425.453 3350.335h-33.34L1364.274 3272z"/><path id="eowof" d="M1380.8 3317.164c-.15-.942-.672-2.103-2.31-2.316 0 0 1.496-4.693-8.751-4.621a2.572 2.572 0 0 0-3.769-1.536v-2.312s-6.014 2.088-1.104 7.61v3.783c0 .097.012.193.036.287.018.073.03.147.034.222.062 1.13.392 9.967-4.548 12.036-5.276 2.21-6.137-7.98-6.137-7.98-.646-13.247-6.489-14.304-7.913-14.364-.171 0-.343-.026-.514-.049-.656-.085-2.804.256-4.954 7.416-2.577 8.592-5.524 5.77-5.524 5.77-6.736-5.525-12.765-2.948-12.765-2.948-14.507 5.208-6.127 21.713-4.356 24.87-1.673 4.196-4.876 11.533-6.622 11.533-2.45 0-8.479 7.488 1.104 22.707h3.314s-7.446-14.794 1.554-19.741c-.26.441-.554.863-.878 1.26-5.769 6.629 7.365 18.412 7.365 18.412h3.682l-6.261-11.898c-2.45-4.91 4.296-7.243 4.296-7.243 8.346-4.665 6.014-12.642 6.014-12.642h17.426c-2.95 4.201-8.14 14.903-.795 31.73h2.45l1.476-18.421s1.32-3.768 6.574-8.844c.258 7.62 1.328 20.968 5.579 27.256h3.559s-1.916-12.812-1.178-17.304c.3-1.828.565-3.659.754-5.502l.942-9.627a8.256 8.256 0 0 0 5.208-7.786l-.07-17.024a1.763 1.763 0 0 1 1.854-1.768l4.16.215a1.033 1.033 0 0 0 1.068-1.181z"/><path id="eowoh" d="M1358.59 3344.203s-.482 23.376 5.543 32.293h3.495s-1.884-12.569-1.156-16.987c.294-1.794.565-3.591.73-5.402l1.508-15.568z"/><path id="eowoi" d="M1319.79 3340.225s-5.182 14.099-7.592 14.099c-2.41 0-8.314 7.348 1.085 22.293h3.254s-8.194-16.268 3.254-20.122c-.002-.002 4.096-11.812-.002-16.27z"/><path id="eowoj" d="M1364.493 3318.211v-3.713c-4.82-5.423 1.085-7.47 1.085-7.47v3.975c14.1-1.319 12.29 4.333 12.29 4.333 1.608.21 2.12 1.351 2.261 2.274a1.014 1.014 0 0 1-1.057 1.165l-4.077-.196a1.731 1.731 0 0 0-1.82 1.733l.055 16.71a8.23 8.23 0 0 1-2.877 6.305c-1.415 1.192-3.495 2.12-6.521 2.029h-31.811s2.289 7.832-5.905 12.41c0 0-6.626 2.29-4.217 7.109l6.146 11.681h-3.615s-12.893-11.568-7.23-18.074c0 0 5.363-6.206 1.807-14.94 0 0-11.81-19.28 3.976-24.944 0 0 5.905-2.53 12.53 2.892 0 0 2.893 2.771 5.423-5.664 2.109-7.03 4.217-7.363 4.861-7.28.168.023.336.04.505.047 1.396.058 7.133 1.097 7.768 14.1 0 0 .845 10.002 6.03 7.833 4.85-2.031 4.521-10.713 4.465-11.815a1.165 1.165 0 0 0-.032-.219 1.154 1.154 0 0 1-.04-.28z"/><path id="eowok" d="M1350.758 3343.359s-11.928 11.327-2.41 33.135h2.41l1.445-18.074s2.53-7.23 14.58-15.061z"/><path id="eowol" d="M1364.314 3311.487a2.53 2.53 0 1 1 5.061 0 2.53 2.53 0 0 1-5.06 0z"/><path id="eowom" d="M1353.275 3325.833c3.7-3.825 2.043-4.443 1.148-5.8-.61-.927-6.924-2.426-10.872-3.287-.024-.32-.065-.86-.103-1.508 0 0-.1-1.213-.092-2.046v-.02l.252.033v-.245l4.94.664c4.211.616 4.722-.988 4.722-.988.638-2.837-4.594-.987-4.594-.987-1.025.283-3.436-.531-5.305-1.275.022-.42.068-.839.139-1.253.143-.629.221-1.27.234-1.915a3.116 3.116 0 0 0-.338-1.597c-.942-1.79-2.56-3.885-4.08-5.432a8.637 8.637 0 0 1 .9-3.152 3.966 3.966 0 0 0 2.837-3.769c0-.389-.058-.776-.175-1.147 1.095-.999 1.06-3.058.053-4.38a2.945 2.945 0 0 0-.358-.389 3.913 3.913 0 0 0-2.562-1.087c-1.072-.062-2.139.226-3.126.639-1.163.488-2.327 1.17-3.591 1.07-.91-.071-1.78-.55-2.685-.437-1.176.147-1.963 1.22-2.52 2.233-.559 1.011-1.131 2.144-2.211 2.61-.942.402-2.025.188-3.054.246-1.438.077-2.894.778-3.58 2.003-.612 1.098-.426 2.611.5 3.442.14.146.3.273.474.377.189.103.37.218.543.347a.518.518 0 0 1 .141.376c-.026.167-.09.326-.188.464a2.638 2.638 0 0 0-.215 2.093c.07.251.211.476.407.648a.94.94 0 0 0 .188.164c.654.449 1.675-.09 2.325.362l.05.038c.261.303.342.753.523 1.115.12.238.284.45.484.626a3.05 3.05 0 0 0 2.022.851c.965.051 1.91-.241 2.826-.556 1.2-.412 2.54-1.03 2.853-2.225.188-.727-.059-1.52.171-2.236.116-.342.32-.648.592-.886a7.6 7.6 0 0 0-.486 1.858 10.177 10.177 0 0 0-.104 1.556c-.015 1.356.22 2.703.695 3.974.494 1.338 1.074 3.3 1.1 5.19a6.678 6.678 0 0 1-.391 2.28c-.803 2.116-.943 3.062-.907 3.486-.032.552.14.588.14.588l.049-.02a2.79 2.79 0 0 0 .58 2.122c5.104 3.331 16.97 2.222 16.97 2.222-2.425.377-5.23 6.293-5.23 6.293a8.878 8.878 0 0 1-2.355 3.416v-.023c-1.212-.415-2.894.684-4.136 1.281l-.102.047a.916.916 0 0 0-.41 1.32l3.436 5.557c2.161 2.24 3.58 2.627 4.074 2.2.326-.276.258-.902-.245-1.584-1.223-1.654-.162-6.08-.072-6.45 1.051-1.363 4.61-5.883 7.72-9.097z"/><path id="eowoo" d="M1340.695 3296.544s-1.807 2.651-1.445 5.302l-4.217-3.374s1.566-.12 1.928-3.737z"/><path id="eowop" d="M1340.215 3316.307s12.41 2.53 13.254 3.856c.844 1.327 2.41 1.928-1.085 5.664-3.495 3.736-7.59 9.277-7.59 9.277l-2.893-2.048a8.546 8.546 0 0 0 3.015-3.975s2.65-5.784 4.94-6.146c0 0-11.207 1.085-16.027-2.169 0 0-1.205-1.319-.12-3.495s6.506-.964 6.506-.964z"/><path id="eowoq" d="M1336.358 3298.833s-2.96-1.352-3.636 3.452c-.232 1.74-.038 3.51.565 5.159.684 1.916 1.545 5.147.669 7.536-1.32 3.616-.724 3.736-.724 3.736l1.771-.668a14.014 14.014 0 0 1 7.491-.673l.739.136s-.482-5.64-.06-8.014c.2-1.13.42-2.166-.098-3.186-1.594-3.122-5.232-7.199-6.717-7.478z"/><path id="eowor" d="M1336.358 3298.594s-2.96-1.353-3.636 3.452c-.232 1.74-.038 3.51.565 5.159.684 1.916 1.545 5.147.669 7.536-1.32 3.616-.724 3.736-.724 3.736l1.771-.669a14.014 14.014 0 0 1 7.491-.672l.739.135s-.482-5.639-.06-8.013c.2-1.13.42-2.167-.098-3.186-1.594-3.131-5.232-7.2-6.717-7.478z"/><path id="eowos" d="M1334.48 3302.2c.813-1.458 2.907-1.507 3.853-.132.384.594.654 1.254.797 1.947.844 3.615 1.565 5.904 1.565 5.904s1.867.664 2.67 1.178a69.683 69.683 0 0 0-.113 2.391l-4.002-.565-4.217-7.47s-1.422-1.696-.553-3.253z"/><path id="eowot" d="M1334.48 3301.96c.813-1.46 2.907-1.508 3.853-.133.384.594.654 1.254.797 1.947.844 3.615 1.565 5.904 1.565 5.904s5.664 2.772 7.348 2.29c0 0 4.94-1.807 4.334.964 0 0-.483 1.566-4.458.965l-8.667-1.206-4.219-7.47s-1.422-1.706-.553-3.262z"/><path id="eowou" d="M1336.298 3296.243c.224-.535.442-.27.542-1.266l3.736 1.807a9.204 9.204 0 0 0-.63 1.141c-.378.119-.826 0-1.237 0-.929.006-1.746-1.136-2.411-1.682z"/><path id="eowov" d="M1335.032 3294.014a3.857 3.857 0 1 1 7.713 0 3.857 3.857 0 0 1-7.713 0z"/><path id="eowow" d="M1340.603 3293.434c-.677-.09-1.372-.441-2.01-.198-.733.279-.986 1.19-.982 1.974.004.784.154 1.607-.17 2.322-.426.942-1.507 1.358-2.475 1.716-.969.358-2.039.861-2.346 1.846-.219.701.017 1.474-.162 2.184-.296 1.168-1.56 1.77-2.694 2.174-.86.305-1.753.592-2.663.543-.91-.05-1.854-.5-2.245-1.319-.206-.431-.274-.968-.662-1.247-.614-.443-1.579.085-2.195-.354a1.266 1.266 0 0 1-.433-.673 2.638 2.638 0 0 1 .201-2.042c.097-.136.161-.29.189-.455.019-.395-.432-.614-.767-.823-1.155-.718-1.445-2.419-.799-3.615.646-1.197 2.022-1.885 3.378-1.956.97-.055 1.996.152 2.885-.241 1.023-.454 1.56-1.558 2.086-2.548.525-.989 1.27-2.036 2.381-2.18.856-.11 1.677.358 2.536.428 1.193.096 2.293-.565 3.392-1.046.93-.403 1.938-.685 2.95-.623 1.012.062 2.035.503 2.638 1.319 1.358 1.852.834 5.196-2.033 4.814z"/><path id="eowox" d="M1340.48 3293.313c-.676-.09-1.371-.44-2.01-.198-.733.279-.985 1.19-.982 1.975.004.783.155 1.607-.17 2.32-.425.943-1.506 1.36-2.475 1.717-.968.358-2.038.861-2.346 1.847-.218.7.017 1.473-.162 2.183-.295 1.169-1.56 1.77-2.694 2.175-.859.305-1.752.591-2.662.542-.91-.049-1.854-.499-2.246-1.319-.205-.431-.273-.968-.661-1.247-.614-.443-1.58.085-2.195-.354a1.266 1.266 0 0 1-.434-.673 2.638 2.638 0 0 1 .196-2.044c.097-.135.161-.29.189-.454.019-.396-.432-.614-.767-.823-1.155-.718-1.445-2.42-.799-3.616.646-1.196 2.022-1.884 3.378-1.956.97-.054 1.996.153 2.885-.24 1.023-.455 1.56-1.559 2.086-2.548.525-.99 1.27-2.037 2.381-2.18.855-.111 1.677.358 2.536.428 1.193.096 2.293-.566 3.391-1.046.931-.403 1.94-.686 2.95-.624 1.013.063 2.036.503 2.639 1.32 1.364 1.853.842 5.197-2.028 4.815z"/><path id="eowoy" d="M1339.793 3303.112s-4.94-.603-5.182 2.892c-.24 3.495-.964-4.216-.964-4.216l2.289-1.696 2.66.852z"/><path id="eowoz" d="M1339.672 3302.992s-4.94-.603-5.181 2.892c-.241 3.495-.965-4.217-.965-4.217l2.29-1.696 2.65.845z"/><path id="eowoA" d="M1338.3 3334.97l3.24 5.434c2.04 2.188 3.377 2.566 3.845 2.15.307-.271.245-.882-.232-1.547-1.206-1.695-.06-6.327-.06-6.327-2.169-.482-2.41-2.289-2.41-2.289-1.13-.403-2.726.67-3.9 1.247l-.096.046a.91.91 0 0 0-.386 1.287z"/><path id="eowoB" d="M1345.095 3334.682s-2.41-.12-2.41-2.289c0 0 .362 1.927 2.41 2.29z"/><path id="eowoC" d="M1338.3 3334.97l3.24 5.434c2.04 2.188 3.377 2.566 3.845 2.15-1.12-.592-4.196-2.707-6.595-8.916l-.096.046a.91.91 0 0 0-.394 1.287z"/><path id="eowoD" d="M1263.956 3358.639s-12.743 7.687 10.739 19.523c0 0 5.174-9.61-.546-17.441a7.713 7.713 0 0 0-10.001-2.2z"/><path id="eowoE" d="M1264.103 3358.477s10.905 8.335 10.598 19.685"/><path id="eowoF" d="M1274 3378.116s-3.993-13.565.753-23.534a21.413 21.413 0 0 0 1.732-13.433 36.01 36.01 0 0 0-1.901-6.305"/><path id="eowoG" d="M1277.529 3328.534c0 1.662-3.015 6.48-3.015 6.48s-3.014-4.818-3.014-6.48a3.015 3.015 0 1 1 6.015 0z"/><path id="eowoH" d="M1282.5 3337.738c-.902 1.395-6.045 3.804-6.045 3.804s.094-5.678.996-7.073a3.015 3.015 0 1 1 5.05 3.271z"/><path id="eowoI" d="M1282.284 3353.465c-1.483.753-7.139.232-7.139.232s2.947-4.856 4.432-5.604a3.015 3.015 0 0 1 2.709 5.372z"/><path id="eowoJ" d="M1279.435 3365.325c-1.335.988-6.997 1.434-6.997 1.434s2.084-5.275 3.42-6.272a3.015 3.015 0 1 1 3.58 4.836z"/><path id="eowoK" d="M1270.137 3341.863c1.191 1.156 6.744 2.357 6.744 2.357s-1.36-5.515-2.552-6.672a3.015 3.015 0 1 0-4.192 4.315z"/><path id="eowoL" d="M1266.989 3355.779c1.483.753 7.139.231 7.139.231s-2.947-4.855-4.432-5.603a3.014 3.014 0 1 0-2.709 5.372z"/><path id="eowoM" d="M1265.783 3369.723c1.336.987 6.998 1.434 6.998 1.434s-2.084-5.276-3.42-6.273a3.014 3.014 0 1 0-3.58 4.837z"/><path id="eowoN" d="M1285.5 3382.704s-3.992-13.565.754-23.534a21.413 21.413 0 0 0 1.731-13.434 36.012 36.012 0 0 0-1.9-6.304"/><path id="eowoO" d="M1289.03 3333.126c0 1.662-3.015 6.48-3.015 6.48s-3-4.824-3-6.48a3.015 3.015 0 0 1 6.016 0z"/><path id="eowoP" d="M1294.001 3342.33c-.902 1.394-6.046 3.804-6.046 3.804s.095-5.679.997-7.073a3.015 3.015 0 1 1 5.05 3.27z"/><path id="eowoQ" d="M1293.785 3358.056c-1.483.754-7.14.232-7.14.232s2.946-4.853 4.43-5.607a3.014 3.014 0 1 1 2.71 5.372z"/><path id="eowoR" d="M1290.94 3369.917c-1.336.987-6.998 1.434-6.998 1.434s2.084-5.276 3.42-6.273a3.015 3.015 0 0 1 3.58 4.837z"/><path id="eowoS" d="M1281.638 3346.464c1.19 1.156 6.743 2.357 6.743 2.357s-1.36-5.515-2.551-6.672a3.015 3.015 0 0 0-4.192 4.315z"/><path id="eowoT" d="M1278.493 3360.37c1.483.754 7.14.232 7.14.232s-2.948-4.855-4.432-5.603a3.014 3.014 0 1 0-2.708 5.371z"/><path id="eowoU" d="M1277.282 3374.314c1.336.988 6.997 1.434 6.997 1.434s-2.083-5.275-3.42-6.272a3.015 3.015 0 1 0-3.579 4.836z"/><path id="eowoV" d="M1332.096 3274.49h-1.113a.78.78 0 0 0 0-1.56h-9.022a.78.78 0 1 0 0 1.56h1.114a.78.78 0 0 0 0 1.56h-1.56a.78.78 0 0 0 0 1.56h9.021a.78.78 0 0 0 0-1.56h1.56a.78.78 0 0 0 0-1.56z"/><path id="eowoW" d="M1313.483 3286.474h-1.113a.78.78 0 0 0 0-1.56h-9.02a.78.78 0 1 0 0 1.56h1.114a.78.78 0 1 0 0 1.56h-1.56a.78.78 0 1 0 0 1.56h9.02a.78.78 0 1 0 0-1.56h1.56a.78.78 0 1 0 0-1.56z"/><path id="eowoX" d="M1406.222 3284.209h-1.117a.78.78 0 0 0 0-1.56h-9.015a.78.78 0 0 0 0 1.56h1.113a.78.78 0 0 0 0 1.56h-1.56a.78.78 0 0 0 0 1.56h9.021a.78.78 0 0 0 0-1.56h1.56a.78.78 0 1 0 0-1.56z"/><path id="eowoY" d="M1278.01 3281.225a8.254 8.254 0 1 1 16.508 0 8.254 8.254 0 0 1-16.509 0z"/><path id="eowoZ" d="M1326.726 3332.369s3.392 4.369 4.694 7.93c1.302 3.56.486 4.531.486 4.531"/><linearGradient id="eowog" x1="1344.15" x2="1344.15" y1="3377.26" y2="3306.38" gradientUnits="userSpaceOnUse"><stop offset="0" stop-color="gray" stop-opacity=".25"/><stop offset=".54" stop-color="gray" stop-opacity=".12"/><stop offset="1" stop-color="gray" stop-opacity=".1"/></linearGradient><linearGradient id="eowon" x1="1337.25" x2="1337.25" y1="3343.12" y2="3286.24" gradientUnits="userSpaceOnUse"><stop offset="0" stop-color="gray" stop-opacity=".25"/><stop offset=".54" stop-color="gray" stop-opacity=".12"/><stop offset="1" stop-color="gray" stop-opacity=".1"/></linearGradient></defs><g><g transform="translate(-1254 -3272)"><g opacity=".1"><use fill="#252223" xlink:href="#eowoa"/></g><g opacity=".3"><use fill="#2c308e" xlink:href="#eowob"/></g><g opacity=".3"><use fill="#2c308e" xlink:href="#eowoc"/></g><g><use fill="#2c308e" xlink:href="#eowod"/></g><g opacity=".1"><use xlink:href="#eowoe"/></g><g><use fill="url(#eowog)" xlink:href="#eowof"/></g><g><use fill="#535461" xlink:href="#eowoh"/></g><g opacity=".05"><use xlink:href="#eowoh"/></g><g><use fill="#535461" xlink:href="#eowoi"/></g><g opacity=".05"><use xlink:href="#eowoi"/></g><g><use fill="#535461" xlink:href="#eowoj"/></g><g><use fill="#535461" xlink:href="#eowok"/></g><g><use fill="#535461" xlink:href="#eowol"/></g><g><use fill="url(#eowon)" xlink:href="#eowom"/></g><g><use fill="#f9d5c6" xlink:href="#eowoo"/></g><g><use fill="#353535" xlink:href="#eowop"/></g><g opacity=".1"><use xlink:href="#eowoq"/></g><g><use fill="#409cd6" xlink:href="#eowor"/></g><g opacity=".1"><use xlink:href="#eowos"/></g><g><use fill="#f9d5c6" xlink:href="#eowot"/></g><g opacity=".1"><use xlink:href="#eowou"/></g><g><use fill="#f9d5c6" xlink:href="#eowov"/></g><g opacity=".1"><use xlink:href="#eowow"/></g><g><use fill="#2f302f" xlink:href="#eowox"/></g><g opacity=".1"><use xlink:href="#eowoy"/></g><g><use fill="#409cd6" xlink:href="#eowoz"/></g><g><use fill="#409cd6" xlink:href="#eowoA"/></g><g opacity=".1"><use xlink:href="#eowoB"/></g><g opacity=".1"><use xlink:href="#eowoC"/></g><g><use fill="#2c308e" xlink:href="#eowoD"/></g><g><use fill="#fff" fill-opacity="0" stroke="#535461" stroke-miterlimit="50" xlink:href="#eowoE"/></g><g><use fill="#fff" fill-opacity="0" stroke="#535461" stroke-miterlimit="50" stroke-width="2" xlink:href="#eowoF"/></g><g><use fill="#2c308e" xlink:href="#eowoG"/></g><g><use fill="#2c308e" xlink:href="#eowoH"/></g><g><use fill="#2c308e" xlink:href="#eowoI"/></g><g><use fill="#2c308e" xlink:href="#eowoJ"/></g><g><use fill="#2c308e" xlink:href="#eowoK"/></g><g><use fill="#2c308e" xlink:href="#eowoL"/></g><g><use fill="#2c308e" xlink:href="#eowoM"/></g><g opacity=".25"><use xlink:href="#eowoG"/></g><g opacity=".25"><use xlink:href="#eowoH"/></g><g opacity=".25"><use xlink:href="#eowoI"/></g><g opacity=".25"><use xlink:href="#eowoJ"/></g><g opacity=".25"><use xlink:href="#eowoK"/></g><g opacity=".25"><use xlink:href="#eowoL"/></g><g opacity=".25"><use xlink:href="#eowoM"/></g><g><use fill="#fff" fill-opacity="0" stroke="#535461" stroke-miterlimit="50" stroke-width="2" xlink:href="#eowoN"/></g><g><use fill="#2c308e" xlink:href="#eowoO"/></g><g><use fill="#2c308e" xlink:href="#eowoP"/></g><g><use fill="#2c308e" xlink:href="#eowoQ"/></g><g><use fill="#2c308e" xlink:href="#eowoR"/></g><g><use fill="#2c308e" xlink:href="#eowoS"/></g><g><use fill="#2c308e" xlink:href="#eowoT"/></g><g><use fill="#2c308e" xlink:href="#eowoU"/></g><g opacity=".1"><use fill="#252223" xlink:href="#eowoV"/></g><g opacity=".1"><use fill="#252223" xlink:href="#eowoW"/></g><g opacity=".1"><use fill="#252223" xlink:href="#eowoX"/></g><g opacity=".3"><use fill="#2c308e" xlink:href="#eowoY"/></g><g opacity=".05"><use xlink:href="#eowoZ"/></g></g></g></svg>