<svg xmlns="http://www.w3.org/2000/svg" xmlns:xlink="http://www.w3.org/1999/xlink" width="157" height="112" viewBox="0 0 157 112"><defs><path id="p3m0a" d="M561.201 3381.397c0-1.438 10.538-2.603 23.536-2.603 12.998 0 23.536 1.165 23.536 2.603 0 1.438-10.538 2.603-23.536 2.603-12.998 0-23.536-1.165-23.536-2.603z"/><path id="p3m0b" d="M650.802 3347.998c-3.662 7.558-11.102 12.611-18.81 15.944-10.379 4.488-21.808 6.268-33.08 5.515a73.766 73.766 0 0 1-5.909-.63 74.519 74.519 0 0 1-19.755-5.758 75.588 75.588 0 0 1-5.336-2.67 68.232 68.232 0 0 1-10.303-7.012c-.448-.37-.892-.748-1.343-1.114-.951-.774-1.93-1.509-3.022-2.06a10.8 10.8 0 0 0-1.012-.446c-3.458-1.315-7.446-.819-11.046.207-2.736.774-5.401 1.842-8.14 2.605-1.218.35-2.458.613-3.711.788-2.8.357-5.645.11-8.341-.726l-.23-.072a20.69 20.69 0 0 1-1.149-.398l-.23-.089a17.915 17.915 0 0 1-1.08-.456l-.23-.105a20.047 20.047 0 0 1-1.08-.542c-.127-.066-.252-.138-.376-.205a22.567 22.567 0 0 1-5.4-4.204c-.045-.046-.088-.093-.138-.138-.219-.237-.434-.479-.642-.726a21.575 21.575 0 0 1-.946-1.201c-.035-.045-.068-.092-.1-.137a19.937 19.937 0 0 1-2.38-4.344 21.935 21.935 0 0 1-.504-1.444 14.781 14.781 0 0 1-.174-.617 4.522 4.522 0 0 1-.05-.184c-.754-2.994-.835-6.11-.835-9.206v-1.083c.022-5.009.1-10.104.838-15.044 0-.035.01-.07.016-.102a46.985 46.985 0 0 1 1.007-4.94 36.436 36.436 0 0 1 1.698-5.005c1.7-3.998 4.172-7.637 6.918-11.01 6.908-8.481 15.976-15.611 26.59-18.271 11.438-2.872 24.15-.12 33.376 7.225 2.813 2.24 5.34 4.89 8.5 6.608 2.757 1.494 5.985 2.113 8.938.937 2.441-.965 4.03-1.455 6.77-1.307a56.748 56.748 0 0 1 16.597 3.473c.215.079.43.16.644.242 13.886 5.315 25.826 15.87 32.028 29.434.164.359.324.72.478 1.084 3.7 8.634 5.034 18.765.954 27.184z"/><path id="p3m0c" d="M533.045 3300.298v52.28c-1.217.35-2.457.614-3.71.79-2.8.356-5.645.108-8.341-.727l-.23-.072a20.69 20.69 0 0 1-1.149-.398l-.23-.089a17.934 17.934 0 0 1-1.08-.456l-.23-.105a20.062 20.062 0 0 1-1.08-.542c-.127-.066-.252-.138-.376-.205a22.568 22.568 0 0 1-5.4-4.204c-.045-.046-.088-.093-.138-.138a21.33 21.33 0 0 1-.642-.726 21.562 21.562 0 0 1-.946-1.201c-.035-.045-.068-.092-.1-.137a19.937 19.937 0 0 1-2.38-4.344 21.933 21.933 0 0 1-.504-1.443 14.777 14.777 0 0 1-.174-.618 4.517 4.517 0 0 1-.05-.184c-.754-2.994-.835-6.11-.835-9.206v-1.083c.022-5.009.1-10.104.838-15.044 0-.035.01-.07.016-.102a46.985 46.985 0 0 1 1.007-4.94h14.077v-7.106h2.814v-5.707h6.043v5.707z"/><path id="p3m0d" d="M650.802 3347.998c-3.662 7.558-11.102 12.611-18.81 15.944-10.379 4.488-21.808 6.268-33.08 5.515a73.773 73.773 0 0 1-5.909-.63 74.519 74.519 0 0 1-19.755-5.758 75.599 75.599 0 0 1-5.336-2.67 68.232 68.232 0 0 1-10.303-7.012c-.448-.37-.892-.748-1.343-1.114-.951-.774-1.93-1.509-3.022-2.06-.33-.165-.667-.314-1.012-.446v-21.394h25.59v4.761h11.23v-34.827h13.22v13.926h6.539v-8.245h5.402v-8.808h2.482v-5.132c.215.078.43.16.644.24v4.892h2.418v8.813h5.401v8.246h7.96v31.414h12.653v-22.846h4.077c3.7 8.641 5.034 18.772.954 27.191z"/><path id="p3m0e" d="M593.003 3309.455v-5.908h5.909v5.908z"/><path id="p3m0f" d="M593.003 3321.703v-5.908h5.909v5.908z"/><path id="p3m0g" d="M593.003 3333.95v-5.908h5.909v5.908z"/><path id="p3m0h" d="M593.003 3346.199v-5.909h5.909v5.909z"/><path id="p3m0i" d="M593.003 3358.447v-5.908h5.909v5.908z"/><path id="p3m0j" d="M598.912 3364.786v4.666a73.787 73.787 0 0 1-5.909-.63v-4.036z"/><path id="p3m0k" d="M554.18 3338.685v-2.676h20.682v2.676z"/><path id="p3m0l" d="M554.18 3346.812v-2.676h20.682v2.676z"/><path id="p3m0m" d="M574.862 3352.264v2.675h-15.284a66.569 66.569 0 0 1-1.966-1.56c-.448-.37-.892-.748-1.343-1.115z"/><path id="p3m0n" d="M574.862 3360.4v2.676h-1.614a77.716 77.716 0 0 1-5.336-2.676z"/><path id="p3m0o" d="M608.78 3323.391v-3.846h3.846v3.846z"/><path id="p3m0p" d="M525.497 3305.469v-3.846h3.846v3.846z"/><path id="p3m0q" d="M525.497 3314.404v-3.846h3.846v3.846z"/><path id="p3m0r" d="M525.497 3323.339v-3.846h3.846v3.846z"/><path id="p3m0s" d="M525.497 3332.272v-3.845h3.846v3.845z"/><path id="p3m0t" d="M525.497 3341.207v-3.845h3.846v3.845z"/><path id="p3m0u" d="M525.497 3350.142v-3.845h3.846v3.845z"/><path id="p3m0v" d="M623.465 3323.391v-3.846h3.846v3.846z"/><path id="p3m0w" d="M608.78 3332.879v-3.846h3.846v3.846z"/><path id="p3m0x" d="M623.465 3332.879v-3.846h3.846v3.846z"/><path id="p3m0y" d="M608.78 3342.365v-3.845h3.846v3.845z"/><path id="p3m0z" d="M623.465 3342.365v-3.845h3.846v3.845z"/><path id="p3m0A" d="M608.78 3351.853v-3.845h3.846v3.845z"/><path id="p3m0B" d="M623.465 3351.853v-3.845h3.846v3.845z"/><path id="p3m0C" d="M608.78 3361.341v-3.845h3.846v3.845z"/><path id="p3m0D" d="M623.465 3361.341v-3.845h3.846v3.845z"/><path id="p3m0E" d="M608.78 3369.463v-2.48h3.846v2.127z"/><path id="p3m0F" d="M520.764 3314.412h-1.149v-1.93h1.149zm-1.38 0h-1.079v-1.93h1.08zm-1.31 0h-1.079v-1.93h1.08zm-1.31 0h-1.079v-1.93h1.08zm-1.309 0h-1.08v-1.93h1.08zm-1.31 0h-1.08v-1.93h1.08zm-1.31 0h-1.08v-1.93h1.08zm-1.31 0h-1.08v-1.93h1.08zm-1.31 0h-1.08v-1.93h1.08zm-1.31 0h-1.08v-1.93h1.08zm-1.31 0h-1.08v-1.93h1.08zm-1.31-2.068v2.206h14.709v-2.206z"/><path id="p3m0G" d="M520.764 3320.811h-1.149v-1.923h1.149zm-1.38 0h-1.079v-1.923h1.08zm-1.31 0h-1.079v-1.923h1.08zm-1.31 0h-1.079v-1.923h1.08zm-1.309 0h-1.08v-1.923h1.08zm-1.31 0h-1.08v-1.923h1.08zm-1.31 0h-1.08v-1.923h1.08zm-1.31 0h-1.08v-1.923h1.08zm-1.31 0h-1.08v-1.923h1.08zm-1.31 0h-1.08v-1.923h1.08zm-1.31 0h-1.08v-1.923h1.08zm-1.31-2.061v2.2h14.709v-2.2z"/><path id="p3m0H" d="M520.764 3327.216h-1.149v-1.924h1.149zm-1.38 0h-1.079v-1.924h1.08zm-1.31 0h-1.079v-1.924h1.08zm-1.31 0h-1.079v-1.924h1.08zm-1.309 0h-1.08v-1.924h1.08zm-1.31 0h-1.08v-1.924h1.08zm-1.31 0h-1.08v-1.924h1.08zm-1.31 0h-1.08v-1.924h1.08zm-1.31 0h-1.08v-1.924h1.08zm-1.31 0h-1.08v-1.924h1.08zm-1.31 0h-1.08v-1.924h1.08zm-1.31-2.061v2.199h14.709v-2.2z"/><path id="p3m0I" d="M520.764 3333.628h-1.149v-1.93h1.149zm-1.38 0h-1.079v-1.93h1.08zm-1.31 0h-1.079v-1.93h1.08zm-1.31 0h-1.079v-1.93h1.08zm-1.309 0h-1.08v-1.93h1.08zm-1.31 0h-1.08v-1.93h1.08zm-1.31 0h-1.08v-1.93h1.08zm-1.31 0h-1.08v-1.93h1.08zm-1.31 0h-1.08v-1.93h1.08zm-1.31 0h-1.08v-1.93h1.08zm-1.31 0h-1.08v-1.93h1.08zm-1.31-2.069v2.207h14.709v-2.207z"/><path id="p3m0J" d="M520.764 3340.032h-1.149v-1.93h1.149zm-1.38 0h-1.079v-1.93h1.08zm-1.31 0h-1.079v-1.93h1.08zm-1.31 0h-1.079v-1.93h1.08zm-1.309 0h-1.08v-1.93h1.08zm-1.31 0h-1.08v-1.93h1.08zm-1.31 0h-1.08v-1.93h1.08zm-1.31 0h-1.08v-1.93h1.08zm-1.31 0h-1.08v-1.93h1.08zm-1.31 0h-1.08v-1.93h1.08zm-2.563-2.068c.053.207.112.414.174.618v-.48h1.08v1.93h-.577c.017.046.035.093.054.138h13.926v-2.206z"/><path id="p3m0K" d="M520.764 3346.437h-1.149v-1.93h1.149zm-1.38 0h-1.079v-1.93h1.08zm-1.31 0h-1.079v-1.93h1.08zm-1.31 0h-1.079v-1.93h1.08zm-1.309 0h-1.08v-1.93h1.08zm-1.31 0h-1.08v-1.93h1.08zm-1.31 0h-1.08v-1.93h1.08zm-3.436-2.068l.1.138h.716v.925l.23.276v-1.2h1.08v1.93h-.437c.043.046.086.093.138.138h9.775v-2.206z"/><path id="p3m0L" d="M516.619 3350.774c.124.07.25.138.376.205v-.067h1.08v.61l.23.104v-.714h1.08v1.17l.23.089v-1.26h1.149v1.655l.23.072v-1.864z"/><path id="p3m0M" d="M561.972 3293.25s-3.286-.198-2.895 2.105a.561.561 0 0 0 .29.591s.007-.17.338-.113c.118.02.238.027.357.018a.738.738 0 0 0 .436-.18s.924-.382 1.284-1.892c0 0 .266-.33.255-.414l-.552.237s.19.4.04.732c0 0-.018-.718-.124-.7-.022 0-.288.138-.288.138s.326.697.08 1.204c0 0 .094-.86-.182-1.153l-.39.227s.38.72.123 1.307c0 0 .066-.9-.206-1.252l-.353.276s.357.71.138 1.197c0 0-.029-1.048-.216-1.128a2.207 2.207 0 0 0-.358.385s.246.516.094.787c0 0-.094-.699-.17-.702 0 0-.308.464-.34.78.015-.293.107-.579.266-.826a.93.93 0 0 0-.473.244s.048-.327.552-.356c0 0 .255-.352.322-.372 0 0-.497-.042-.8.092 0 0 .267-.309.891-.17l.35-.284s-.664-.09-.94.007c0 0 .32-.276 1.027-.074l.381-.228a3.477 3.477 0 0 0-.892-.077s.352-.189 1.002.017l.276-.123s-.414-.08-.53-.093c-.115-.012-.126-.046-.126-.046.26-.044.526-.014.77.085 0 0 .574-.215.563-.247z"/><path id="p3m0N" d="M553.343 3304.45s-1.122 3.095 1.196 3.378c.218.107.48.062.65-.112 0 0-.162-.055-.012-.356.052-.107.091-.22.117-.337a.74.74 0 0 0-.048-.47s-.103-.993-1.45-1.767c0 0-.24-.349-.325-.363l.07.599s.438-.068.714.17c0 0-.69-.187-.708-.08 0 .022.051.315.051.315s.761-.114 1.178.266c0 0-.797-.333-1.158-.153l.107.439s.8-.162 1.29.254c0 0-.846-.32-1.26-.159l.165.414s.781-.138 1.187.206c0 0-1.014-.275-1.143-.113.07.16.16.312.267.451 0 0 .564-.088.782.138 0 0-.696-.109-.721-.036 0 0 .356.428.65.552a1.686 1.686 0 0 1-.715-.488c-.017.18.018.36.1.52 0 0-.3-.137-.184-.625 0 0-.265-.345-.266-.414 0 0-.18.465-.138.792 0 0-.222-.342.091-.902l-.175-.414s-.276.603-.255.897c0 0-.171-.384.22-1.006l-.11-.428c-.144.26-.254.538-.327.827 0 0-.081-.39.3-.957l-.04-.297s-.193.37-.239.482c-.045.111-.08.109-.08.109.032-.261.136-.508.3-.713 0 0-.042-.618-.08-.62z"/><path id="p3m0O" d="M575.135 3301.842s-1.124 3.094 1.195 3.377c.218.108.48.063.65-.112 0 0-.162-.053-.013-.355a1.57 1.57 0 0 0 .119-.337.746.746 0 0 0-.05-.47s-.103-.994-1.449-1.768c0 0-.24-.347-.324-.362l.069.6s.44-.065.716.17c0 0-.69-.188-.708-.08 0 .021.051.315.051.315s.761-.115 1.176.265c0 0-.797-.334-1.156-.153l.107.438s.798-.16 1.288.254c0 0-.845-.319-1.258-.159l.164.414s.782-.138 1.188.205c0 0-1.015-.276-1.143-.113.07.161.16.313.267.452 0 0 .564-.09.78.138 0 0-.696-.109-.72-.037 0 0 .357.428.652.552a1.688 1.688 0 0 1-.716-.49.926.926 0 0 0 .1.523s-.3-.138-.186-.628c0 0-.264-.343-.264-.413 0 0-.182.464-.138.793 0 0-.22-.342.09-.902l-.173-.414s-.276.603-.256.898c0 0-.171-.385.22-1.007l-.109-.429c-.144.26-.254.539-.326.828 0 0-.083-.39.299-.957l-.04-.295s-.193.37-.24.48c-.047.113-.079.108-.079.108.032-.26.136-.507.3-.712 0 0-.046-.617-.083-.617z"/><path id="p3m0P" d="M543.985 3327.141s-1.122 3.096 1.195 3.377a.561.561 0 0 0 .651-.111s-.162-.054-.012-.355c.052-.107.092-.22.117-.338a.745.745 0 0 0-.048-.47s-.104-.994-1.45-1.767c0 0-.24-.348-.325-.363l.07.6s.438-.068.715.17c0 0-.69-.188-.709-.08 0 .021.051.315.051.315s.761-.114 1.178.265c0 0-.797-.334-1.159-.153l.11.438s.798-.16 1.287.254c0 0-.845-.319-1.259-.159l.164.414s.782-.138 1.187.206c0 0-1.013-.276-1.143-.114.071.162.161.314.27.453 0 0 .562-.09.78.138 0 0-.697-.11-.721-.038 0 0 .355.428.65.552a1.688 1.688 0 0 1-.714-.49.934.934 0 0 0 .1.523s-.3-.138-.185-.627c0 0-.265-.344-.266-.414 0 0-.181.466-.138.793 0 0-.22-.342.09-.902l-.173-.414s-.276.603-.257.898c0 0-.17-.385.221-1.005l-.11-.43c-.145.26-.254.538-.327.827 0 0-.081-.39.3-.957l-.04-.295s-.194.37-.24.481c-.045.112-.08.108-.08.108.033-.261.137-.508.301-.713 0 0-.042-.617-.081-.617z"/><path id="p3m0Q" d="M539.528 3297.965s-1.123 3.095 1.195 3.378c.218.107.48.062.65-.112 0 0-.161-.055-.012-.355.053-.108.092-.221.117-.338a.746.746 0 0 0-.048-.47s-.104-.994-1.45-1.767c0 0-.24-.349-.325-.362l.07.598s.438-.067.715.17c0 0-.69-.186-.707-.08 0 .022.05.316.05.316s.76-.115 1.177.264c0 0-.797-.332-1.157-.153l.107.44s.799-.161 1.288.254c0 0-.845-.32-1.257-.16l.164.414s.782-.138 1.186.205c0 0-1.014-.276-1.143-.112.07.161.16.313.268.451 0 0 .563-.088.78.138 0 0-.695-.109-.72-.036 0 0 .357.428.65.552a1.678 1.678 0 0 1-.714-.488.922.922 0 0 0 .1.52s-.3-.137-.185-.625c0 0-.265-.345-.266-.414 0 0-.181.466-.138.793 0 0-.22-.342.09-.902l-.173-.413s-.276.602-.256.896c0 0-.171-.383.22-1.005l-.11-.43c-.144.261-.254.54-.327.828 0 0-.081-.391.3-.957l-.04-.296s-.192.37-.24.481c-.046.112-.08.108-.08.108.033-.261.137-.508.301-.713 0 0-.042-.617-.08-.618z"/><path id="p3m0R" d="M547.86 3314.816s.868 3.171 2.924 2.068a.563.563 0 0 0 .468-.466s-.165.05-.216-.282a1.629 1.629 0 0 0-.097-.345.753.753 0 0 0-.312-.356s-.658-.751-2.206-.608c0 0-.397-.146-.473-.109l.401.45s.319-.308.681-.276c0 0-.674.247-.623.342.01.02.223.229.223.229s.552-.533 1.114-.462c0 0-.843.187-1.034.542l.342.297s.559-.593 1.198-.536c0 0-.874.226-1.12.596l.376.247s.551-.567 1.088-.518c0 0-.985.364-.998.567.15.091.31.164.478.215 0 0 .414-.397.716-.34 0 0-.632.311-.611.386 0 0 .538.138.848.071-.283.08-.581.085-.866.013.09.158.222.286.383.37 0 0-.325.059-.513-.406 0 0-.413-.128-.456-.186 0 0 .12.484.343.727 0 0-.378-.152-.445-.79l-.382-.24s.125.65.309.882c0 0-.362-.215-.4-.949l-.338-.286c.033.297.105.59.214.868 0 0-.293-.276-.308-.955l-.202-.218s.055.413.08.53c.027.118 0 .139 0 .139a1.412 1.412 0 0 1-.165-.756s-.39-.477-.42-.455z"/><path id="p3m0S" d="M571.388 3317.655s.868 3.171 2.925 2.068a.561.561 0 0 0 .466-.466s-.163.05-.215-.282a1.479 1.479 0 0 0-.098-.345.749.749 0 0 0-.31-.356s-.658-.751-2.206-.608c0 0-.398-.146-.475-.109l.403.45s.318-.308.681-.276c0 0-.674.247-.625.343.01.02.224.228.224.228s.551-.533 1.114-.462c0 0-.843.187-1.033.542l.34.297s.56-.592 1.199-.536c0 0-.874.226-1.12.596l.375.247s.552-.567 1.09-.518c0 0-.985.364-1 .569.15.09.312.162.48.213 0 0 .413-.397.714-.34 0 0-.631.313-.61.386 0 0 .538.138.849.071-.283.08-.582.085-.866.013a.926.926 0 0 0 .383.37s-.325.059-.514-.406c0 0-.414-.128-.457-.186 0 0 .122.484.345.728 0 0-.378-.153-.445-.79l-.382-.24s.124.65.307.881c0 0-.361-.215-.4-.949l-.336-.286c.033.297.104.59.212.868 0 0-.292-.276-.306-.955l-.203-.218s.056.414.082.53c.026.118 0 .139 0 .139a1.411 1.411 0 0 1-.166-.756s-.39-.484-.422-.455z"/><path id="p3m0T" d="M629.264 3364.656l1.389 1.466 2.202-3.88-.199-.436z"/><path id="p3m0U" d="M531.655 3361.334c0 7.364-5.042 8.926-10.096 8.926-5.053 0-7.898-6.205-7.898-13.57 0-7.367 4.097-13.335 9.15-13.335 5.054 0 8.844 10.616 8.844 17.98z"/><path id="p3m0V" d="M528.161 3356.926c0 7.363-3.246 13.334-7.25 13.334s-7.408-5.97-7.408-13.334c0-1.017-.158-2.007-.04-2.959.732-5.939 3.998-10.373 7.445-10.373 4.007 0 7.253 5.97 7.253 13.332z"/><path id="p3m0W" d="M527.439 3324.47s-6.356 7.127-8.374 13.065l54.878 6.06 29.398-6.06s-11.643-13.95-14.79-14.49c-3.147-.54-61.112 1.426-61.112 1.426z"/><path id="p3m0X" d="M567.707 3342.598l8.808 24.712v-6.254l2.452-7.002 6.792-3.007 8.612 3.907 3.08.963.27-5.7-10.24-5.048-4.767-2.288-10.91-.951-3.01-.538z"/><path id="p3m0Y" d="M571.635 3345.169l8.014.92c-.364-3.2 2.012-3.2 2.012-3.2l-8.017-1.388h-3.742"/><path id="p3m0Z" d="M576.515 3371.11h5.68l16.452-.551s.356 3.137 4.688 2.4c0 0 2.386.152 2.642-1.144.256-1.296-5.433-13.274-5.433-13.274l-7.756-5.791-7.032-1.707-5.048 1.485-3.207 5.101-2.019 6.984z"/><path id="p3m0aa" d="M528.544 3326.176c-.813.665-3.383 3.049-5.525 8.09a1.219 1.219 0 0 0 .966 1.69l12.903 1.672a1.95 1.95 0 0 0 2.145-1.47l2.269-9.254a.924.924 0 0 0-.916-1.144l-11.275.21a.914.914 0 0 0-.567.206z"/><path id="p3m0ab" d="M547.296 3325.74l14.53-.139c1.047-.01 1.984.69 2.337 1.757l4.531 10.29c.401 1.205-.466 2.46-1.655 2.391l-21.21-1.396c-1.759-.103-3.004-1.896-2.597-3.745l1.538-6.987c.277-1.263 1.32-2.16 2.526-2.172z"/><path id="p3m0ac" d="M569.883 3325.574c3.972-.072 14.5-.373 19.737-1.579 0 0 8.987 6.77 11.68 11.877 0 0-14.01 3.41-23.685 3.872a3.666 3.666 0 0 1-3.47-2.068L569 3327.015a1.001 1.001 0 0 1 .883-1.441z"/><path id="p3m0ad" d="M574.92 3327.117c1.654-.03 4.882-.115 8.034-.35a15.103 15.103 0 0 1 12.442 5.03l.102.117a1.964 1.964 0 0 1-1.073 3.207c-3.478.746-9.401 1.885-13.973 2.105a2.62 2.62 0 0 1-2.492-1.478l-3.67-7.607a.714.714 0 0 1 .63-1.024z"/><path id="p3m0ae" d="M576.515 3367.31v3.8l-42.008-6.413c-2.059-.712-3.288-.275-3.288-.275-1.516-.74-2.62-3.63-2.651-3.723l.793-2.296-6.44-10.65-8.566.355c1.347-10.77 5.226-11.284 5.226-11.284l50.328 4.671z"/><path id="p3m0af" d="M567.461 3344.627c-.33.361-.932.69-2.043.659-1.703-.041-2.026-1.495-2.068-2.362a4.064 4.064 0 0 1 .018-.637l2.23-.683.457.426 1.347 1.262c.38.354.407.948.06 1.335z"/><path id="p3m0ag" d="M567.461 3344.508c-.33.362-.932.69-2.043.66-1.703-.042-2.026-1.495-2.068-2.363a4.064 4.064 0 0 1 .018-.637l2.23-.682.457.426 1.347 1.262c.38.354.407.948.06 1.334z"/><path id="p3m0ah" d="M566.056 3341.912c-.285.726-1.129.924-1.129.924l-1.576-.03a4.06 4.06 0 0 1 .018-.638l2.23-.682z"/><path id="p3m0ai" d="M560.37 3336.348s-3.563.477-2.613 3.698c.72 2.44 2.326 2.605 3.062 2.543.429-.039.86-.054 1.29-.047l2.817.056s1.59-.37 1.145-1.974c-.445-1.604-2.494-4.543-5.701-4.276z"/><path id="p3m0aj" d="M539.435 3343.95c0-1.181.736-2.139 1.643-2.139.908 0 1.644.958 1.644 2.139 0 1.18-.736 2.138-1.644 2.138-.907 0-1.643-.957-1.643-2.138z"/><path id="p3m0ak" d="M538.433 3343.707c.038-.36.437-.682.797-.643l4.677.499c.36.038.682.437.643.797-.038.36-.437.682-.797.644l-4.677-.5c-.36-.038-.682-.436-.643-.796z"/><path id="p3m0al" d="M538.433 3343.588c.038-.36.437-.682.797-.643l4.677.499c.36.038.682.437.644.797-.039.36-.437.682-.798.644l-4.676-.5c-.36-.038-.683-.437-.644-.797z"/><path id="p3m0am" d="M513.839 3357.907s-2.95-2.911.633-9.917c0 0 4.593-6.95 11.72.653 0 0 4.098 4.573 5.285 11.878l-2.79.06s-2.674-12.948-10.513-12.295c0-.001-5.701 1.008-4.335 9.62z"/><path id="p3m0an" d="M513.723 3358.262s-2.95-2.909.633-9.918c0 0 4.593-6.948 11.72.654 0 0 4.098 4.573 5.287 11.877l-2.792.06s-2.677-12.945-10.515-12.293c0 0-5.702 1.01-4.333 9.62z"/><path id="p3m0ao" d="M513.723 3358.025s-2.95-2.91.633-9.918c0 0 4.593-6.948 11.72.654 0 0 4.098 4.572 5.287 11.877l-2.792.06s-2.677-12.947-10.515-12.294c0 0-5.702 1.01-4.333 9.621z"/><path id="p3m0aq" d="M576.515 3367.31v3.8l-42.008-6.413c-2.059-.712-3.288-.275-3.288-.275-1.516-.74-2.62-3.63-2.651-3.723l2.792-.06 8.077 1.128 29.358 4.217s5.206.594 5.503.827c.296.233 2.217.5 2.217.5z"/><path id="p3m0ap" d="M576.515 3367.192v3.8l-42.008-6.414c-2.059-.712-3.288-.276-3.288-.276-1.516-.74-2.62-3.63-2.651-3.723l2.792-.06 8.077 1.128 29.358 4.217s5.206.594 5.503.827c.296.233 2.217.5 2.217.5z"/><path id="p3m0ar" d="M539.378 3361.778c-2.61-8.38-2.47-14.225-1.894-17.649.626-3.723 1.891-5.478 1.904-5.495l.095.07c-.012.017-1.263 1.76-1.884 5.455-.573 3.417-.711 9.232 1.894 17.59z"/><path id="p3m0as" d="M633.607 3358.107c.104.39.348 1.468-.04 1.759-.147.11-.275.382-.374.705a10.967 10.967 0 0 0-.337 1.67l-4.04 4.514-6.83 2.673-16.332 1.128-9.858-16.035-22.152-13.027 6.048-.335c6.049-.336 23.22-4.137 23.22-4.137l19.424 4.291a13.016 13.016 0 0 1 7.79 5.131c2.365 3.31 3.447 6.894 3.447 6.894.293.35.406.924.422 1.553.022 1.025-.212 2.191-.34 2.748-.049.208-.082.332-.082.332l.033.136z"/><path id="p3m0at" d="M574.296 3366.577s-1.187-12.704 7.722-16.15c0 0 12.531-5.29 19.895 9.083l3.741 8.198s1.069 2.018 3.98 1.959c0 0 13.718-.414 20.958-5.048l2.257-2.62s-1.127 3.682-2.257 4.513c0 0-4.453 5.226-20.667 6.177 0 0-6.631.712-8.63-5.583 0 0-2.713-14.253-16.492-14.134 0 0-8.095.158-8.294 14.094z"/><path id="p3m0au" d="M574.296 3366.814s-1.187-12.702 7.722-16.15c0 0 12.531-5.289 19.895 9.083l3.741 8.196s1.069 2.019 3.98 1.96c0 0 13.718-.414 20.958-5.048l2.264-2.613s-1.127 3.681-2.257 4.513c0 0-4.453 5.227-20.667 6.177 0 0-6.631.713-8.63-5.583 0 0-2.713-14.253-16.492-14.135 0 0-8.095.16-8.294 14.096z"/><path id="p3m0av" d="M572.24 3366.43l-.537-17.672a18.186 18.186 0 0 0-.138-3.585c-.017-.075-.443-1.897-1.012-2.933-.366-.534-.676-.696-.69-.7l-.315-.085.353-.026c.244.047.475.3.689.655.389.534.847 1.471 1.088 3.07.165 1.191.211 2.396.138 3.597l.536 17.669z"/><path id="p3m0aw" d="M583.144 3353.323l-.115.02c0-.014-.247-1.48-1.06-2.645-1.706-2.442-2.263-4.098-2.327-5.204a2.849 2.849 0 0 1 .138-1.133c.266-.746.979-1.298 1.947-1.57l.207.034c-.93.262-1.793.868-2.048 1.576-.122.36-.168.74-.138 1.118.07 1.082.628 2.707 2.306 5.113.84 1.186 1.09 2.676 1.09 2.691z"/><path id="p3m0ax" d="M621.184 3347.564c-7.567-4.516-23.586-8.716-23.748-8.757l.03-.116c.162.043 16.198 4.247 23.78 8.77z"/><path id="p3m0ay" d="M632.186 3353.822c-2.857-5.026-10.55-9.169-16.5-11.761a106.996 106.996 0 0 0-12.363-4.468l.031-.114a107 107 0 0 1 12.378 4.473c5.968 2.599 13.684 6.756 16.558 11.811z"/><path id="p3m0az" d="M627.778 3348.569c-1.931-2.563-3.008-5.01-2.404-5.464.603-.455 2.658 1.255 4.589 3.817 1.931 2.563 3.008 5.01 2.404 5.464-.603.455-2.658-1.254-4.589-3.817z"/><path id="p3m0aA" d="M627.779 3348.331c-1.931-2.563-3.008-5.009-2.405-5.464.604-.454 2.658 1.255 4.59 3.818 1.93 2.563 3.007 5.009 2.404 5.463-.603.455-2.658-1.254-4.59-3.817z"/><path id="p3m0aB" d="M628.32 3348.055c-1.595-2.117-2.57-4.072-2.179-4.367.392-.295 2.002 1.181 3.597 3.298 1.595 2.116 2.57 4.071 2.179 4.367-.392.295-2.002-1.182-3.597-3.298z"/><path id="p3m0aC" d="M628.32 3347.937c-1.595-2.117-2.57-4.072-2.179-4.367.392-.295 2.002 1.181 3.597 3.298 1.595 2.116 2.57 4.071 2.179 4.366-.392.296-2.002-1.181-3.597-3.297z"/><path id="p3m0aD" d="M614.592 3356.63s.386-2.911 2.674-3.565c0 0 7.78-2.25 9.472-2.283 0 0 1.752-.536 2.91.77l1.187 1.603s.827 1.307-1.01 1.544c0 0-9.402 3.448-13.48 3.806a5.752 5.752 0 0 0-.688.105c-.596.124-1.847.16-1.065-1.98z"/><path id="p3m0aE" d="M614.712 3356.511s.386-2.91 2.672-3.564c0 0 7.78-2.25 9.473-2.284 0 0 1.751-.537 2.91.77l1.188 1.603s.827 1.306-1.01 1.545c0 0-9.402 3.447-13.48 3.805-.23.021-.461.056-.689.105-.597.124-1.847.16-1.064-1.98z"/><path id="p3m0aF" d="M615.531 3356.263s.36-2.489 2.482-3.047c0 0 7.234-1.93 8.807-1.954 0 0 1.628-.46 2.705.658l1.103 1.372s.772 1.118-.939 1.32c0 0-8.74 2.951-12.53 3.256a5.809 5.809 0 0 0-.636.09c-.556.098-1.719.133-.992-1.695z"/><path id="p3m0aG" d="M615.651 3356.142s.359-2.482 2.482-3.048c0 0 7.233-1.93 8.807-1.953 0 0 1.628-.461 2.705.657l1.103 1.38s.772 1.116-.939 1.32c0 0-8.742 2.95-12.532 3.255a5.773 5.773 0 0 0-.633.09c-.559.1-1.721.13-.993-1.701z"/><path id="p3m0aH" d="M616.262 3354.608l-.015-.118c.106-.013 10.67-1.325 12.944-3.08l.073.093c-2.3 1.772-12.566 3.049-13.002 3.105z"/><path id="p3m0aI" d="M615.706 3355.976l-.02-.117c.115-.02 11.738-2.173 14.244-3.723l.064.1c-2.526 1.563-14.17 3.718-14.288 3.74z"/><path id="p3m0aJ" d="M615.432 3357.103l-.022-.116c.138-.026 13.513-2.551 15.167-4.03l.079.088c-1.673 1.501-14.673 3.954-15.224 4.058z"/><path id="p3m0aK" d="M629.351 3357.163s-5.04 2.103-10.341 3.046c-.469.085-.933.19-1.391.315-.538.146-1.302.311-1.717.204-.683-.18-1.06.652-.323 1.305l.047.042a2.638 2.638 0 0 0 1.962.648l1.135-.095s9.207-2.019 11.774-3.594c0 0 1.172-.803 1.262-1.708.09-.904.196-1.617-.734-1.082-.93.535-1.674.92-1.674.92z"/><path id="p3m0aL" d="M629.464 3357.048c-.187.077-5.136 2.117-10.341 3.043a15.63 15.63 0 0 0-1.391.314c-.537.146-1.302.312-1.717.204-.69-.18-1.06.652-.323 1.306l.022.02c.555.49 1.286.732 2.023.67l1.092-.09h.018c.316-.07 9.239-2.042 11.762-3.585h.01c.078-.057 1.17-.835 1.256-1.706.09-.905.197-1.617-.734-1.082-.884.507-1.6.882-1.666.917z"/><path id="p3m0aM" d="M628.792 3357.712s-4.137 1.721-8.578 2.699c-.442.096-.879.21-1.313.335-.434.125-1.055.275-1.4.231-.59-.078-.871.51-.21.906l.022.013c.5.299 1.089.418 1.667.336l1.023-.138s7.747-1.95 9.857-3.18c0 0 .965-.619.99-1.24.025-.622.086-1.104-.68-.69-.765.414-1.379.728-1.379.728z"/><path id="p3m0aN" d="M628.909 3357.594c-.088.037-4.184 1.73-8.575 2.698-.442.097-.88.21-1.314.335-.435.126-1.054.276-1.4.232-.59-.079-.871.509-.208.906a2.62 2.62 0 0 0 1.71.346l.995-.138c.16-.04 7.763-1.96 9.854-3.172.033-.022.965-.63.988-1.24.024-.611.086-1.11-.68-.69-.765.42-1.344.712-1.378.728z"/><path id="p3m0aO" d="M610.81 3364.194c-.637-.032-1.12-.756-1.076-1.617.043-.861.595-1.534 1.232-1.502.637.032 1.12.756 1.076 1.617-.043.862-.595 1.534-1.232 1.502z"/><path id="p3m0aP" d="M610.778 3364.185c-.637-.031-1.118-.754-1.075-1.615.043-.86.593-1.532 1.23-1.5.636.032 1.118.755 1.075 1.615-.043.86-.594 1.532-1.23 1.5z"/><path id="p3m0aQ" d="M617.67 3363.815s-6.047.921-7.65 1.01c-1.604.09-1.845.98-1.845.98s-.386 2.257 1.84 1.603l7.899-.89s1.07.03 1.07-1.426v-.327c.003-.183.021-.365.055-.545.043-.227-.075-.597-1.37-.405z"/><path id="p3m0aR" d="M617.788 3363.696s-6.046.921-7.65 1.01c-1.603.088-1.84.98-1.84.98s-.387 2.257 1.84 1.604l7.9-.891s1.068.03 1.068-1.426v-.327c.004-.182.022-.365.056-.544.044-.228-.079-.597-1.374-.406z"/><path id="p3m0aS" d="M633.568 3359.866c-.148.11-.276.382-.375.704l-1.958 1.388a.16.16 0 0 1-.252-.13v-1.456c0-.425.222-.818.586-1.037l2.038-1.228c.104.39.352 1.465-.04 1.759z"/><path id="p3m0aT" d="M619.71 3363.89l-.09 1.473a.983.983 0 0 0 1.116 1.051 27.054 27.054 0 0 0 9.451-3.395l.258-3.008a.423.423 0 0 0-.589-.432c-1.655.738-6.09 2.628-8.906 2.99a1.43 1.43 0 0 0-1.24 1.322z"/><path id="p3m0aU" d="M620.62 3363.132v2.394s7.365-1.74 8.997-2.913v-2.271a36.99 36.99 0 0 1-8.997 2.79z"/><path id="p3m0aV" d="M633.53 3357.753c-.373-.026-.672-.667-.672-1.451 0-.785.311-1.454.69-1.454a.438.438 0 0 1 .315.156c.03 1.025-.204 2.191-.332 2.75z"/><path id="p3m0aW" d="M633.65 3357.634c-.374-.025-.672-.666-.672-1.451s.31-1.455.69-1.455a.445.445 0 0 1 .316.158c.028 1.024-.207 2.19-.335 2.748z"/><path id="p3m0aX" d="M599.775 3367.78c0 13.05-5.516 13.333-12.709 13.333-5.747 0-8.1-5.97-8.1-13.334s1.847-13.317 7.593-13.317c5.745 0 13.216 5.954 13.216 13.317z"/><path id="p3m0aY" d="M578.967 3367.78c0-7.365 3.245-13.334 7.25-13.334 4.004 0 7.25 5.97 7.25 13.333 0 7.364-3.246 13.334-7.25 13.334s-7.25-5.97-7.25-13.334z"/><path id="p3m0aZ" d="M524.094 3359.866c0 3.999-1.159 7.206-3.565 7.206-2.406 0-5.266-3.245-5.266-7.246 0-4.002 1-7.522 3.406-7.522s5.425 3.56 5.425 7.562z"/><path id="p3m0ba" d="M524.092 3359.71c0 .303-.008.601-.025.894a11.305 11.305 0 0 1-.336 2.277c-.39 1.473-1.103 2.496-2.143 2.69a2.026 2.026 0 0 1-.37.034 2.914 2.914 0 0 1-1.54-.5c-.99-.631-1.905-1.81-2.37-3.284a6.982 6.982 0 0 1-.335-2.139c-.012-1.089.096-2.176.324-3.241.13-.649.367-1.271.7-1.842.425-.67.99-1.068 1.712-1.068.54.023 1.063.2 1.507.51a5.873 5.873 0 0 1 1.655 1.71 7.323 7.323 0 0 1 1.221 3.96z"/><path id="p3m0bb" d="M524.065 3360.61a11.306 11.306 0 0 1-.334 2.271c-.05-.056-1.412-1.63-2.435-.62-.752.74-.119 2.427.292 3.31a2.031 2.031 0 0 1-.37.032 2.913 2.913 0 0 1-1.54-.499v-.113s.606-1.886-1.009-3.049c0 0-.784-.311-1.368-.124a6.983 6.983 0 0 1-.318-1.67c.138-.108 1.082-.918.696-2.443-.104-.43-.234-.853-.389-1.267.133-.648.372-1.27.708-1.84 0 0 .31 1.684 1.497 1.785 1.187.1 1.706-2.278 1.72-2.344a5.873 5.873 0 0 1 1.656 1.711s-1.896.789-1.343 2.887c.405 1.487 1.778 1.874 2.537 1.972z"/><path id="p3m0bc" d="M519.153 3359.503c-.12-.844.179-1.584.666-1.653.487-.07.979.56 1.098 1.404.12.844-.179 1.585-.666 1.653-.487.07-.978-.56-1.098-1.404z"/><path id="p3m0bd" d="M587.481 3368.336c0 4.795-1.022 8.635-3.144 8.635s-4.645-3.887-4.645-8.687c0-4.8.882-9.012 3.004-9.012s4.785 4.27 4.785 9.064z"/><path id="p3m0be" d="M587.481 3368.156c0 .367-.007.724-.022 1.071-.03.914-.13 1.825-.298 2.725-.343 1.765-.965 2.989-1.89 3.223a1.414 1.414 0 0 1-.327.04c-.444 0-.91-.213-1.357-.6-.88-.756-1.682-2.177-2.097-3.936a11.18 11.18 0 0 1-.276-2c-.01-.186-.015-.373-.015-.563a23.59 23.59 0 0 1 .287-3.883c.112-.76.323-1.502.628-2.206.375-.801.873-1.279 1.51-1.279.43 0 .886.22 1.33.61.53.467 1.042 1.177 1.464 2.05a11.114 11.114 0 0 1 1.063 4.748z"/><path id="p3m0bf" d="M587.459 3369.224c-.03.915-.13 1.825-.298 2.725-.043-.07-1.24-1.955-2.148-.745-.662.888-.105 2.908.258 3.969a1.414 1.414 0 0 1-.327.038c-.444 0-.91-.212-1.357-.598v-.138s.534-2.26-.89-3.653c0 0-.69-.373-1.207-.149a11.18 11.18 0 0 1-.276-2c.121-.131.954-1.103.614-2.928a17.14 17.14 0 0 0-.342-1.516c.112-.76.323-1.502.628-2.207 0 0 .276 2.02 1.321 2.138 1.046.118 1.505-2.728 1.517-2.806.531.467 1.043 1.177 1.465 2.05 0 0-1.673.946-1.185 3.46.343 1.788 1.555 2.246 2.227 2.36z"/><path id="p3m0bg" d="M582.764 3368.023c-.083-1.015.202-1.866.636-1.902.434-.035.853.758.936 1.773.083 1.015-.201 1.866-.635 1.902-.435.035-.854-.758-.937-1.773z"/><path id="p3m0bh" d="M603.574 3347.459l-.049.109c-.047-.022-4.153-1.793-19.38-4.377a497.85 497.85 0 0 0-2.206-.368l-.21-.033c-2.437-.397-5.127-.81-8.095-1.24l.017-.12c4.02.58 7.529 1.131 10.59 1.655 15.188 2.581 19.284 4.353 19.333 4.374z"/><path id="p3m0bi" d="M526.39 3324.895s1.378-2.344 6.097-2.552c0 0 34.485-4.505 56.257.177 0 0 1.859.827-.159 1.312-2.017.486-48.378 2.164-62.196 1.063z"/><path id="p3m0bj" d="M526.39 3324.658s1.378-2.344 6.097-2.553c0 0 34.485-4.504 56.257.177 0 0 1.859.828-.159 1.313-2.017.485-48.378 2.164-62.196 1.063z"/><path id="p3m0bk" d="M523.161 3334.505c2.142-5.041 4.712-7.426 5.526-8.092a.921.921 0 0 1 .565-.206l11.282-.21a.914.914 0 0 1 .776.4.922.922 0 0 0-.895-.637l-11.282.21a.91.91 0 0 0-.565.206c-.814.665-3.384 3.049-5.525 8.09-.16.373-.124.801.098 1.142a1.213 1.213 0 0 1 .02-.903z"/><path id="p3m0bl" d="M543.47 3335.067l1.537-6.986c.275-1.265 1.32-2.161 2.526-2.172l14.53-.138a2.344 2.344 0 0 1 1.517.543 2.37 2.37 0 0 0-1.749-.765l-14.53.138c-1.206.012-2.249.908-2.526 2.173l-1.544 6.985a3.171 3.171 0 0 0 1.023 3.116 3.195 3.195 0 0 1-.785-2.894z"/><path id="p3m0bm" d="M574.887 3338.01l-5.144-10.662a1.001 1.001 0 0 1 .883-1.435c3.917-.072 14.213-.365 19.519-1.53-.334-.261-.525-.406-.525-.406-5.24 1.207-15.765 1.507-19.737 1.579a1.001 1.001 0 0 0-.883 1.435l5.145 10.657a3.67 3.67 0 0 0 2.104 1.876 3.664 3.664 0 0 1-1.362-1.514z"/><path id="p3m0bn" d="M574.298 3367.497v-.683h2.217v.683z"/><path id="p3m0bo" d="M531.257 3360.059l-2.726.47c.016.094.043.187.078.276.054.138 3.034-.106 3.034-.106l-.287-.06z"/><path id="p3m0bp" d="M520.972 3366.742c-2.405 0-5.266-3.244-5.266-7.246 0-2.742.47-5.26 1.54-6.571-1.379 1.112-1.983 3.918-1.983 7.014 0 3.999 2.861 7.246 5.266 7.246.814 0 1.482-.367 2.015-1.007-.441.368-.998.568-1.572.564z"/><path id="p3m0bq" d="M584.809 3376.438c-2.154 0-4.716-3.895-4.716-8.7 0-3.294.414-6.317 1.379-7.891-1.241 1.336-1.775 4.706-1.775 8.423 0 4.805 2.562 8.7 4.716 8.7.728 0 1.328-.44 1.804-1.207-.4.435-.87.675-1.408.675z"/><path id="p3m0br" d="M603.012 3355.382c-2.706-2.706-3.776-6.023-2.39-7.409 1.386-1.386 4.703-.316 7.41 2.39 2.705 2.706 3.775 6.023 2.389 7.409-1.386 1.386-4.703.316-7.41-2.39z"/><path id="p3m0bs" d="M603.13 3355.264c-2.705-2.706-3.775-6.023-2.39-7.409 1.387-1.386 4.704-.316 7.41 2.39 2.706 2.706 3.776 6.023 2.39 7.409-1.387 1.386-4.704.316-7.41-2.39z"/><path id="p3m0bt" d="M604.14 3354.491c-2.296-2.296-3.333-4.98-2.317-5.997 1.016-1.016 3.7.022 5.997 2.318 2.296 2.296 3.334 4.98 2.318 5.997-1.017 1.016-3.702-.022-5.998-2.318z"/><path id="p3m0bu" d="M604.14 3354.372c-2.296-2.296-3.333-4.981-2.317-5.998 1.016-1.016 3.701.022 5.997 2.318 2.296 2.296 3.334 4.981 2.318 5.997s-3.701-.021-5.997-2.317z"/><path id="p3m0bv" d="M647.124 3375.585s-5.83-.352-5.144 3.734c0 0-.137.721.519 1.05 0 0 .01-.303.598-.2.21.034.422.045.633.03a1.31 1.31 0 0 0 .774-.32s1.64-.677 2.276-3.355c0 0 .472-.585.452-.735l-.983.414s.337.71.072 1.3c0 0-.032-1.274-.22-1.241-.04 0-.512.245-.512.245s.579 1.241.138 2.135c0 0 .165-1.517-.323-2.045l-.69.404s.676 1.277.218 2.32c0 0 .118-1.599-.364-2.222l-.627.49s.636 1.258.248 2.123c0 0-.05-1.86-.384-2 0-.001-.552.483-.632.682 0 0 .434.912.164 1.395 0 0-.165-1.241-.3-1.241 0 0-.552.827-.604 1.379 0 0 .023-.837.471-1.463-.315.06-.606.21-.837.434 0 0 .084-.58.965-.631 0 0 .453-.623.573-.66 0 0-.883-.075-1.418.162 0 0 .472-.552 1.58-.3l.62-.504s-1.163-.16-1.655.017c0 0 .567-.486 1.821-.138l.675-.403s-.99-.214-1.58-.138c0 0 .621-.336 1.778.028l.481-.217s-.725-.137-.937-.164c-.213-.026-.225-.081-.225-.081.46-.077.932-.024 1.364.152 0 0 1.031-.371 1.015-.436z"/><path id="p3m0bw" d="M638.983 3380.724c0-.385 1.847-.698 4.125-.698 2.279 0 4.126.313 4.126.698 0 .385-1.847.698-4.126.698-2.278 0-4.125-.313-4.125-.698z"/><path id="p3m0bx" d="M653.716 3367.719c0-.218 1.041-.393 2.326-.393 1.285 0 2.326.175 2.326.393 0 .217-1.041.392-2.326.392-1.285 0-2.326-.175-2.326-.392z"/><path id="p3m0by" d="M638.907 3366.82s-3.969-.239-3.501 2.54a.68.68 0 0 0 .353.716s.007-.206.414-.137c.142.024.287.03.431.02a.899.899 0 0 0 .527-.218s1.115-.46 1.55-2.283c0 0 .32-.399.307-.5l-.669.285s.228.484.049.885c0 0-.022-.867-.15-.847-.027 0-.348.167-.348.167s.393.843.096 1.454c0 0 .112-1.037-.22-1.392l-.47.276s.459.87.147 1.579c0 0 .08-1.088-.247-1.517l-.427.332s.431.858.168 1.445c0 0-.034-1.265-.26-1.362 0 0-.374.33-.432.466 0 0 .296.622.113.95 0 0-.113-.844-.205-.848 0 0-.373.552-.414.942.018-.354.13-.697.321-.995-.215.04-.413.143-.57.295 0 0 .057-.395.661-.43 0 0 .31-.424.39-.45 0 0-.6-.05-.965.112 0 0 .322-.373 1.076-.203l.422-.345s-.792-.109-1.127.011c0 0 .386-.33 1.241-.09l.46-.275s-.675-.145-1.076-.093c0 0 .423-.228 1.21.02l.329-.148s-.494-.098-.639-.113c-.145-.015-.153-.055-.153-.055.313-.052.634-.016.928.103 0 0 .696-.253.68-.297z"/><path id="p3m0bz" d="M633.365 3370.318c0-.262 1.258-.475 2.809-.475 1.551 0 2.809.213 2.809.475s-1.258.474-2.81.474c-1.55 0-2.808-.212-2.808-.474z"/><path id="p3m0bA" d="M502 3374.627c0-.386 1.847-.698 4.126-.698 2.278 0 4.125.312 4.125.698 0 .385-1.847.697-4.125.697-2.279 0-4.126-.312-4.126-.697z"/><path id="p3m0bB" d="M503.356 3371.385s2.352-.072 3.062-.578 3.62-1.103 3.796-.298c.176.806 3.537 4.03.88 4.05-2.657.02-6.173-.414-6.882-.845-.709-.432-.856-2.33-.856-2.33z"/><path id="p3m0bC" d="M511.14 3374.278c-2.656.02-6.173-.414-6.88-.845-.54-.329-.754-1.508-.827-2.05h-.079s.15 1.898.856 2.328c.708.43 4.225.867 6.882.845.767 0 1.032-.276 1.018-.69-.106.255-.399.406-.97.412z"/><path id="p3m0bD" d="M592.318 3336.494c.394-1.059-.309-2.174-.309-2.174l-.056-2.424c.31-.641-.759-2.23-.759-2.23s-.253-1.2-.478-1.31c-.225-.11-.477-.613-.477-.613a.37.37 0 0 0-.215-.328c-.4-.724-.743-1.477-1.026-2.254-.157-.43-.297-.889-.207-1.338a2.375 2.375 0 0 1 .127-.403c.008-.023 0-.02.01-.028l.01-.024a1.73 1.73 0 0 0 .166-.716c-.032-.517-.508-.895-.98-1.114-.473-.22-1.004-.361-1.38-.727-.465-.456-.573-1.15-.689-1.792-.116-.643-.276-1.336-.802-1.723-.466-.341-1.103-.348-1.673-.252a5.572 5.572 0 0 0-2.156.86c-.628.421-1.188.98-1.913 1.199-.266.08-.551.111-.81.198a2 2 0 0 0-1.207 1.208c-.01.026-.017.053-.026.079-.01.026-.022.065-.032.098-.01.033-.014.056-.02.084-.005.027-.016.065-.021.098-.006.033-.01.056-.013.084-.003.027-.01.067-.012.1-.003.034 0 .056 0 .083v.105a4.42 4.42 0 0 0-.772.965c-.927 1.47-2.081 3.595-2.594 4.55l-.025.047v-.029s-2.262 2.271-.942 1.965c.091-.021.183-.038.276-.05l-.023.26v.007c-.211.264-1.125 1.18.575 1.858 1.41.563 4.293.706 5.24.74l-.083.398c-1.462 1.198-.9 2.565-.927 3.457-.027.892-.17 1.95-.17 1.95s-.619 1.005-.533 1.534c.085.53-.45 1.394-.45 1.394s-.787.863-.703 1.422c.084.558-.138 1.28-.138 1.28s-.533.977-.309 1.534c.225.557.113.865.113.865s-1.152.166-1.24.78c-.089.614-1.124.836-1.124.836s-1.855.668-2.306.976c-.45.307-2.837 2.536-2.837 2.536s-2.398 2.466-2.525 2.714c-.127.249-1.539 1.317-.885 2.321l.1.15a8.539 8.539 0 0 0 2.594 2.459c.452.276.903.59 1.037.798.295.46 5.228 3.617 5.228 3.617s2.168 1.906 3.563 3.233l.107.639a1.282 1.282 0 0 0-.054.09.387.387 0 0 0 .138.377l.019.113s.563 4.74 1.069 6.955c.335 1.466.096 2.572-.102 3.152-.524-.58-.586-.79-.586-.79-.16.376-.28.768-.359 1.168-.008.06-.014.115-.016.167a.043.043 0 0 0-.038.017l-.197.275c-.215.297-.404.613-.596.924-.442.719-1.83 1.054-1.83 1.054-.117.064-.243.11-.373.138-.39.066-.787.078-1.18.035a1.93 1.93 0 0 0-.35.086 1.35 1.35 0 0 0-.264.121c-.605.392-.385 1.114-.385 1.114l.016.01.015.01.025.015.037.023.032.018.033.02.034.02.043.024.036.02.09.049.043.023.06.03.048.024.065.031.063.03c.036.017.073.034.112.05l.065.03.074.03.072.029.074.029.138.05.07.024.097.033.075.024.113.033.062.016c.056.017.114.03.173.044l.058.013.138.029.035.008h.029c.05.01.099.017.15.025h.044l.199.023h.045c.053 0 .105.009.159.011h.278c.07 0 .138-.002.207-.008h.043l.17-.016.074-.012.149-.024.07-.014c.072-.015.138-.032.217-.051a13.455 13.455 0 0 1 4.826-.414c1.24.105 1.552-.32 1.552-.32a.737.737 0 0 0 .11-.226c0-.018.01-.036.014-.054.004-.018.013-.053.018-.081.006-.028 0-.039.01-.058.01-.02 0-.022 0-.033a3.068 3.068 0 0 0-.043-.796 8.2 8.2 0 0 0-.452-1.516l-.088.06a5.338 5.338 0 0 1-.03-.138c-.303-1.633-.413-5.554-.413-5.969a.743.743 0 0 0 .507-.194c1.054-.856.537-4.767.19-5.31-.348-.543-.414-3.334-.538-4.222-.06-.422-.276-.545-.57-.552a1.231 1.231 0 0 0-.123 0c-.041-.827.08-2.772.174-4.1 0-.086.012-.17.018-.25l.266.014.393-2.344s.226-.855 1.605-3.308 1.517-5.128 1.517-5.128.422-.808.309-1.17a7.727 7.727 0 0 1-.129-.703 9.187 9.187 0 0 1 1.474-.72c1.474-.595 2.58-1.71 3.093-2.263l.082-.089c.126.193.242.392.347.597 0 0 1.21-.837 1.827-1.562a.956.956 0 0 0 .156-.276c.372-.926-.008-2.908-.008-2.908.484-.856-.119-1.638-.119-1.638z"/><path id="p3m0bF" d="M586.233 3342.134c-.056.103-.462.346-.955.613-.046-.36-.079-.631-.086-.715-.029-.308.627-1.685.627-1.685s1.257-1.685 1.228-1.939c-.03-.254.485-.982.485-.982l1.139-1.846a.827.827 0 0 0 .117.865c.343.45.057 1.348.057 1.348l.07 1.134v.113c-.04.04-.223.215-.629.58-.373.337-.307.44-.265.468-.085.151.02.177.02.177a.603.603 0 0 0 .1-.008l-.092.084c-.695.651-1.714 1.61-1.816 1.793z"/><path id="p3m0bH" d="M578.705 3321.24c-.341.356.046.855-.218 1.241-.15.216-.482.353-.669.552-.365.397-.09.904.087 1.356.645 1.647-.323 3.523-2.344 4.55a4.234 4.234 0 0 0 2.778.228c.905-.241 1.601-.805 1.783-1.445.138-.454.02-.936.252-1.37.363-.678 1.473-1.084 1.801-1.768.257-.537-.023-1.116-.35-1.634a12.973 12.973 0 0 0-1.397-1.823c-.317-.346-.317-.483-.827-.39a2.442 2.442 0 0 0-.896.503z"/><path id="p3m0bI" d="M581.723 3326.066c-.041.489-.15.97-.324 1.429-.193.584-.392 1.176-.724 1.695-.332.52-.82.966-1.416 1.124.401.359.944.516 1.475.426.38-.067.763-.259 1.13-.138.168.075.33.162.486.261.54.276 1.241.072 1.633-.393.374-.489.48-1.132.285-1.715-.11-.35-.307-.668-.413-1.02-.15-.522-.091-1.104-.344-1.584-.367-.689-1.379-1.103-2.076-1.378-.035.375.304.852.288 1.293z"/><path id="p3m0bJ" d="M580.767 3324.78c-.041.487-.15.966-.324 1.424-.191.586-.39 1.177-.724 1.696-.333.518-.819.965-1.414 1.124.4.359.943.516 1.474.426.379-.066.762-.26 1.129-.138.169.073.332.16.487.26.54.275 1.24.07 1.632-.394a1.85 1.85 0 0 0 .286-1.715c-.11-.349-.308-.668-.414-1.02-.15-.522-.091-1.104-.343-1.583-.367-.69-1.386-1.104-2.077-1.38-.034.38.305.851.288 1.3z"/><path id="p3m0bK" d="M581.451 3356.941s-.413 5.058-.236 5.735c.178.677.486 9.826.486 9.826s.124 5.333.539 6.453c.415 1.12-2.806.801-2.916.787-.11-.014-.912-2.28-.912-2.28s.788-1.38.29-3.585c-.498-2.207-1.05-6.895-1.05-6.895l-.915-5.522s.124-1.299-.359-2.031c-.482-.732-1.103-5.527-.965-5.942.138-.415 3.423-1.326 3.423-1.326l1.414 1.852z"/><path id="p3m0bL" d="M575.459 3354.545V3354.643l.03.287c.172 1.6.568 3.998.898 4.499.33.5.376 1.267.372 1.7v.138c0 .123-.011.196-.011.196l.702 4.25.03.181.18 1.097s.552 4.699 1.051 6.894a5.82 5.82 0 0 1-.104 3.138c-.05.152-.112.299-.187.44 0 0 .114.32.261.721l.102.276c.02.05.037.098.055.147.214.564.44 1.128.495 1.135.11.014 3.33.331 2.915-.787a3.303 3.303 0 0 1-.124-.5c-.316-1.71-.414-5.953-.414-5.953s-.303-9.148-.484-9.826c-.118-.45.025-2.842.138-4.39.054-.776.101-1.34.101-1.34l-1.202-2.93-1.415-1.851s-2.358.655-3.162 1.103l-.023.013a.543.543 0 0 0-.237.206c-.035.108-.018.51.033 1.058z"/><path id="p3m0bM" d="M577.596 3360.936s1.56.414 1.423.87z"/><path id="p3m0bN" d="M578.426 3377.461s.17.479.363.999c.22.105.389.17.389.17s.6-.559-.194-1.38c-.128-.137-.237-.249-.33-.355a3.05 3.05 0 0 1-.228.566z"/><path id="p3m0bO" d="M577.664 3377.732c.06.33.787.697 1.18.875.149.067.25.107.25.107a.759.759 0 0 0 .168-.265c.09-.242.107-.634-.36-1.118-.11-.114-.206-.216-.29-.31-.527-.585-.589-.795-.589-.795a6.013 6.013 0 0 0-.35 1.158 1.112 1.112 0 0 0-.01.348z"/><path id="p3m0bP" d="M577.664 3377.732c.06.33.787.697 1.18.875.214.564.44 1.128.495 1.135.109.014 3.33.331 2.915-.787a3.303 3.303 0 0 1-.124-.5l-.894.63c-.455.325-1.139.084-1.139.084l-.835-.72-.209-.178a1.24 1.24 0 0 1-.366-.088 1.773 1.773 0 0 1-.719-.577c-.158-.168-.248-.215-.295-.222a1.112 1.112 0 0 0-.01.348z"/><path id="p3m0bQ" d="M572.531 3381.276a5.707 5.707 0 0 0 1.976.791c.598.12 1.214.103 1.804-.051a13.127 13.127 0 0 1 4.739-.414c1.216.104 1.526-.317 1.526-.317.203-.276.196-.755.115-1.24a8.222 8.222 0 0 0-.439-1.505s-.551.387-1.009.711c-.458.324-1.139.084-1.139.084l-1.044-.899c-.663-.048-1.085-.663-1.085-.663-.29-.311-.35-.208-.35-.208l-.199.267c-.212.296-.398.607-.587.917-.434.712-1.793 1.046-1.793 1.046-.115.059-.238.103-.365.13a4.17 4.17 0 0 1-1.162.034 1.543 1.543 0 0 0-.582.198c-.629.385-.406 1.119-.406 1.119z"/><path id="p3m0bR" d="M578.727 3379.024a.108.108 0 1 1 .215 0 .108.108 0 0 1-.215 0z"/><path id="p3m0bS" d="M577.403 3379.588a.108.108 0 1 1 .215 0 .108.108 0 0 1-.215 0z"/><path id="p3m0bT" d="M577.926 3380.39a.108.108 0 1 1 .215 0 .108.108 0 0 1-.215 0z"/><path id="p3m0bU" d="M576.104 3380.119a.108.108 0 1 1 .215 0 .108.108 0 0 1-.215 0z"/><path id="p3m0bV" d="M578.14 3379.373a.108.108 0 1 1 .216 0 .108.108 0 0 1-.215 0z"/><path id="p3m0bW" d="M578.658 3380.334a.108.108 0 1 1 .215 0 .108.108 0 0 1-.215 0z"/><path id="p3m0bX" d="M576.762 3379.902a.108.108 0 1 1 .215 0 .108.108 0 0 1-.215 0z"/><path id="p3m0bY" d="M575.393 3380.283a.108.108 0 1 1 .215 0 .108.108 0 0 1-.215 0z"/><path id="p3m0bZ" d="M572.531 3381.275s1.852 1.273 3.78.74a13.127 13.127 0 0 1 4.739-.413c1.216.104 1.526-.317 1.526-.317a.94.94 0 0 0 .156-.448c0-.032 0-.063.008-.095a3.222 3.222 0 0 0-.05-.69c-.253.19-.777.414-1.84.454-1.838.058-4.263.528-4.263.528l-2.344-.096s-1.313-.284-1.308-.774c-.627.378-.404 1.111-.404 1.111z"/><path id="p3m0ca" d="M575.819 3381.73c.038.008.077.011.117.01.413 0 1.412-.218 2.007-.357.169-.04.34-.065.513-.073.552-.03 1.902-.094 2.663-.088h.018a4.02 4.02 0 0 0 1.595-.386c0-.032 0-.064.008-.096a3.95 3.95 0 0 1-1.621.398c-.761 0-2.118.06-2.667.09a2.987 2.987 0 0 0-.528.074c-.528.124-1.792.406-2.09.347z"/><path id="p3m0cb" d="M576.765 3361.264c0 .123-.012.196-.012.196l.702 4.25c.126.12.247.235.362.347.353.319.68.665.98 1.034.414.643 1.88.312 1.852.25-.028-.062-.629-3.089-.629-3.089l-.476-1.223s-.496.31-.984-.207c-.308-.327-.996-.965-1.463-1.392l-.33-.301-.002.135z"/><path id="p3m0cc" d="M575.46 3354.557v.086l.03.287a4.79 4.79 0 0 0 .302-.122l.138-.063a7.26 7.26 0 0 0 1.284-.794l-1.202-.517-.356-.153a.544.544 0 0 0-.237.206c-.028.108-.011.516.041 1.07z"/><path id="p3m0cd" d="M565.138 3355.608c.033.05.065.1.1.149a8.433 8.433 0 0 0 2.549 2.436c.445.276.888.586 1.02.793.29.455 5.14 3.585 5.14 3.585s2.258 2 3.621 3.32l.174.167.084.083c.1.098.192.19.276.276a6.567 6.567 0 0 1 .376.41c.026.032.05.064.072.097.414.643 1.88.31 1.852.248-.028-.062-.632-3.085-.632-3.085l-.477-1.223a.743.743 0 0 1-.626.04.965.965 0 0 1-.357-.249c-.307-.325-.997-.965-1.464-1.391-.276-.254-.474-.433-.474-.433l-1.556-1.76s-1.99-2.592-3.481-3.234c0 0 1.68-.69 2.88-.872a5.242 5.242 0 0 0 1.333-.322l.138-.065c.454-.22.885-.486 1.284-.794l-1.198-.516-6.32-2.718c-.04 0-.406.025-.675.043l-.286.02s-2.356 2.445-2.482 2.695c-.125.25-1.514 1.3-.871 2.3z"/><path id="p3m0ce" d="M572.103 3354.47s-2.715.333-3.255.893c0 0 2.385.165 2.482.477 0 0-1.362-.923-1.741-.69z"/><path id="p3m0cf" d="M577.742 3366.06l.084.082c.1.098.192.19.276.276.121.123.222.23.3.32l.35-.455a1.454 1.454 0 0 0-.399-.243.69.69 0 0 0-.608.02z"/><path id="p3m0cg" d="M577.914 3367.076c.092.047.187.086.284.117l.276-.364.357-.463a1.43 1.43 0 0 0-.4-.241.69.69 0 0 0-.608.017.884.884 0 0 0-.324.358s-.104.31.416.576z"/><path id="p3m0ch" d="M577.858 3367.018l.056.057c.092.046.187.085.285.117l.275-.364c.026.03.05.063.072.096.414.643 1.88.31 1.852.249-.028-.063-.628-3.086-.628-3.086l-.477-1.223a.743.743 0 0 1-.626.041c-.11.113-.13.255 0 .434.271.413.433.887.47 1.38.187.512-.379 1.14-.704 1.406a1.014 1.014 0 0 1-.175.117.405.405 0 0 0-.159.176c-.1.192-.18.393-.241.6z"/><path id="p3m0ci" d="M578.023 3367.018l.63.632a4.704 4.704 0 0 1 1.902 2.374c.064.188.14.372.225.551.096.248.151.51.164.775.015.162.022.32.027.458.004.177.07.346.188.479l.008.008a.743.743 0 0 0 1.016.087l.035-.03c1.035-.85.528-4.727.186-5.266-.342-.54-.404-3.31-.53-4.187-.057-.413-.275-.54-.56-.551-.283-.011-.657.112-.981.147h-.052c-.644.051-1.878.242-1.447.839.272.412.434.886.47 1.379.23.631-.689 1.44-.88 1.516-.19.076-.4.789-.4.789z"/><path id="p3m0cj" d="M578.749 3366.628a.183.183 0 1 1 .366 0 .183.183 0 0 1-.366 0z"/><path id="p3m0ck" d="M579.029 3367.315a.183.183 0 1 1 .366 0 .183.183 0 0 1-.366 0z"/><path id="p3m0cl" d="M579.889 3368.42a.183.183 0 1 1 .367 0 .183.183 0 0 1-.367 0z"/><path id="p3m0cm" d="M579.463 3367.852a.183.183 0 1 1 .367 0 .183.183 0 0 1-.367 0z"/><path id="p3m0cn" d="M580.246 3369.075a.183.183 0 1 1 .367 0 .183.183 0 0 1-.367 0z"/><path id="p3m0co" d="M581.16 3369.638s.153 1.8 0 2.64c.262.3.713.342 1.025.096.022-.018.034-.03.034-.03 1.036-.85.528-4.728.186-5.267-.342-.539-.404-3.309-.53-4.186-.057-.414-.275-.54-.559-.551-.284-.011-.658.111-.982.147 0 .878.05 2.896.276 3.566.302.866.55 3.585.55 3.585z"/><path id="p3m0cp" d="M581.617 3365.977c.193.68.482 2.544.456 3.54-.02.73.064 2.155.11 2.86l.035-.031c1.035-.85.528-4.727.186-5.266-.342-.539-.404-3.31-.53-4.186-.057-.414-.275-.54-.56-.552.04.897.15 3.097.303 3.635z"/><path id="p3m0cq" d="M580.91 3362.39c.04.708.155 2.594.345 3.133.238.676.489 3.908.5 4.046h-.083c0-.035-.262-3.36-.495-4.025-.195-.551-.31-2.424-.348-3.144z"/><path id="p3m0cr" d="M580.304 3327.563s-1.34.239-2.1.52c-.76.282-.871.435-.871.435l-.788.124v-.843s-2.82.208-3.105.094a.068.068 0 0 1-.018-.011c-.138-.138.083 1.092-.124 1.354-.207.262-1.103 1.17.567 1.842 1.67.673 5.457.742 5.457.742l1.079-2.128z"/><path id="p3m0cs" d="M584.545 3331.627l-2.982-.636a7.225 7.225 0 0 0 .863-2.283c.109-.639.094-1.321-.2-1.918-.858-1.74 2.32-2.654 2.32-2.654s1.162 1.792 2.206 2.7c.35.303.689.505.965.505 1.113.002-3.172 4.286-3.172 4.286z"/><path id="p3m0ct" d="M568.49 3350.862s1.298 3.068 2.482 3.123c.716.033 2.922.337 4.567.572l.147.021c.454-.22.885-.486 1.284-.794l-1.198-.516-6.321-2.718c-.039 0-.405.025-.674.043z"/><path id="p3m0cu" d="M577.775 3353.542c1.128.163-.305 1.3-.305 1.3s.552.413 1.19 1.93c.636 1.517.94 1.409.94 1.409l1.766.096c.054-.776.1-1.34.1-1.34l-1.202-2.928-1.415-1.852s-2.357.655-3.161 1.103l-.024.012a.543.543 0 0 0-.237.207c-.036.116 2.297-.485 2.348.063z"/><path id="p3m0cv" d="M584.545 3331.627l-2.982-.636a7.225 7.225 0 0 0 .863-2.283l.934.9c.453.004.898-.126 1.278-.373.164-.11.311-.246.435-.4a75.757 75.757 0 0 0 1.463-1.907s.094-.043.222-.09c.35.302.69.505.966.505 1.106 0-3.179 4.284-3.179 4.284z"/><path id="p3m0cw" d="M568.49 3350.61s1.298 3.068 2.482 3.124c1.184.057 6.494.856 6.494.856s.552.414 1.189 1.93c.637 1.518.94 1.411.94 1.411l2.045.11.388-2.32s.22-.858 1.574-3.29 1.492-5.084 1.492-5.084.414-.802.305-1.16c-.109-.36-.47-3.208-.498-3.511-.027-.304.608-1.655.608-1.655s1.216-1.655 1.189-1.907c-.028-.252.47-.965.47-.965l1.103-1.819a.827.827 0 0 0 .115.851c.33.443.053 1.326.053 1.326l.068 1.116.015.267s-.165.166-.618.58c-.452.416-.238.47-.238.47 1.41-.193 2.515 2.101 2.515 2.101s1.188-.827 1.792-1.548a.956.956 0 0 0 .153-.266c.367-.92-.008-2.885-.008-2.885.479-.856-.117-1.631-.117-1.631.387-1.05-.303-2.155-.303-2.155l-.056-2.405c.304-.634-.747-2.206-.747-2.206s-.248-1.189-.47-1.3c-.222-.11-.469-.607-.469-.607.028-.552-1.438-.608-1.575-.636a2.679 2.679 0 0 1-.5-.292 4.342 4.342 0 0 0-.44-.26c-.25-.111-.913.194-.913.194s-.8 1.077-1.464 1.907a1.92 1.92 0 0 1-.434.4c-.38.245-.823.373-1.275.369l-.951-.917-2.807.171-.654 3.233c-1.438 1.188-.885 2.543-.913 3.427-.027.884-.165 1.93-.165 1.93s-.608.996-.525 1.517c.082.521-.443 1.379-.443 1.379s-.774.856-.69 1.41c.085.552-.137 1.27-.137 1.27s-.524.966-.304 1.517c.22.552.11.858.11.858s-1.133.165-1.216.773c-.082.608-1.103.828-1.103.828s-1.823.663-2.267.965c-.444.302-2.8 2.529-2.8 2.529z"/><path id="p3m0cx" d="M591.704 3337.097s-2.068.25-2.322.551c-.253.302 2.069.333 2.069.333z"/><path id="p3m0cy" d="M588.636 3338.743s1.517-.539 1.561-.373c.044.165-1.56 1.078-1.56 1.078z"/><path id="p3m0cz" d="M588 3335.8c-.263.414-2.438 3.09-2.438 3.09l2.344-3.422z"/><path id="p3m0cA" d="M587.682 3335.067c-.165.22-1.92 3.096-1.92 3.096l1.769-3.234z"/><path id="p3m0cB" d="M591.353 3331.627s-.677-.954-1.34-.346c-.664.608 1.34.346 1.34.346z"/><path id="p3m0cC" d="M586.62 3330.81s-1.729 0-2.571.388c-.842.388.746-1.16 2.57-.387z"/><path id="p3m0cD" d="M584.636 3329.513h.256s.594-.22.746-.678c.151-.458 1.347-.04 1.347-.04s.172.13.02-.083c-.151-.212.526-.884.828-1.326a.372.372 0 0 0 .052-.112 4.143 4.143 0 0 0-.44-.262c-.25-.11-.913.194-.913.194s-.8 1.079-1.464 1.907a1.92 1.92 0 0 1-.432.4z"/><path id="p3m0cE" d="M584.636 3329.346h.256s.594-.22.746-.678c.151-.458 1.347-.04 1.347-.04s.172.13.02-.083c-.151-.212.526-.884.828-1.326a.377.377 0 0 0 .052-.113 4.347 4.347 0 0 0-.44-.261c-.25-.11-.913.194-.913.194s-.8 1.077-1.464 1.907c-.122.155-.268.29-.432.4z"/><path id="p3m0cF" d="M582.414 3331.078a.183.183 0 1 1 .366 0 .183.183 0 0 1-.366 0z"/><path id="p3m0cG" d="M579.262 3335.366a.183.183 0 1 1 .366 0 .183.183 0 0 1-.366 0z"/><path id="p3m0cH" d="M580.4 3332.66a.183.183 0 1 1 .366 0 .183.183 0 0 1-.367 0z"/><path id="p3m0cI" d="M578.753 3338.154a.183.183 0 1 1 .367 0 .183.183 0 0 1-.367 0z"/><path id="p3m0cJ" d="M576.417 3342.964a.183.183 0 1 1 .367 0 .183.183 0 0 1-.367 0z"/><path id="p3m0cK" d="M576.234 3345.428a.183.183 0 1 1 .366 0 .183.183 0 0 1-.366 0z"/><path id="p3m0cL" d="M573.74 3327.563l.373 1.203 1.175-.083 1.049-1.12s.069-.2.177-.5c.264-.74.765-2.085 1.04-2.499.387-.579.636-2.983.636-2.983s-.424-.966-1.636.965c-.912 1.456-2.047 3.563-2.55 4.514-.163.316-.263.503-.263.503z"/><path id="p3m0cM" d="M578.943 3344.395c0 .295 1.241.433 1.827.483l.3.02c-.137.312.595 2.69.595 2.69a1.38 1.38 0 0 0 .185-.024c.965-.195 2.87-1.525 2.87-1.525s.04-.457 2.01-1.256c1.449-.592 2.534-1.698 3.04-2.247.096-.115.2-.224.31-.325l-1.748-1.805s-.283.262-.655.614c-.681.644-1.664 1.585-1.764 1.767-.151.276-2.887 1.614-2.887 1.614-.608-.526-1.92-.636-1.92-.636s-2.163.243-2.163.63z"/><path id="p3m0cN" d="M582.183 3338.163c-.082.165-3.827 2.653-4.463 2.694-.636.041.594-1.189.636-1.202.041-.014 3.827-1.492 3.827-1.492z"/><path id="p3m0cO" d="M561.983 3377.655l-.138-.032z"/><path id="p3m0cP" d="M572.91 3380.165c.178-.105.376-.172.581-.198.387.043.779.03 1.162-.036-.091.332-.12.679-.085 1.022l-.352-.014s-1.312-.285-1.307-.774z"/><path id="p3m0cQ" d="M562.071 3377.673l-.074-.016z"/><path id="p3m0cR" d="M561.997 3377.657h-.017z"/><path id="p3m0cS" d="M580.944 3371.345c.015.161.022.32.027.458.004.176.07.346.188.478l.008.008c.045-.325.065-.654.06-.983-.028.043-.152.047-.283.039z"/><path id="p3m0cT" d="M587.677 3341.014c.9-.056 1.668.879 2.086 1.517.096-.115.2-.224.31-.325l-1.741-1.8s-.288.257-.655.608z"/><path id="p3m0cU" d="M587.669 3340.774c1.41-.193 2.515 2.102 2.515 2.102s1.188-.828 1.792-1.549a.965.965 0 0 0 .153-.267c-.328-.789-1.234-2.103-3.624-1.603l.016.268s-.166.165-.618.58c-.452.413-.234.47-.234.47z"/><path id="p3m0cV" d="M587.669 3340.94c1.41-.193 2.515 2.101 2.515 2.101s1.188-.827 1.792-1.548a.956.956 0 0 0 .153-.266c-.328-.79-1.234-2.105-3.624-1.604l.016.267s-.166.166-.618.581c-.452.415-.234.469-.234.469z"/><path id="p3m0cW" d="M573.74 3327.563l.373 1.203 1.175-.083 1.049-1.12s.069-.2.177-.5c-.15.084-1.164.647-1.78.677-.489.025-.67-.433-.73-.677-.163.313-.263.5-.263.5z"/><path id="p3m0cX" d="M573.374 3327.985l.077-.09c.276-.32.524-.566.524-.566.028.215.11.42.239.594.124.16.32.247.52.232a3.31 3.31 0 0 0 1.032-.305c.414-.184.766-.383.766-.383v.332l.006.331v.76s.29 2.017-2.39.94c0 0 .166-.74-.853-.6z"/><path id="p3m0cY" d="M576.531 3327.219l.014.663v.76s.29 2.017-2.39.94c0 0 .194-.858-1.104-.551-1.297.306.928-1.95.928-1.95s.094.859.76.827c.666-.032 1.792-.69 1.792-.69z"/><path id="p3m0cZ" d="M581.644 3348.333c-.027-.041-.138-3.344-.566-3.426-.43-.083-1.492.358-1.492.358l.193 2.64z"/><path id="p3m0da" d="M581.064 3344.898c-.138.312.594 2.69.594 2.69.062-.004.124-.012.185-.024-.068-.983-.211-2.682-.517-2.74-.19-.019-.38 0-.563.054z"/><path id="p3m0db" d="M581.81 3348.25c-.028-.04-.138-3.343-.567-3.427-.429-.084-1.492.36-1.492.36l.193 2.639z"/><path id="p3m0dc" d="M577.978 3328.632c.334-.518.532-1.11.724-1.696a8.14 8.14 0 0 0 .248-.859 3.42 3.42 0 0 0 2.344 1.456c.103.215.195.435.276.66a1.848 1.848 0 0 1-.283 1.713c-.386.466-1.092.665-1.632.393a3.366 3.366 0 0 0-.487-.26c-.367-.115-.75.077-1.13.139a1.766 1.766 0 0 1-1.473-.428c.6-.153 1.086-.6 1.413-1.118z"/><path id="p3m0dd" d="M578.383 3324.36a3.426 3.426 0 1 1 6.853 0 3.426 3.426 0 0 1-6.853 0z"/><path id="p3m0de" d="M578.383 3324.137a3.426 3.426 0 1 1 6.853 0 3.426 3.426 0 0 1-6.853 0z"/><path id="p3m0df" d="M579.274 3323.067c-.403-.276-.996-.057-1.42-.3a1.06 1.06 0 0 1-.428-.562c-.37-.979.214-2.206 1.207-2.538.26-.087.535-.117.797-.197.713-.218 1.263-.771 1.88-1.189a5.434 5.434 0 0 1 2.12-.852c.562-.097 1.186-.09 1.645.25.517.383.682 1.072.789 1.708.106.635.213 1.322.67 1.776.365.361.886.503 1.352.72.466.219.934.592.966 1.104.023.401-.23.765-.308 1.16-.088.445.048.901.203 1.327a15.911 15.911 0 0 0 1.707 3.39 9.238 9.238 0 0 1-2.714 1c-.391.08-.804.13-1.183.008-.48-.153-.838-.567-1.07-1.015a3.375 3.375 0 0 1-.361-1.28c-.068-.89.21-1.843-.184-2.643a.913.913 0 0 0-.346-.399c-.173-.102-.384-.114-.576-.175-.33-.103-.597-.347-.85-.584l-.914-.85a2.57 2.57 0 0 0-.71-.522c-.485-.206-1.057-.088-1.516.17-.404.226-.87.565-1.279.347"/><path id="p3m0dg" d="M578.998 3322.99l-.242-.07a.58.58 0 0 0 .242.07z"/><path id="p3m0dh" d="M578.998 3322.99l.276.077a.7.7 0 0 0-.156-.081.876.876 0 0 1-.12.004z"/><path id="p3m0di" d="M587.848 3329.418c-.392.077-.803.128-1.183.007-.48-.155-.839-.567-1.07-1.016a3.376 3.376 0 0 1-.362-1.28c-.067-.89.211-1.842-.182-2.643a.925.925 0 0 0-.337-.399c-.174-.102-.384-.114-.577-.173-.33-.105-.597-.35-.85-.585l-.913-.848a2.57 2.57 0 0 0-.71-.523c-.486-.205-1.058-.088-1.517.17-.288.161-.607.38-.916.414.055.02.108.048.156.081l-.276-.077a.58.58 0 0 1-.242-.07l.242.07a.58.58 0 0 0 .12 0c-.389-.15-.89 0-1.264-.218a1.059 1.059 0 0 1-.43-.564 1.809 1.809 0 0 1-.093-.893 1.912 1.912 0 0 0-.018 1.334c.075.232.227.43.43.563.373.215.876.069 1.265.22.307-.034.627-.252.916-.415.46-.257 1.032-.375 1.516-.17.265.133.506.31.71.523l.913.85c.254.237.52.481.851.584.192.061.403.073.576.175a.913.913 0 0 1 .337.399c.394.8.116 1.754.183 2.643.035.447.157.881.361 1.28.232.448.59.862 1.07 1.015.38.122.792.071 1.182-.007a9.238 9.238 0 0 0 2.715-1.001 12.827 12.827 0 0 1-.186-.288 9.275 9.275 0 0 1-2.417.842z"/><path id="p3m0dj" d="M588.845 3323.118a4.048 4.048 0 0 0-.193.582 1.41 1.41 0 0 0-.018.13c.102-.227.173-.466.21-.712z"/><path id="p3m0dk" d="M581.31 3329.643c-.387.464-1.093.663-1.633.391a3.438 3.438 0 0 0-.487-.259c-.367-.116-.75.076-1.13.138a1.773 1.773 0 0 1-1.27-.276 2.088 2.088 0 0 1-.203.068c.4.359.943.515 1.474.426.379-.068.762-.26 1.129-.138.169.074.331.161.487.26.54.276 1.24.072 1.632-.392.274-.347.408-.783.374-1.223a1.706 1.706 0 0 1-.374 1.005z"/><linearGradient id="p3m0bE" x1="578.72" x2="578.72" y1="3382.32" y2="3316.99" gradientUnits="userSpaceOnUse"><stop offset="0" stop-color="gray" stop-opacity=".25"/><stop offset=".54" stop-color="gray" stop-opacity=".12"/><stop offset="1" stop-color="gray" stop-opacity=".1"/></linearGradient><linearGradient id="p3m0bG" x1="585.19" x2="588.96" y1="3339.16" y2="3339.16" gradientUnits="userSpaceOnUse"><stop offset="0" stop-color="gray" stop-opacity=".25"/><stop offset=".54" stop-color="gray" stop-opacity=".12"/><stop offset="1" stop-color="gray" stop-opacity=".1"/></linearGradient></defs><g><g transform="translate(-502 -3272)"><g opacity=".1"><use fill="#2c308e" xlink:href="#p3m0a"/></g><g opacity=".1"><use fill="#2c308e" xlink:href="#p3m0b"/></g><g opacity=".1"><use fill="#2c308e" xlink:href="#p3m0c"/></g><g opacity=".1"><use fill="#2c308e" xlink:href="#p3m0d"/></g><g opacity=".1"><use fill="#2c308e" xlink:href="#p3m0e"/></g><g opacity=".1"><use fill="#2c308e" xlink:href="#p3m0f"/></g><g opacity=".1"><use fill="#2c308e" xlink:href="#p3m0g"/></g><g opacity=".1"><use fill="#2c308e" xlink:href="#p3m0h"/></g><g opacity=".1"><use fill="#2c308e" xlink:href="#p3m0i"/></g><g opacity=".1"><use fill="#2c308e" xlink:href="#p3m0j"/></g><g opacity=".1"><use fill="#2c308e" xlink:href="#p3m0k"/></g><g opacity=".1"><use fill="#2c308e" xlink:href="#p3m0l"/></g><g opacity=".1"><use fill="#2c308e" xlink:href="#p3m0m"/></g><g opacity=".1"><use fill="#2c308e" xlink:href="#p3m0n"/></g><g opacity=".1"><use fill="#2c308e" xlink:href="#p3m0o"/></g><g opacity=".1"><use fill="#2c308e" xlink:href="#p3m0p"/></g><g opacity=".1"><use fill="#2c308e" xlink:href="#p3m0q"/></g><g opacity=".1"><use fill="#2c308e" xlink:href="#p3m0r"/></g><g opacity=".1"><use fill="#2c308e" xlink:href="#p3m0s"/></g><g opacity=".1"><use fill="#2c308e" xlink:href="#p3m0t"/></g><g opacity=".1"><use fill="#2c308e" xlink:href="#p3m0u"/></g><g opacity=".1"><use fill="#2c308e" xlink:href="#p3m0v"/></g><g opacity=".1"><use fill="#2c308e" xlink:href="#p3m0w"/></g><g opacity=".1"><use fill="#2c308e" xlink:href="#p3m0x"/></g><g opacity=".1"><use fill="#2c308e" xlink:href="#p3m0y"/></g><g opacity=".1"><use fill="#2c308e" xlink:href="#p3m0z"/></g><g opacity=".1"><use fill="#2c308e" xlink:href="#p3m0A"/></g><g opacity=".1"><use fill="#2c308e" xlink:href="#p3m0B"/></g><g opacity=".1"><use fill="#2c308e" xlink:href="#p3m0C"/></g><g opacity=".1"><use fill="#2c308e" xlink:href="#p3m0D"/></g><g opacity=".1"><use fill="#2c308e" xlink:href="#p3m0E"/></g><g opacity=".1"><use fill="#2c308e" xlink:href="#p3m0F"/></g><g opacity=".1"><use fill="#2c308e" xlink:href="#p3m0G"/></g><g opacity=".1"><use fill="#2c308e" xlink:href="#p3m0H"/></g><g opacity=".1"><use fill="#2c308e" xlink:href="#p3m0I"/></g><g opacity=".1"><use fill="#2c308e" xlink:href="#p3m0J"/></g><g opacity=".1"><use fill="#2c308e" xlink:href="#p3m0K"/></g><g opacity=".1"><use fill="#2c308e" xlink:href="#p3m0L"/></g><g opacity=".1"><use fill="#2c308e" xlink:href="#p3m0M"/></g><g opacity=".1"><use fill="#2c308e" xlink:href="#p3m0N"/></g><g opacity=".1"><use fill="#2c308e" xlink:href="#p3m0O"/></g><g opacity=".1"><use fill="#2c308e" xlink:href="#p3m0P"/></g><g opacity=".1"><use fill="#2c308e" xlink:href="#p3m0Q"/></g><g opacity=".1"><use fill="#2c308e" xlink:href="#p3m0R"/></g><g opacity=".1"><use fill="#2c308e" xlink:href="#p3m0S"/></g><g><use fill="#2c308e" xlink:href="#p3m0T"/></g><g opacity=".2"><use xlink:href="#p3m0T"/></g><g><use fill="#636780" xlink:href="#p3m0U"/></g><g opacity=".2"><use xlink:href="#p3m0U"/></g><g><use fill="#636780" xlink:href="#p3m0V"/></g><g><use fill="#2c308e" xlink:href="#p3m0W"/></g><g opacity=".4"><use xlink:href="#p3m0W"/></g><g><use fill="#2c308e" xlink:href="#p3m0X"/></g><g><use fill="#2c308e" xlink:href="#p3m0Y"/></g><g><use fill="#636780" xlink:href="#p3m0Z"/></g><g opacity=".2"><use xlink:href="#p3m0Z"/></g><g><use fill="#2c308e" xlink:href="#p3m0aa"/></g><g opacity=".2"><use fill="#fff" xlink:href="#p3m0aa"/></g><g><use fill="#2c308e" xlink:href="#p3m0ab"/></g><g opacity=".2"><use fill="#fff" xlink:href="#p3m0ab"/></g><g><use fill="#2c308e" xlink:href="#p3m0ac"/></g><g opacity=".2"><use fill="#fff" xlink:href="#p3m0ac"/></g><g opacity=".1"><use fill="#fff" xlink:href="#p3m0ad"/></g><g><use fill="#2c308e" xlink:href="#p3m0ae"/></g><g opacity=".1"><use xlink:href="#p3m0af"/></g><g><use fill="#dce0ed" xlink:href="#p3m0ag"/></g><g opacity=".1"><use xlink:href="#p3m0ah"/></g><g><use fill="#f0f0f4" xlink:href="#p3m0ai"/></g><g opacity=".2"><use xlink:href="#p3m0aj"/></g><g opacity=".1"><use xlink:href="#p3m0ak"/></g><g><use fill="#f0f0f4" xlink:href="#p3m0al"/></g><g opacity=".1"><use xlink:href="#p3m0am"/></g><g opacity=".1"><use xlink:href="#p3m0an"/></g><g><use fill="#2c308e" xlink:href="#p3m0ao"/></g><g opacity=".2"><use xlink:href="#p3m0ao"/></g><g/><g opacity=".1"><use xlink:href="#p3m0ap"/></g><g><use fill="#2c308e" xlink:href="#p3m0aq"/></g><g opacity=".2"><use xlink:href="#p3m0aq"/></g><g/><g opacity=".2"><use xlink:href="#p3m0ar"/></g><g><use fill="#2c308e" xlink:href="#p3m0as"/></g><g opacity=".1"><use xlink:href="#p3m0at"/></g><g><use fill="#2c308e" xlink:href="#p3m0au"/></g><g opacity=".2"><use xlink:href="#p3m0au"/></g><g opacity=".2"><use xlink:href="#p3m0av"/></g><g opacity=".2"><use xlink:href="#p3m0aw"/></g><g opacity=".2"><use xlink:href="#p3m0ax"/></g><g opacity=".2"><use xlink:href="#p3m0ay"/></g><g opacity=".1"><use xlink:href="#p3m0az"/></g><g><use fill="#dce0ed" xlink:href="#p3m0aA"/></g><g opacity=".1"><use xlink:href="#p3m0aB"/></g><g><use fill="#f0f0f4" xlink:href="#p3m0aC"/></g><g opacity=".1"><use xlink:href="#p3m0aD"/></g><g><use fill="#f0f0f4" xlink:href="#p3m0aE"/></g><g opacity=".1"><use xlink:href="#p3m0aF"/></g><g><use fill="#636780" xlink:href="#p3m0aG"/></g><g><use fill="#f0f0f4" xlink:href="#p3m0aH"/></g><g><use fill="#f0f0f4" xlink:href="#p3m0aI"/></g><g><use fill="#f0f0f4" xlink:href="#p3m0aJ"/></g><g opacity=".1"><use xlink:href="#p3m0aK"/></g><g><use fill="#f0f0f4" xlink:href="#p3m0aL"/></g><g opacity=".1"><use xlink:href="#p3m0aM"/></g><g><use fill="#636780" xlink:href="#p3m0aN"/></g><g opacity=".1"><use xlink:href="#p3m0aO"/></g><g><use fill="#f0f0f4" xlink:href="#p3m0aP"/></g><g opacity=".1"><use xlink:href="#p3m0aQ"/></g><g><use fill="#f0f0f4" xlink:href="#p3m0aR"/></g><g><use fill="#f0f0f4" xlink:href="#p3m0aS"/></g><g><use fill="#636780" xlink:href="#p3m0aT"/></g><g><use fill="#2c308e" xlink:href="#p3m0aU"/></g><g><use fill="#2c308e" xlink:href="#p3m0aV"/></g><g><use fill="#f0f0f4" xlink:href="#p3m0aW"/></g><g><use fill="#636780" xlink:href="#p3m0aX"/></g><g opacity=".2"><use xlink:href="#p3m0aX"/></g><g><use fill="#636780" xlink:href="#p3m0aY"/></g><g><use fill="#f0f0f4" xlink:href="#p3m0aZ"/></g><g><use fill="#636780" xlink:href="#p3m0ba"/></g><g><use fill="#f0f0f4" xlink:href="#p3m0bb"/></g><g><use fill="#636780" xlink:href="#p3m0bc"/></g><g><use fill="#f0f0f4" xlink:href="#p3m0bd"/></g><g><use fill="#636780" xlink:href="#p3m0be"/></g><g><use fill="#f0f0f4" xlink:href="#p3m0bf"/></g><g><use fill="#636780" xlink:href="#p3m0bg"/></g><g/><g opacity=".2"><use xlink:href="#p3m0bh"/></g><g opacity=".1"><use xlink:href="#p3m0bi"/></g><g><use fill="#fff" xlink:href="#p3m0bj"/></g><g opacity=".1"><use xlink:href="#p3m0bk"/></g><g opacity=".1"><use xlink:href="#p3m0bl"/></g><g opacity=".1"><use xlink:href="#p3m0bm"/></g><g><use fill="#2c308e" xlink:href="#p3m0bn"/></g><g opacity=".2"><use xlink:href="#p3m0bn"/></g><g><use fill="#2c308e" xlink:href="#p3m0bo"/></g><g opacity=".2"><use xlink:href="#p3m0bo"/></g><g opacity=".1"><use xlink:href="#p3m0bp"/></g><g opacity=".1"><use xlink:href="#p3m0bq"/></g><g opacity=".1"><use xlink:href="#p3m0br"/></g><g><use fill="#dce0ed" xlink:href="#p3m0bs"/></g><g opacity=".1"><use xlink:href="#p3m0bt"/></g><g><use fill="#f0f0f4" xlink:href="#p3m0bu"/></g><g><use fill="#2c308e" xlink:href="#p3m0bv"/></g><g opacity=".1"><use fill="#2c308e" xlink:href="#p3m0bw"/></g><g opacity=".1"><use fill="#2c308e" xlink:href="#p3m0bx"/></g><g><use fill="#2c308e" xlink:href="#p3m0by"/></g><g opacity=".1"><use fill="#2c308e" xlink:href="#p3m0bz"/></g><g opacity=".1"><use fill="#2c308e" xlink:href="#p3m0bA"/></g><g><use fill="#a8a8a8" xlink:href="#p3m0bB"/></g><g opacity=".2"><use xlink:href="#p3m0bC"/></g><g><use fill="url(#p3m0bE)" xlink:href="#p3m0bD"/></g><g opacity=".1"><g opacity=".1"><use fill="url(#p3m0bG)" xlink:href="#p3m0bF"/></g></g><g><use fill="#985c7e" xlink:href="#p3m0bH"/></g><g><use fill="#985c7e" xlink:href="#p3m0bI"/></g><g opacity=".1"><use xlink:href="#p3m0bJ"/></g><g><use fill="#ecb4b6" xlink:href="#p3m0bK"/></g><g opacity=".07"><use xlink:href="#p3m0bL"/></g><g opacity=".05"><use xlink:href="#p3m0bM"/></g><g opacity=".1"><use xlink:href="#p3m0bN"/></g><g><use fill="#cc8294" xlink:href="#p3m0bO"/></g><g opacity=".1"><use xlink:href="#p3m0bP"/></g><g><use fill="#cc8294" xlink:href="#p3m0bQ"/></g><g><use fill="#4b4b5b" xlink:href="#p3m0bR"/></g><g><use fill="#4b4b5b" xlink:href="#p3m0bS"/></g><g><use fill="#4b4b5b" xlink:href="#p3m0bT"/></g><g><use fill="#4b4b5b" xlink:href="#p3m0bU"/></g><g><use fill="#4b4b5b" xlink:href="#p3m0bV"/></g><g><use fill="#4b4b5b" xlink:href="#p3m0bW"/></g><g><use fill="#4b4b5b" xlink:href="#p3m0bX"/></g><g><use fill="#4b4b5b" xlink:href="#p3m0bY"/></g><g opacity=".1"><use xlink:href="#p3m0bZ"/></g><g><use fill="#cc8294" xlink:href="#p3m0ca"/></g><g opacity=".03"><use xlink:href="#p3m0cb"/></g><g opacity=".05"><use xlink:href="#p3m0cc"/></g><g><use fill="#ecb4b6" xlink:href="#p3m0cd"/></g><g opacity=".03"><use xlink:href="#p3m0ce"/></g><g opacity=".05"><use xlink:href="#p3m0cf"/></g><g><use fill="#cc8294" xlink:href="#p3m0cg"/></g><g opacity=".05"><use xlink:href="#p3m0ch"/></g><g><use fill="#cc8294" xlink:href="#p3m0ci"/></g><g><use fill="#4b4b5b" xlink:href="#p3m0cj"/></g><g><use fill="#4b4b5b" xlink:href="#p3m0ck"/></g><g><use fill="#4b4b5b" xlink:href="#p3m0cl"/></g><g><use fill="#4b4b5b" xlink:href="#p3m0cm"/></g><g><use fill="#4b4b5b" xlink:href="#p3m0cn"/></g><g opacity=".1"><use xlink:href="#p3m0co"/></g><g opacity=".1"><use xlink:href="#p3m0cp"/></g><g><use fill="#cc8294" xlink:href="#p3m0cq"/></g><g><use fill="#ff718d" xlink:href="#p3m0cr"/></g><g><use fill="#ecb4b6" xlink:href="#p3m0cs"/></g><g opacity=".1"><use xlink:href="#p3m0ct"/></g><g opacity=".1"><use xlink:href="#p3m0cu"/></g><g opacity=".1"><use xlink:href="#p3m0cv"/></g><g><use fill="#ff718d" xlink:href="#p3m0cw"/></g><g opacity=".1"><use xlink:href="#p3m0cx"/></g><g opacity=".1"><use xlink:href="#p3m0cy"/></g><g opacity=".1"><use xlink:href="#p3m0cz"/></g><g opacity=".1"><use xlink:href="#p3m0cA"/></g><g opacity=".1"><use xlink:href="#p3m0cB"/></g><g opacity=".1"><use xlink:href="#p3m0cC"/></g><g opacity=".1"><use xlink:href="#p3m0cD"/></g><g><use fill="#ff718d" xlink:href="#p3m0cE"/></g><g><use fill="#e7c7ca" xlink:href="#p3m0cF"/></g><g><use fill="#e7c7ca" xlink:href="#p3m0cG"/></g><g><use fill="#e7c7ca" xlink:href="#p3m0cH"/></g><g><use fill="#e7c7ca" xlink:href="#p3m0cI"/></g><g><use fill="#e7c7ca" xlink:href="#p3m0cJ"/></g><g><use fill="#e7c7ca" xlink:href="#p3m0cK"/></g><g><use fill="#ecb4b6" xlink:href="#p3m0cL"/></g><g><use fill="#ecb4b6" xlink:href="#p3m0cM"/></g><g opacity=".1"><use xlink:href="#p3m0cN"/></g><g opacity=".1"><use xlink:href="#p3m0cO"/></g><g opacity=".3"><use fill="#fff" xlink:href="#p3m0cP"/></g><g opacity=".1"><use xlink:href="#p3m0cQ"/></g><g opacity=".1"/><g opacity=".1"/><g opacity=".1"><use xlink:href="#p3m0cR"/></g><g opacity=".3"><use fill="#fff" xlink:href="#p3m0cS"/></g><g opacity=".1"><use xlink:href="#p3m0cT"/></g><g opacity=".1"><use xlink:href="#p3m0cU"/></g><g><use fill="#ff718d" xlink:href="#p3m0cV"/></g><g opacity=".1"><use fill="#fff" xlink:href="#p3m0cV"/></g><g opacity=".1"><use xlink:href="#p3m0cW"/></g><g opacity=".1"><use xlink:href="#p3m0cX"/></g><g><use fill="#ff718d" xlink:href="#p3m0cY"/></g><g opacity=".1"><use fill="#fff" xlink:href="#p3m0cY"/></g><g opacity=".1"><use xlink:href="#p3m0cZ"/></g><g opacity=".1"><use xlink:href="#p3m0da"/></g><g><use fill="#ff718d" xlink:href="#p3m0db"/></g><g opacity=".1"><use fill="#fff" xlink:href="#p3m0db"/></g><g><use fill="#985c7e" xlink:href="#p3m0dc"/></g><g opacity=".1"><use xlink:href="#p3m0dd"/></g><g><use fill="#ecb4b6" xlink:href="#p3m0de"/></g><g><use fill="#985c7e" xlink:href="#p3m0df"/></g><g opacity=".1"><g opacity=".1"><use xlink:href="#p3m0dg"/></g><g opacity=".1"><use xlink:href="#p3m0dh"/></g><g opacity=".1"><use xlink:href="#p3m0di"/></g><g opacity=".1"><use xlink:href="#p3m0dj"/></g></g><g opacity=".1"><use xlink:href="#p3m0dk"/></g></g></g></svg>