<svg xmlns="http://www.w3.org/2000/svg" xmlns:xlink="http://www.w3.org/1999/xlink" width="153" height="112" viewBox="0 0 153 112"><defs><path id="3irra" d="M895.033 3316.948c3.21 7.25-.886 15.602-5.7 21.898-1.613 2.107-3.388 4.313-3.614 6.965-.27 3.235 1.92 6.21 4.52 8.154 4.74 3.542 11.216 4.638 16.857 2.85 4.875-1.54 8.974-5.032 13.89-6.44 8.23-2.355 16.945 1.55 23.986 6.413 4.983 3.441 10.32 7.625 16.327 6.89 4.23-.517 7.82-3.486 10.253-6.982 1.175-1.695 2.198-3.579 3.911-4.718 1.018-.678 2.213-1.037 3.41-1.293 10.921-2.333 22.51 3.363 33.286.433 7.278-1.98 13.082-7.733 16.69-14.355 3.607-6.622 5.292-14.102 6.696-21.512.996-5.267 1.823-10.95-.462-15.795-2.425-5.126-8.037-8.233-13.676-8.814-5.639-.58-11.297 1.029-16.492 3.3-6.493 2.838-12.856 6.812-19.943 6.826-4.826.01-9.427-1.848-14.042-3.255-7.73-2.36-15.74-3.535-23.739-4.617-7.654-1.037-15.382-2.003-23.082-1.387-5.448.433-10.259 2.516-15.545 3.478-3.446.629-6.909.154-10.29 1.219-4.159 1.301-8.447 4.322-8.677 9.074-.217 4.518 3.733 7.819 5.436 11.668z"/><path id="3irrb" d="M991.501 3300.221c-.77.222-1.727.795-2.195 2.368-.924 3.08 1.214 5.188.513 8.387a6.256 6.256 0 0 1-1.078 2.352c-.858 1.163-1.792 1.715-2.694 2.53a8.038 8.038 0 0 0-2.368 3.887 10.76 10.76 0 0 0-.106 5.054c.322 1.396.87 2.411 1.348 3.543a26.163 26.163 0 0 1 1.386 4.467c.182.743.286 1.502.308 2.266.016.96-.134 2.003-.28 3.032l-1.305 9.105c-.174 1.212-.35 2.444-.356 3.598-.009 1.332.205 2.477.418 3.594.462 2.409.95 4.909 2.002 6.18 1.052 1.27 2.836.83 3.934-1.764 1.045-2.465 1.066-5.761 1.987-8.398 1.451-4.16 4.338-4.714 5.938-8.677 1.54-3.802 1.066-8.472 1.849-12.804.558-3.107 1.745-5.94 2.45-9.01 1.011-4.423.911-9.013.102-12.411-.808-3.398-2.26-5.732-3.861-7.502-.68-.75-1.405-1.417-2.259-1.483-.907-.07-1.694 1.078-2.595 1.415-1.044.39-2.086-.027-3.138.271z"/><path id="3irrc" d="M996.413 3298.75s-1.54 39.323-7.999 62.511"/><path id="3irrd" d="M989.266 3302.781s6.898 6.287 5.596 18.265"/><path id="3irre" d="M983.471 3320.668s11.337 2.28 10.496 9.06"/><path id="3irrf" d="M1003.368 3307.426s-4.586 4.015-8.674 15.39"/><path id="3irrg" d="M998.884 3341.802s-3.13 2.464-5.642-6.132"/><path id="3irrh" d="M985.381 3346.816s6.384-.834 6.972-4.832"/><path id="3irri" d="M1006.93 3273.847c-1.58.235-3.48.966-4.261 3.226-1.533 4.43 3.128 7.783 2.055 12.412-.322 1.386-1.116 2.514-1.952 3.337-1.639 1.61-3.504 2.31-5.276 3.404-1.771 1.093-3.61 2.81-4.44 5.445-.8 2.535-.453 5.337.377 7.43.83 2.094 2.087 3.654 3.21 5.376a36.422 36.422 0 0 1 3.412 6.733c.402 1.037.77 2.13.9 3.372.146 1.416-.038 2.94-.22 4.43l-1.62 13.247c-.215 1.764-.433 3.559-.308 5.258.14 1.96.72 3.67 1.29 5.34 1.233 3.601 2.552 7.343 4.873 9.338 2.321 1.994 5.969 1.559 7.931-2.132 1.869-3.514 1.525-8.358 3.118-12.132 2.51-5.947 8.418-6.428 11.26-12.073 2.728-5.416 1.202-12.345 2.297-18.639.785-4.51 2.91-8.541 4.005-12.979 1.57-6.394.82-13.164-1.259-18.264-2.08-5.1-5.357-8.709-8.881-11.505-1.495-1.184-3.081-2.255-4.85-2.452-1.885-.21-3.388 1.377-5.204 1.776-2.11.473-4.313-.265-6.456.052z"/><path id="3irrj" d="M1016.922 3272.26s1.486 57.727-9.144 91.108"/><path id="3irrk" d="M1002.607 3277.35s15.037 10.077 13.75 27.56"/><path id="3irrl" d="M992.737 3303.005s23.733 4.701 22.797 14.586"/><path id="3irrm" d="M1032.344 3285.862s-9.02 5.37-16.126 21.635"/><path id="3irrn" d="M1027.14 3335.953s-6.186 3.256-12.404-9.704"/><path id="3irro" d="M999.78 3341.737s13.112-.471 13.862-6.288"/><path id="3irrp" d="M893.326 3362.075c0-3.495 29.494-6.328 65.877-6.328 36.383 0 65.876 2.833 65.876 6.328 0 3.494-29.493 6.327-65.876 6.327-36.383 0-65.877-2.833-65.877-6.327z"/><path id="3irrq" d="M894.36 3354.542s1.29 1.695-.596 4.236c-1.887 2.542-3.443 4.701-2.807 6.29 0 0 2.847-4.734 5.164-4.8 2.316-.067.788-2.88-1.761-5.726z"/><path id="3irrr" d="M894.36 3354.542c.112.163.201.342.263.53 2.262 2.656 3.465 5.134 1.293 5.197-2.024.059-4.452 3.677-5.034 4.592.02.07.042.14.07.208 0 0 2.846-4.734 5.162-4.8 2.317-.066.795-2.88-1.754-5.727z"/><path id="3irrs" d="M896.76 3356.694c0 .595-.066 1.078-.154 1.078s-.154-.482-.154-1.078c0-.596.083-.308.165-.308.081 0 .143-.287.143.308z"/><path id="3irrt" d="M897.58 3357.403c-.521.285-.976.462-1.014.383-.039-.078.351-.362.873-.645.522-.284.316-.077.356 0 .04.077.31-.025-.214.262z"/><path id="3irru" d="M887.54 3354.542s-1.29 1.695.597 4.236c1.887 2.542 3.436 4.701 2.82 6.29 0 0-2.846-4.734-5.163-4.8-2.317-.067-.8-2.88 1.747-5.726z"/><path id="3irrv" d="M887.54 3354.542a2.091 2.091 0 0 0-.263.53c-2.26 2.656-3.464 5.134-1.292 5.197 2.024.059 4.452 3.677 5.034 4.592-.02.07-.042.14-.07.208 0 0-2.846-4.734-5.163-4.8-2.316-.066-.793-2.88 1.755-5.727z"/><path id="3irrw" d="M885.142 3356.694c0 .595.067 1.078.155 1.078.087 0 .154-.482.154-1.078 0-.596-.084-.308-.165-.308-.082 0-.144-.287-.144.308z"/><path id="3irrx" d="M884.318 3357.403c.523.285.977.462 1.016.383.038-.078-.352-.362-.874-.645-.522-.284-.316-.077-.356 0-.04.077-.308-.025.214.262z"/><path id="3irry" d="M885.552 3364.847s3.61-.11 4.697-.886c1.087-.774 5.545-1.694 5.82-.462.277 1.233 5.424 6.179 1.35 6.211-4.074.032-9.467-.635-10.553-1.295-1.086-.661-1.314-3.568-1.314-3.568z"/><path id="3irrz" d="M897.493 3369.285c-4.074.032-9.467-.635-10.553-1.295-.827-.504-1.157-2.311-1.266-3.144h-.12s.228 2.911 1.314 3.572c1.086.66 6.478 1.33 10.559 1.297 1.177-.01 1.582-.428 1.56-1.048-.174.375-.619.609-1.494.618z"/><path id="3irrA" d="M932.527 3341.47s18.06-11.538 30.547-11.538c0 0 15.032-2.341 31.383 1.616 16.351 3.957 22.39 9.088 26.924 7.581l-19.045.558z"/><path id="3irrB" d="M1017.655 3359.13H907.507l3.028-12.133 18.731-4.98 88.389 2.323z"/><path id="3irrC" d="M1023.453 3351.55v3.872s-3.27 2.372-3.568 4.23c0 0-4.682 1.189-6.02 1.189-.121 0-.253 0-.392.014a11.352 11.352 0 1 0-21.057.587h-6.35s-.058.02-.153.061c-.34.154-1.143.56-1.259 1.2h-52.62l-1.078-.01c.229-.384.435-.782.616-1.191.338-.759.59-1.553.749-2.368a11.362 11.362 0 1 0-22.5-2.234 11.326 11.326 0 0 0 1.565 5.756c-.752-.183-2.393-.703-2.393-.703s-6.985-.743-8.769-2.31l.27-.187 1.143-.781-.521-2.003a1.233 1.233 0 0 1-.154-.274c-.139-.334-.26-.955.23-1.734.742-1.19.37-5.425.37-5.425s10.109-6.986 30.027-8.548c0 0 .476.37 1.459.447.665.054 1.563-.028 2.705-.447 0 0 1.634.743 8.626-3.27 0 0 11.893-8.176 27.501-7.43 0 0 16.054-.968 29.729 4.312 5.893 2.274 10.377 3.486 13.574 4.127 2.951.593 4.804.702 5.653.712h.544s0 1.77.093 3.86v.01c.034.728.08 1.493.145 2.237v.046c.179 2.072.487 3.954 1.022 4.327z"/><path id="3irrD" d="M903.17 3349.07s4.477-3.494 10.052-2.75c0 0-5.073 4.014-7.359 3.754l-.39-.335-2.31.13s-.345-.54.006-.8z"/><path id="3irrE" d="M907.516 3355.114v2.062s-.154 1.97-1.933 2.044l-5.083.251 1.141-.78-.52-2.003a1.192 1.192 0 0 1-.154-.273c.462-.425 1.55-1.143 3.766-1.297z"/><path id="3irrF" d="M931.17 3346.47l3.902-.155s-1.58 1.245-2.694 1.357c-1.116.113-1.208-1.203-1.208-1.203z"/><path id="3irrG" d="M939.383 3358.305s35.285-4.906 43.814-3.345c0 0 2.508.168 3.457 1.17.949 1.003 0 .353 0 .353z"/><path id="3irrH" d="M959.135 3344.536s.447-.836 1.17-.855l4.702-.242s-.074.65-.91.892z"/><path id="3irrI" d="M986.338 3343.124s.447-.837 1.17-.855l4.702-.248s-.074.65-.91.891z"/><path id="3irrJ" d="M970.286 3331.663l-3.608 9.461-13.006.014H942.039s1.737-1.275 4.536-2.9a62.16 62.16 0 0 1 3.112-1.695 58.885 58.885 0 0 1 3.36-1.593 49.841 49.841 0 0 1 2.892-1.163c4.512-1.65 9.583-2.757 14.347-2.124z"/><path id="3irrK" d="M990.723 3338.572s-5.434.805-10.62 1.401c-1.983.228-3.928.426-5.521.535l-.222.015c-.616.04-1.188.067-1.673.076-.77.014-1.346-.02-1.634-.113l1.499-9.05s1.848.02 4.582.155l.598.032c.568.032 1.167.07 1.793.113.893.061 1.834.135 2.805.224 4.686.43 9.994 1.202 13.355 2.591 7.152 2.961-4.962 4.02-4.962 4.02z"/><path id="3irrL" d="M1015.77 3343.124v2.415s-3.902.055-3.066-.724a11.954 11.954 0 0 0 1.468-1.695z"/><path id="3irrM" d="M1021.615 3345.292l-3.168.248v-2.903s1.468-2.063 2.936.223l.084.134z"/><path id="3irrN" d="M912.116 3356.9a9.068 9.068 0 1 1 18.136 0 9.068 9.068 0 0 1-18.136 0z"/><path id="3irrO" d="M928.457 3356.893a7.298 7.298 0 1 1-14.596.025 7.298 7.298 0 0 1 14.596-.025z"/><path id="3irrP" d="M914.92 3356.891c0-3.461 2.8-6.268 6.253-6.268 3.453 0 6.252 2.807 6.252 6.268 0 3.462-2.799 6.268-6.252 6.268s-6.252-2.806-6.252-6.268z"/><path id="3irrQ" d="M923.265 3349.895v.265l-2.081 6.89-1.67-7.27a7.315 7.315 0 0 1 3.75.115z"/><path id="3irrR" d="M923.25 3363.894a7.317 7.317 0 0 1-3.668.126l1.6-6.97z"/><path id="3irrS" d="M928.457 3356.893a7.313 7.313 0 0 1-.348 2.24h-.029l-6.89-2.082 7.126-1.635c.097.486.144.98.141 1.477z"/><path id="3irrT" d="M921.184 3357.05l-6.89 2.08h-.054a7.375 7.375 0 0 1-.199-3.72z"/><path id="3irrU" d="M920.374 3356.891a.8.8 0 1 1 1.598 0 .8.8 0 0 1-1.598 0z"/><path id="3irrV" d="M993.704 3356.9a9.068 9.068 0 1 1 18.136 0 9.068 9.068 0 0 1-18.136 0z"/><path id="3irrW" d="M1010.047 3356.893a7.298 7.298 0 1 1-14.596.025 7.298 7.298 0 0 1 14.596-.025z"/><path id="3irrX" d="M996.51 3356.891c0-3.461 2.8-6.268 6.253-6.268 3.453 0 6.252 2.807 6.252 6.268 0 3.462-2.8 6.268-6.252 6.268-3.453 0-6.253-2.806-6.253-6.268z"/><path id="3irrY" d="M1004.853 3349.895v.265l-2.081 6.89-1.67-7.27a7.315 7.315 0 0 1 3.751.115z"/><path id="3irrZ" d="M1004.84 3363.894a7.317 7.317 0 0 1-3.668.126l1.6-6.97z"/><path id="3irraa" d="M1010.047 3356.893a7.317 7.317 0 0 1-.348 2.24h-.035l-6.892-2.083 7.126-1.636c.1.487.15.982.15 1.479z"/><path id="3irrab" d="M1002.772 3357.05l-6.89 2.08h-.054a7.376 7.376 0 0 1-.199-3.72z"/><path id="3irrac" d="M1001.963 3356.891a.8.8 0 1 1 1.6 0 .8.8 0 0 1-1.6 0z"/><path id="3irrad" d="M949.688 3336.552l-2.278 4.592h-2.519l1.684-2.897a65.706 65.706 0 0 1 3.113-1.695z"/><path id="3irrae" d="M955.939 3333.797l-2.269 7.343h-3.349l2.727-6.183c.93-.404 1.897-.792 2.89-1.16z"/><path id="3irraf" d="M979.528 3331.743l-4.943 8.767-.222.015c-.616.04-1.187.066-1.673.075l4.447-9 .598.032c.56.031 1.164.068 1.793.111z"/><path id="3irrag" d="M942.125 3341.113l-2.822 19.438 23.57-.516 3.868-18.837z"/><path id="3irrah" d="M985.914 3361.497c-.34.154-1.143.56-1.258 1.2h-52.622l-1.078-.01c.229-.384.435-.782.616-1.192z"/><path id="3irrai" d="M940.42 3375.543c.359-.334.696-.728.8-1.207.106-.48-.1-1.055-.558-1.232-.513-.198-1.063.154-1.48.519-.415.365-.893.77-1.436.693.57-.517.826-1.295.676-2.049a.856.856 0 0 0-.188-.416c-.285-.308-.802-.174-1.143.066-1.078.77-1.386 2.239-1.394 3.566-.11-.479-.017-.978-.02-1.47-.003-.49-.137-1.034-.551-1.3a1.661 1.661 0 0 0-.841-.196c-.489-.019-1.032.03-1.365.388-.415.443-.308 1.187.054 1.676.362.488.909.795 1.412 1.132.405.24.75.57 1.01.963.03.054.055.112.075.172h3.059a8.528 8.528 0 0 0 1.89-1.305z"/><path id="3irraj" d="M1004.359 3378.134c.282-.23.488-.54.59-.89.077-.354-.074-.778-.413-.907-.38-.145-.784.117-1.09.383-.307.267-.66.569-1.062.512.42-.381.61-.955.499-1.511a.632.632 0 0 0-.139-.308c-.21-.225-.591-.128-.844.049-.8.564-1.024 1.651-1.029 2.63-.08-.352-.012-.72-.015-1.078-.003-.357-.102-.77-.407-.958a1.232 1.232 0 0 0-.616-.146c-.36-.014-.76.023-1.007.287-.308.326-.227.876.04 1.232.266.356.67.585 1.042.835.3.177.554.42.746.71.023.04.041.082.056.126h2.256a6.29 6.29 0 0 0 1.393-.966z"/><path id="3irrak" d="M1014.37 3383.034c.283-.23.489-.54.59-.89.078-.354-.073-.778-.412-.907-.379-.145-.784.117-1.09.383-.307.267-.66.569-1.062.512.42-.381.61-.955.5-1.511a.632.632 0 0 0-.14-.309c-.21-.224-.59-.127-.843.05-.801.564-1.025 1.651-1.03 2.63-.08-.352-.012-.72-.015-1.078-.003-.357-.102-.77-.407-.958a1.233 1.233 0 0 0-.616-.146c-.36-.014-.76.023-1.007.286-.308.327-.226.877.04 1.233.266.356.67.585 1.043.835.299.177.553.42.745.71.023.04.042.082.056.126h2.256a6.29 6.29 0 0 0 1.393-.966z"/><path id="3irral" d="M958.414 3370.739c-.18.309-.342.627-.485.955-.556.108-1.314.168-1.716-.176a1.001 1.001 0 0 0-.644-.226l.01-.018c.277-.532.512-1.723.697-2.955.897 0 1.749-.75 1.749-.75l1.129.387.041.078.028.051.045.083.027.053.045.081.03.053.044.08.03.052.042.079.03.052.044.079.03.05.044.077.028.05.045.077.027.048.043.075.028.048.045.075.026.043.045.074.026.043.045.074.023.039.046.075.017.028c.08.131.154.256.23.373l.01.017.043.068.019.029.038.061.022.033.035.055.022.036.032.05.023.036.031.048.022.033.027.044.022.034.026.04.022.033.024.037.022.033a9.923 9.923 0 0 1-2.334.106zm4.846-26.024a.52.52 0 0 0 .54-.06l.192-.154a.513.513 0 0 0 .13-.66l.115-.112a17.023 17.023 0 0 0 2.329-.565c.029.695.224 1.373.57 1.977.068.387.195.761.376 1.11-.352-.03-.734-.05-1.099-.047a5.734 5.734 0 0 0-.953.06c-1.174.196-1.322 2.34-1.322 2.34s-2.358.829-3.775.858c-.18 0-.358-.026-.53-.078l-.143-.01.192-.527s-.083.027-.22.054c.044-.066.09-.134.139-.203.896-1.286 2.449-2.944 3.46-3.98zm.34 8.626l-2.239 3.364c-.804-1.386-1.642-2.662-2.4-3.506 1.987.066 4.278.137 4.64.142zm21.823 19.396s-.538.293-.783-1.365c-.154-1.078-.602-3.3-.896-4.744l-.037-.183c.084-.027.167-.058.248-.093 0 0-1.713-6.623-1.322-8.09.392-1.466 0-4.094 0-4.094l-1.027-3.46s-2.545-.878-3.523-1.121c-.978-.244-3.718-1.95-3.718-1.95.047.054.09.111.132.17l-.11-.066c-.2-.186-.38-.393-.538-.616.546-.581.9-1.317 1.013-2.107a4.375 4.375 0 0 0-.218-4.45c.166-.208.293-.445.374-.7.032-.115.047-.236.041-.357a.95.95 0 0 0-.536-.944.935.935 0 0 0-.736.008c-.217.098-.388.283-.625.333-.396.081-.735-.236-1.046-.472a3.147 3.147 0 0 0-1.662-.616 1.615 1.615 0 0 0-.77.102 3.1 3.1 0 0 0-.638.479c-.706.568-1.695.727-2.58 1.036-.17.059-.358.154-.388.309a.224.224 0 0 0 0 .092.228.228 0 0 0 .009.117c-1.651.277-3.267 1.531-3.267 1.531l-.271.251a.518.518 0 0 0-.566.048l-.545.428a.513.513 0 0 0-.123.669l-3.988 3.697-.086.08v-.014s-3.081 2.34-3.081 3.995c0 1.197.924 1.935 1.428 2.254a3.821 3.821 0 0 0-.995 1.54v.427l-.013.068v.028l-.007.046v.095l-.011.062-.014.077v.015l-.01.065v.03l-.013.072v.018l-.014.08v.036l-.035.201-.019.11v.018l-.02.113v.015l-.02.114v.01l-.022.12v.026l-.021.118v.026l-.02.118v.013l-.023.133v.025l-.053.295-.026.154v.023l-.026.154v.011l-.057.308v.026l-.028.155v.021l-.06.325v.014l-.03.165v.014l-.062.335v.022l-.031.166v.013l-.065.343v.019l-.032.17v.011l-.066.349v.013l-.033.17v.014l-.281.348v.015l-.034.168v.01l-.07.341v.01l-.034.166v.01l-.067.326v.014l-.033.154v.014l-.066.308v.01l-.032.154v.016l-.065.291v.008l-.03.137v.014l-.064.268-.03.126v.01l-.06.243-.03.11v.013l-.028.106c-.123.462-.23.77-.308.843a.865.865 0 0 0-.18.283l-.012.03-.013.035-.01.034-.051.046-.011.035-.01.033-.009.037v.033l-.007.037v.034c0 .025-.004.05-.013.074v1.213l.462.14s.233.128.592.294c-.05 1.554-.194 3.658-.584 4.946-.869.045-3.014.136-3.402-.02-.49-.196-3.622-.682-2.642 1.559.41.94 1.301 1.648 2.198 2.156a2.736 2.736 0 0 1-.339.088c-.798.154-1.02.42-.989.695-.057.462.729.978.793 1.01.099.05 3.425.586 4.209.34.784-.244 3.963-.828 3.963-.828v-.097s-.043-.958-.163-1.867c.36-.052.753-.1 1.135-.13.1.468.409.862.838 1.071 2.104 1.078 2.79-.39 2.79-.39s2.844.547 4.434.155c.167.154.308.263.408.337.516.371 1.906.625 3.46.644.414.04.83.029 1.242-.036a11.496 11.496 0 0 0 2.033-.319c1.871-.485 2.283-2.225 2.372-3.016.074-.021.126-.098.154-.243a.7.7 0 0 0 .065-.251c.04-.358.108-.712.2-1.06l2.31.13a94.834 94.834 0 0 0 1.944 3.362l1.565-.195a9.04 9.04 0 0 1-1.81-1.95c-.782-1.17-.782-6.778-.782-6.778l.088-3.415v-.13c.145 1.013 1.292 3.948 1.422 3.992.093.03.186.058.277.084l.083.22c.653 1.73 2.31 6.16 2.428 6.86.154.878 6.263 1.218 7.632.78 1.37-.44-5.177-1.561-5.177-1.561z"/><path id="3irran" d="M990.058 3374.02c-1.336.43-7.298.095-7.442-.77-.114-.689-1.73-5.022-2.367-6.716l-.256-.678 3.1-.668s.115.543.272 1.318c.286 1.414.72 3.597.873 4.644.24 1.622.77 1.336.77 1.336s6.38 1.104 5.05 1.534z"/><path id="3irrao" d="M973.212 3345.871s-.238 1.431 1.814 2.773c2.051 1.342.286 6.154.286 6.154l-1.517.085a3.73 3.73 0 0 1-3.922-3.377s.858-1.386-.716-4.961z"/><path id="3irrap" d="M964.346 3344.11s-2.953 2.88-4.325 4.864c-.163.23-.311.47-.445.718-1.002 1.908-3.33-1.194-2.525-2.266l.556-.52 5.354-4.99s3.674-2.862 5.533-.81c1.86 2.051-4.148 3.005-4.148 3.005z"/><path id="3irraq" d="M966.612 3343.371a4.293 4.293 0 1 1 8.586 0 4.293 4.293 0 0 1-8.586 0z"/><path id="3irrar" d="M953.424 3371.3s-3.197.19-3.674 0c-.478-.191-3.53-.667-2.57 1.528.96 2.195 4.58 3.1 4.58 3.1l2.619-.668z"/><path id="3irras" d="M964.824 3361.904l6.415 2.606 3.65 7.75s.047 2.72-2.337 3.34c-2.385.621-5.724.335-6.584-.286-.86-.62-4.388-4.293-4.388-4.293z"/><path id="3irrat" d="M964.388 3361.904l5.553 2.08 3.159 6.204s.042 2.176-2.022 2.672c-2.065.496-4.956.267-5.7-.23-.744-.495-3.798-3.436-3.798-3.436z"/><path id="3irrau" d="M958.861 3371.3s-1.67.573-2.337 0c-.667-.573-1.86.143-1.86.143l.526 3.1s2.385-.525 3.674-.381z"/><path id="3irrav" d="M959.811 3367.962l-1.523-.525s-1.67 1.478-2.773.238c-1.103-1.24 1.002-6.392 1.002-6.392l2.24-3.626 1.623 5.105 1.479 2.48z"/><path id="3irraw" d="M974.363 3367.675l3.435.476.669 3.149-4.246-.239z"/><path id="3irrax" d="M969.546 3350.408s1.431 5.485 6.008 1.526l1.24 15.741s-1.527 2.432-1.765 4.621c-.24 2.19-4.389-6.777-6.869-6.82-2.48-.043-4.937-3.506-4.937-3.506l2.791-5.749z"/><path id="3irray" d="M969.594 3350.265s1.431 5.485 6.008 1.526l1.24 15.741s-1.527 2.432-1.766 4.621c-.238 2.189-4.388-6.778-6.868-6.82-2.48-.044-4.937-3.506-4.937-3.506l2.791-5.75z"/><path id="3irraz" d="M968.83 3346.734s-2.002-.334-3.148-.143c-1.146.19-1.288 2.289-1.288 2.289s-3.244 1.144-4.34.77c0 0-5.392-.382-5.392 1.24 0 1.622 1.719 2.375 1.719 2.375s7.485.253 7.537.239c1.717-.478-.048 0-.048 0l-3.1 4.675 2.861 3.959 3.053-2.242s.382-2.099 1.387-3.148c.715-.75 1.65-4.127 2.125-5.995a3.065 3.065 0 0 0-.346-2.34z"/><path id="3irraA" d="M960.02 3348.974c-.162.23-.31.47-.444.718-1.002 1.908-3.33-1.194-2.525-2.266l.556-.52c-.203 2.462 1.8 2.2 2.414 2.068z"/><path id="3irraB" d="M963.87 3353.318h-.054s1.772-.478.054 0z"/><path id="3irraC" d="M968.687 3346.734s-2.002-.334-3.149-.143c-1.146.19-1.287 2.289-1.287 2.289s-3.244 1.144-4.341.77l.191-.525s-2.908.905-2.575-2.152c0 0-3.006 2.289-3.006 3.91 0 1.623 1.718 2.382 1.718 2.382s7.484.253 7.537.239c1.717-.478-.048 0-.048 0l-3.1 4.675 2.861 3.959 3.053-2.242s.382-2.099 1.387-3.148c.714-.75 1.65-4.127 2.125-5.995a3.065 3.065 0 0 0-.346-2.34z"/><path id="3irraD" d="M978.514 3362.238v.262a.57.57 0 0 1 0-.262z"/><path id="3irraE" d="M983.365 3366.512a5.451 5.451 0 0 1-3.116.028l-.256-.678 3.1-.668.272 1.318z"/><path id="3irraF" d="M974.078 3347.926s2.671 1.67 3.626 1.909c.955.239 3.435 1.097 3.435 1.097l1.001 3.388s.382 2.576 0 4.005c-.382 1.43-3.958 4.15-3.767 3.72l-.096 3.768s0 5.485.77 6.624c.77 1.138-1.455-1.122-1.455-1.122s-2.696-3.983-3.029-6.511c-.332-2.528.19-12.25.19-12.25l-.478-.669s.995-2.575-.197-3.959z"/><path id="3irraG" d="M974.221 3347.926s2.671 1.67 3.626 1.909c.955.239 3.435 1.097 3.435 1.097l1.002 3.388s.382 2.576 0 4.005c-.382 1.43 1.287 7.92 1.287 7.92s-1.54.71-3.673 0c-.144-.048-1.575-3.768-1.387-4.198l-.095 3.768s0 5.485.77 6.623a8.835 8.835 0 0 0 1.765 1.909l-1.526.19s-4.393-7.196-4.728-9.72c-.334-2.522.191-12.259.191-12.259l-.477-.668s1.003-2.58-.19-3.964z"/><path id="3irraH" d="M961.198 3370.825s-3.197-4.62-3.053-6.777c0 0-.382 2.957-.81 3.148-.429.191-4.723-1.146-4.723-1.146s-.191-1.386.286-1.86c.478-.475 1.956-9.303 1.956-9.303s.526-2.384 2.815-2.528c2.289-.143 7.441 11.496 7.441 11.496s.763 6.97-3.912 6.97z"/><path id="3irraI" d="M953.662 3364.527s.096 6.677-1.096 7.776c-1.193 1.098 3.482 1.67 3.482 1.67s-.81-1.623-.143-2.91c.667-1.288 1.097-6.536 1.097-6.536z"/><path id="3irraJ" d="M953.9 3372.212s-.478-1.193-1.766-.24c0 0-1.144 2.672-3.148 3.054-2.004.382-.287 1.526-.191 1.574.095.048 3.34.573 4.102.334.762-.238 3.863-.81 3.863-.81s-.143-3.148-.616-3.389c-.473-.24-.24 1.428-2.245-.523z"/><path id="3irraK" d="M953.9 3372.302s-.478-1.192-1.766-.238c0 0-1.144 2.67-3.148 3.053-2.004.382-.287 1.526-.191 1.574.095.048 3.34.573 4.102.334.762-.239 3.864-.809 3.864-.809s-.143-3.148-.616-3.388c-.473-.24-.241 1.43-2.246-.526z"/><path id="3irraL" d="M962.881 3342.329c.403.625.837 1.23 1.3 1.813a.504.504 0 0 1-.072.724l-.186.146a.504.504 0 0 1-.718-.1 5.689 5.689 0 0 0-1.54-1.459.503.503 0 0 1-.047-.822l.532-.42a.504.504 0 0 1 .731.118z"/><path id="3irraM" d="M973.766 3347.566c-.617-.867-.5-1.554-.5-1.554l-4.058.674c.282.63.513 1.28.693 1.946a3.814 3.814 0 0 0 3.865-1.066z"/><path id="3irraN" d="M967.114 3344.826a3.815 3.815 0 1 1 7.631 0 3.815 3.815 0 0 1-7.63 0z"/><path id="3irraO" d="M969.25 3342.837c.361-.06.682-.271 1.047-.29.462-.023.88.273 1.204.578.325.305.64.653 1.088.786.285.067.58.086.871.058a.81.81 0 0 0 .463-.117.583.583 0 0 0 .154-.236c.251-.58.246-1.24-.014-1.816a.308.308 0 0 1-.043-.197.3.3 0 0 1 .066-.11c.308-.363.633-.726.758-1.167.125-.44-.028-.983-.482-1.178a.907.907 0 0 0-.718 0c-.213.097-.378.277-.616.325-.387.08-.718-.231-1.02-.462a3.06 3.06 0 0 0-1.619-.604 1.568 1.568 0 0 0-.756.1 3.022 3.022 0 0 0-.616.462c-.689.556-1.653.712-2.516 1.015-.165.059-.348.145-.379.308-.03.164.154.328.34.4.184.07.397.116.52.26.154.184.104.446.132.679.057.462.462.713.91.847.372.119.859.42 1.227.359z"/><path id="3irraP" d="M969.25 3342.741c.361-.06.682-.27 1.047-.29.462-.022.88.274 1.204.579.325.305.641.653 1.088.785.285.067.58.087.872.059a.81.81 0 0 0 .462-.117.583.583 0 0 0 .154-.236c.252-.58.246-1.24-.014-1.816a.308.308 0 0 1-.043-.197.3.3 0 0 1 .066-.11c.308-.363.633-.727.758-1.167.125-.44-.028-.983-.482-1.179a.907.907 0 0 0-.718 0c-.213.097-.378.278-.616.325-.387.08-.718-.23-1.02-.462a3.06 3.06 0 0 0-1.597-.591 1.568 1.568 0 0 0-.757.1 3.023 3.023 0 0 0-.616.462c-.688.556-1.653.712-2.515 1.015-.165.059-.348.145-.38.308-.03.163.155.328.34.4.185.07.397.116.52.26.154.184.105.446.133.679.057.462.462.713.91.847.35.106.837.408 1.205.347z"/><path id="3irraQ" d="M966.172 3361.096s2.724.463 3.405 1.934c.681 1.47 4.775 5.45 4.775 5.45"/><path id="3irraR" d="M957.43 3366.864c-.43.19-4.723-1.145-4.723-1.145a4.558 4.558 0 0 1 .014-1.25c-.246.595-.11 1.584-.11 1.584s4.294 1.336 4.723 1.145c.142-.063.28-.43.4-.894-.096.298-.198.516-.304.56z"/><path id="3irraS" d="M954.944 3354.595a2.82 2.82 0 0 0-.09.295s-1.035 6.182-1.652 8.472c.571-1.859 1.65-8.218 1.742-8.767z"/><path id="3irraT" d="M961.293 3370.49s-3.196-4.622-3.053-6.778c0 0-.034.268-.094.647.145 2.255 3.052 6.466 3.052 6.466 2.222 0 3.216-1.574 3.646-3.227-.475 1.522-1.477 2.891-3.55 2.891z"/><path id="3irraU" d="M953.06 3366.19s2.914 1.605 3.965.841c1.05-.764.382-1.956.382-1.956l-.812-1.335h-2.719l-.905 1.574z"/><path id="3irraV" d="M972.934 3372.493s.19-3.815-4.675-3.767c-4.866.047-.191 0-.191 0s-1.909-.573-4.293.77c-2.385 1.343-5.105 1.049-5.105 1.049s-2.195 3.626-.143 4.675c2.051 1.049 2.718-.39 2.718-.39s4.198.81 5.153-.286a4.897 4.897 0 0 0 5.294 1.056s2.386-1.056 1.242-3.107z"/><linearGradient id="3irram" x1="968.62" x2="968.62" y1="3377.43" y2="3337.82" gradientUnits="userSpaceOnUse"><stop offset="0" stop-color="gray" stop-opacity=".25"/><stop offset=".54" stop-color="gray" stop-opacity=".12"/><stop offset="1" stop-color="gray" stop-opacity=".1"/></linearGradient></defs><g><g transform="translate(-884 -3272)"><g opacity=".1"><use fill="#2c308e" xlink:href="#3irra"/></g><g opacity=".5"><g opacity=".5"><use fill="#2c308e" xlink:href="#3irrb"/></g><g opacity=".5"><use fill="#fff" fill-opacity="0" stroke="#535461" stroke-miterlimit="50" stroke-width="2" xlink:href="#3irrc"/></g><g opacity=".5"><use fill="#fff" fill-opacity="0" stroke="#535461" stroke-miterlimit="50" stroke-width="2" xlink:href="#3irrd"/></g><g opacity=".5"><use fill="#fff" fill-opacity="0" stroke="#535461" stroke-miterlimit="50" stroke-width="2" xlink:href="#3irre"/></g><g opacity=".5"><use fill="#fff" fill-opacity="0" stroke="#535461" stroke-miterlimit="50" stroke-width="2" xlink:href="#3irrf"/></g><g opacity=".5"><use fill="#fff" fill-opacity="0" stroke="#535461" stroke-miterlimit="50" stroke-width="2" xlink:href="#3irrg"/></g><g opacity=".5"><use fill="#fff" fill-opacity="0" stroke="#535461" stroke-miterlimit="50" stroke-width="2" xlink:href="#3irrh"/></g></g><g><use fill="#2c308e" xlink:href="#3irri"/></g><g><use fill="#fff" fill-opacity="0" stroke="#535461" stroke-miterlimit="50" stroke-width="2" xlink:href="#3irrj"/></g><g><use fill="#fff" fill-opacity="0" stroke="#535461" stroke-miterlimit="50" stroke-width="2" xlink:href="#3irrk"/></g><g><use fill="#fff" fill-opacity="0" stroke="#535461" stroke-miterlimit="50" stroke-width="2" xlink:href="#3irrl"/></g><g><use fill="#fff" fill-opacity="0" stroke="#535461" stroke-miterlimit="50" stroke-width="2" xlink:href="#3irrm"/></g><g><use fill="#fff" fill-opacity="0" stroke="#535461" stroke-miterlimit="50" stroke-width="2" xlink:href="#3irrn"/></g><g><use fill="#fff" fill-opacity="0" stroke="#535461" stroke-miterlimit="50" stroke-width="2" xlink:href="#3irro"/></g><g opacity=".1"><use fill="#2c308e" xlink:href="#3irrp"/></g><g><use fill="#2c308e" xlink:href="#3irrq"/></g><g opacity=".1"><use xlink:href="#3irrr"/></g><g><use fill="#ffd037" xlink:href="#3irrs"/></g><g><use fill="#ffd037" xlink:href="#3irrt"/></g><g><use fill="#2c308e" xlink:href="#3irru"/></g><g opacity=".1"><use xlink:href="#3irrv"/></g><g><use fill="#ffd037" xlink:href="#3irrw"/></g><g><use fill="#ffd037" xlink:href="#3irrx"/></g><g><use fill="#a8a8a8" xlink:href="#3irry"/></g><g opacity=".2"><use xlink:href="#3irrz"/></g><g><use fill="#8cd0f3" xlink:href="#3irrA"/></g><g opacity=".1"><use fill="#8cd0f3" xlink:href="#3irrA"/></g><g><use fill="#121c3f" xlink:href="#3irrB"/></g><g><use fill="#2856b8" xlink:href="#3irrC"/></g><g><use fill="#8cd0f3" xlink:href="#3irrD"/></g><g opacity=".2"><use fill="#fff" xlink:href="#3irrE"/></g><g opacity=".2"><use fill="#fff" xlink:href="#3irrF"/></g><g opacity=".2"><use fill="#fff" xlink:href="#3irrG"/></g><g opacity=".5"><use fill="#18218a" xlink:href="#3irrH"/></g><g opacity=".5"><use fill="#18218a" xlink:href="#3irrI"/></g><g><use fill="#8cd0f3" xlink:href="#3irrJ"/></g><g><use fill="#8cd0f3" xlink:href="#3irrK"/></g><g><use fill="#8cd0f3" xlink:href="#3irrL"/></g><g><use fill="#8cd0f3" xlink:href="#3irrM"/></g><g><use fill="#182a7c" xlink:href="#3irrN"/></g><g><use fill="#3f8ffe" xlink:href="#3irrO"/></g><g opacity=".5"><use fill="#18218a" xlink:href="#3irrP"/></g><g><use fill="#3f8ffe" xlink:href="#3irrQ"/></g><g><use fill="#3f8ffe" xlink:href="#3irrR"/></g><g><use fill="#3f8ffe" xlink:href="#3irrS"/></g><g><use fill="#3f8ffe" xlink:href="#3irrT"/></g><g><use fill="#182a7c" xlink:href="#3irrU"/></g><g><use fill="#182a7c" xlink:href="#3irrV"/></g><g><use fill="#3f8ffe" xlink:href="#3irrW"/></g><g opacity=".5"><use fill="#18218a" xlink:href="#3irrX"/></g><g><use fill="#3f8ffe" xlink:href="#3irrY"/></g><g><use fill="#3f8ffe" xlink:href="#3irrZ"/></g><g><use fill="#3f8ffe" xlink:href="#3irraa"/></g><g><use fill="#3f8ffe" xlink:href="#3irrab"/></g><g><use fill="#182a7c" xlink:href="#3irrac"/></g><g opacity=".2"><use fill="#fff" xlink:href="#3irrad"/></g><g opacity=".2"><use fill="#fff" xlink:href="#3irrae"/></g><g opacity=".2"><use fill="#fff" xlink:href="#3irraf"/></g><g opacity=".2"><use fill="#fff" fill-opacity="0" stroke="#fff" stroke-miterlimit="50" xlink:href="#3irrag"/></g><g opacity=".5"><use fill="#18218a" xlink:href="#3irrah"/></g><g><use fill="#2c308e" xlink:href="#3irrai"/></g><g><use fill="#2c308e" xlink:href="#3irraj"/></g><g><use fill="#2c308e" xlink:href="#3irrak"/></g><g><use fill="url(#3irram)" xlink:href="#3irral"/></g><g><use fill="#ffbdc6" xlink:href="#3irran"/></g><g><use fill="#ffbdc6" xlink:href="#3irrao"/></g><g><use fill="#ffbdc6" xlink:href="#3irrap"/></g><g><use fill="#a66477" xlink:href="#3irraq"/></g><g><use fill="#7679b4" xlink:href="#3irrar"/></g><g opacity=".05"><use xlink:href="#3irrar"/></g><g><use fill="#7679b4" xlink:href="#3irras"/></g><g opacity=".05"><use xlink:href="#3irrat"/></g><g><use fill="#ffbdc6" xlink:href="#3irrau"/></g><g opacity=".05"><use xlink:href="#3irrau"/></g><g><use fill="#565388" xlink:href="#3irrav"/></g><g opacity=".05"><use xlink:href="#3irrav"/></g><g><use fill="#565388" xlink:href="#3irraw"/></g><g opacity=".05"><use xlink:href="#3irraw"/></g><g opacity=".1"><use xlink:href="#3irrax"/></g><g><use fill="#f2f1f2" xlink:href="#3irray"/></g><g opacity=".1"><use xlink:href="#3irraz"/></g><g opacity=".1"><use xlink:href="#3irraA"/></g><g opacity=".1"><use xlink:href="#3irraB"/></g><g><use fill="#565388" xlink:href="#3irraC"/></g><g opacity=".1"><use xlink:href="#3irraD"/></g><g opacity=".1"><use xlink:href="#3irraE"/></g><g opacity=".1"><use xlink:href="#3irraF"/></g><g><use fill="#565388" xlink:href="#3irraG"/></g><g><use fill="#7679b4" xlink:href="#3irraH"/></g><g><use fill="#ffbdc6" xlink:href="#3irraI"/></g><g opacity=".05"><use xlink:href="#3irraJ"/></g><g><use fill="#7679b4" xlink:href="#3irraK"/></g><g><use fill="#565388" xlink:href="#3irraL"/></g><g opacity=".1"><use xlink:href="#3irraM"/></g><g><use fill="#ffbdc6" xlink:href="#3irraN"/></g><g opacity=".1"><use xlink:href="#3irraO"/></g><g><use fill="#a66477" xlink:href="#3irraP"/></g><g opacity=".05"><use xlink:href="#3irraQ"/></g><g opacity=".05"><g opacity=".05"><use xlink:href="#3irraR"/></g><g opacity=".05"><use xlink:href="#3irraS"/></g><g opacity=".05"><use xlink:href="#3irraT"/></g></g><g><use fill="#7679b4" xlink:href="#3irraU"/></g><g><use fill="#7679b4" xlink:href="#3irraV"/></g></g></g></svg>