<svg xmlns="http://www.w3.org/2000/svg" xmlns:xlink="http://www.w3.org/1999/xlink" width="65" height="73" viewBox="0 0 65 73"><defs><path id="wqe8a" d="M555.568 5160.104c-2.506 0-4.906 2.4-4.906 4.905v63.77c0 2.504 2.4 4.204 4.906 4.204h45.55c2.504 0 4.204-1.7 4.204-4.205v-50.455l-18.22-18.22z"/><path id="wqe8b" d="M592.007 5178.323h13.315l-18.22-18.22v14.016c0 2.505 2.4 4.204 4.905 4.204z"/><path id="wqe8c" d="M596.212 5219.668c0 1.253-.85 2.103-2.102 2.103h-50.455c-1.253 0-2.103-.85-2.103-2.103v-23.125c0-1.252.85-2.102 2.103-2.102h50.455c1.252 0 2.102.85 2.102 2.102z"/><path id="wqe8d" d="M553.883 5204.291v4.537h3.04c1.22 0 2.187-1.077 2.187-2.207 0-1.273-.966-2.33-2.187-2.33zm-2.403-1.036c0-.601.474-1.257 1.237-1.257h4.206c2.369 0 4.5 1.585 4.5 4.623 0 2.879-2.131 4.482-4.5 4.482h-3.04v2.405c0 .802-.51 1.255-1.166 1.255-.602 0-1.237-.453-1.237-1.255z"/><path id="wqe8e" d="M566.138 5204.384v8.158h3.022c4.917 0 5.136-8.158 0-8.158zm-1.148 10.379c-.601 0-1.257-.328-1.257-1.127v-10.345c0-.653.656-1.13 1.257-1.13h4.17c8.322 0 8.14 12.602.164 12.602z"/><path id="wqe8f" d="M580.251 5204.53v2.895h4.644c.656 0 1.312.656 1.312 1.291 0 .602-.656 1.093-1.312 1.093h-4.644v3.824c0 .638-.453 1.128-1.09 1.128-.802 0-1.292-.49-1.292-1.128v-10.344c0-.654.492-1.13 1.291-1.13h6.393c.802 0 1.276.476 1.276 1.13 0 .583-.474 1.239-1.276 1.239h-5.302z"/></defs><g><g transform="translate(-541 -5160)"><g><use fill="#f5f5f7" xlink:href="#wqe8a"/></g><g><use fill="#d8d8e6" xlink:href="#wqe8b"/></g><g><use fill="#f65c49" xlink:href="#wqe8c"/></g><g><use fill="#fff" xlink:href="#wqe8d"/></g><g><use fill="#fff" xlink:href="#wqe8e"/></g><g><use fill="#fff" xlink:href="#wqe8f"/></g></g></g></svg>